<svg xmlns="http://www.w3.org/2000/svg" xmlns:xlink="http://www.w3.org/1999/xlink" viewBox="0 0 127.84 143.11"><defs><style>.cls-1{fill:none;}.cls-2{fill:#eccc94;}.cls-3{clip-path:url(#clip-path);}.cls-4{fill:#3f0e11;}.cls-4,.cls-5,.cls-6,.cls-7{fill-rule:evenodd;}.cls-5{fill:#bc3938;}.cls-6{fill:#806f60;}.cls-7{fill:#957d6b;}</style><clipPath id="clip-path"><rect class="cls-1" width="127.84" height="127.84" rx="22.39" ry="22.39"/></clipPath></defs><title>资源 56</title><g id="图层_2" data-name="图层 2"><g id="Capa_1" data-name="Capa 1"><rect class="cls-2" width="127.84" height="127.84" rx="22.39" ry="22.39"/><g class="cls-3"><path class="cls-4" d="M29.62,43.12S22,52.17,32.48,56.94c-7.63,9.53,5,13.58,5,13.58S35.34,81.72,48,78.63c0,7.15,12.87,7.15,16.21,4.77,5,4.05,16.68,3.34,18.59-4.29,6.44,1.43,8.82-1.67,9.06-8.1,6.2,0,11.34-6,9.91-11.92a23.66,23.66,0,0,0-9.2-9.53L53,41.92Z"/><path class="cls-5" d="M46,104.46"/><path class="cls-6" d="M106.43,102.62S103.86,89,94.68,88.31s-23.31,1-23.31,1l.18-18.94H57.19l.18,18.94s-14.13-1.69-23.31-1-11.75,14.31-11.75,14.31c-.73,6.61.73,19.82.37,20.92-.18.53,20.33.55,41.69.43,21.35.12,41.86.1,41.69-.43C105.69,122.45,107.16,109.23,106.43,102.62Z"/><path class="cls-5" d="M105.81,100.07c-.43-1.26-11.44,4.61-41.33,3.93h-.21c-29.89.68-40.9-5.19-41.33-3.93-5.67,16.52,5.38,42.2,4.32,42.56-.49.17,17.57.34,37,.48h.2c19.45-.13,37.51-.31,37-.48C100.43,142.27,111.47,116.59,105.81,100.07Z"/><path class="cls-7" d="M88.2,58.35c.28-3.1-.29-9.94,0-13,1.18-.82,6.81-1.7,8.29,2.18,1.82,5.37-3.61,14.7-5.16,15.87C89.66,64,86.13,60.61,88.2,58.35Z"/><path class="cls-7" d="M42.48,58.35c-.28-3.1.29-9.94,0-13-1.18-.82-6.81-1.7-8.29,2.18-1.82,5.37,3.61,14.7,5.16,15.87C41,64,44.55,60.61,42.48,58.35Z"/><path class="cls-7" d="M86.07,31.4c-5.46-12-41-12.15-46.5,2.6-2.85,13.76-1.82,19.69,1.65,30.48,4.09,10,9.19,14.53,20.09,17.86,3,.91,9.36.43,11.53-.75,7.87-4,14.82-12.9,16.37-19.34C91,48.62,90.78,44.49,86.07,31.4Z"/><path class="cls-4" d="M43.23,52.19s1.6-7.53,5.25-7.76,10.5-.91,9.36-9.13c5.25.68,15.06-4.79,16.66-9.36.46,10.27,9.36,17.8,9.36,17.8L87,49.89s3.61-5.5,6.12-3.67,2.31,7.79.26,12.13S87,60.4,87,61.08s5.25,10.72,10.72,3.2,0-7.53,0-7.53S104.15,50.82,100,46c3-6.39.91-11.41-2.74-13.24.91-7.07-1.83-8.44-6.62-8.21-.68-5.93-6.16-10.72-11.18-8.21-.23-4.56-8.44-4.56-11.86-2.28-2.74-4.79-12.55-.68-13.69,2.05-4.11-3.65-9.81-.46-11.18,4.56-5-.23-10.5.69-7.53,9.36C30,29.6,24.94,39.21,29.5,44.69,32.92,44,41.63,42.6,43.23,52.19Z"/></g></g></g></svg>