<svg xmlns="http://www.w3.org/2000/svg" xmlns:xlink="http://www.w3.org/1999/xlink" viewBox="0 0 127.84 135.26"><defs><style>.cls-1{fill:none;}.cls-2{fill:#992e26;}.cls-3{clip-path:url(#clip-path);}.cls-4{fill:#f6f1c8;}.cls-4,.cls-5,.cls-6,.cls-7,.cls-8{fill-rule:evenodd;}.cls-5{fill:#efd8aa;}.cls-6{fill:#c6aa76;}.cls-7{fill:#fff;}.cls-8{fill:#ae1f16;}</style><clipPath id="clip-path"><rect class="cls-1" width="127.84" height="127.84" rx="22.39" ry="22.39"/></clipPath></defs><title>资源 45</title><g id="图层_2" data-name="图层 2"><g id="Capa_1" data-name="Capa 1"><rect class="cls-2" width="127.84" height="127.84" rx="22.39" ry="22.39"/><g class="cls-3"><path class="cls-4" d="M38.21,59.29l51.17-4.62c1.78-5.53-.51-14.65-1.23-21.29-1-9.15-9.47-22.5-20-22.5-5.93,0-7,1-13.43.75-1.67-.08.7,2-5.25.35-4.94-1.39-.88,6.13-4.76,2.91-2.76-2.29-1.13,4.64-3.31,4.64-7.6,0-1.06,5.89-4.39,8.63-4.31,3.55,1.83,16.06-1,22.77C34.25,55.09,37.69,58.11,38.21,59.29Z"/><path class="cls-5" d="M91.83,133.82H36.23c0-5.23.4-9,.4-14.19.27-8.4,12-10.67,19.71-12.16,5,.25,7.71-.25,12.67,0,10.59.6,18.5,4.88,21.48,12.54C91.8,124.61,91.7,129.21,91.83,133.82Z"/><path class="cls-6" d="M68.51,93.22l-10.08-.9c0,.4.53,19.49.77,21.8.85,6.46,8.48,8.15,9.25-1Z"/><path class="cls-7" d="M46.14,110.52c-.3,3,.82,4.93.77,7.66,0,2.13-2,.81-4.7,4.69C39,127.46,40.75,133.44,45,134.54c6.07,1.57,17.74.07,21.71.07,14.94,0,16-.4,16.84-1.48,4.78-5.83.76-11.87-3.08-14.78-.66-.5.49-4.88.13-7-.32-1.87-6.31-3.27-8-3.63-7.22-1.56.9-7.68-.64-10.37-.57-1-2.59,1.62-9.24,1.63-2.82,0-8-1.61-8.07-1.61-3.56.46,2.23,2.5,2.14,6.08C56.64,109.62,55.22,106.69,46.14,110.52Z"/><path class="cls-5" d="M89.37,56c-.68-1.51-6.53-17.68-7.08-17.86-1.9-.63-1.55-4.24-7.71-7.29A23.71,23.71,0,0,0,62.49,28.1a23.71,23.71,0,0,0-12.09,2.72c-6.16,3-5.8,6.65-7.71,7.29-.55.18-6.4,16.35-7.08,17.86C30,68.44,40.92,86,50.8,91.45c4.75,2.61,8.56,3.55,11.69,3.36,3.13.19,6.94-.75,11.69-3.36C84.05,86,95,68.44,89.37,56Z"/><path class="cls-8" d="M64.71,77.63a3.2,3.2,0,0,0-2,.53,3.21,3.21,0,0,0-2-.53c-.9,0-3.1,1-5,1.91-1.09.54-3.23-.21-3.79.13a27.11,27.11,0,0,1,4.21,2.74,9.09,9.09,0,0,0,13.19,0c.67-.59,3.26-1.57,3.42-2.51-.44-.27-1.5.42-2.3,0C68.39,78.86,65.73,77.63,64.71,77.63Z"/><path class="cls-5" d="M86.73,68.5l.88-12.37c.17-2.78,8.82-11.52,5.93,6.2C92.74,67.22,92.37,68.5,86.73,68.5Z"/><path class="cls-5" d="M37.41,69.4,36.53,57c-.17-2.78-8.82-11.52-5.93,6.2C31.4,68.11,31.77,69.4,37.41,69.4Z"/></g></g></g></svg>