<svg xmlns="http://www.w3.org/2000/svg" xmlns:xlink="http://www.w3.org/1999/xlink" viewBox="0 0 127.84 131.55"><defs><style>.cls-1,.cls-2{fill:none;}.cls-2{clip-rule:evenodd;}.cls-3{fill:#f1d44c;}.cls-4{clip-path:url(#clip-path);}.cls-5{fill:#ca6233;}.cls-5,.cls-6,.cls-8,.cls-9{fill-rule:evenodd;}.cls-11,.cls-6{fill:#289556;}.cls-7{clip-path:url(#clip-path-2);}.cls-8{fill:#f0d6ac;}.cls-10,.cls-9{fill:#d27e41;}</style><clipPath id="clip-path"><rect class="cls-1" width="127.84" height="127.84" rx="22.39" ry="22.39"/></clipPath><clipPath id="clip-path-2"><path class="cls-2" d="M91.24,131.55H39c0-5.5.39-9.42.39-14.92.26-8.84,11.72-11.22,19.24-12.79,4.84.26,7.53-.26,12.37,0,10.34.63,16.92,5.13,19.83,13.18Q91,124.29,91.24,131.55Z"/></clipPath></defs><title>资源 44</title><g id="图层_2" data-name="图层 2"><g id="Capa_1" data-name="Capa 1"><rect class="cls-3" width="127.84" height="127.84" rx="22.39" ry="22.39"/><g class="cls-4"><path class="cls-5" d="M105.9,104.2c-30.09,4.94-80.87,6.16-84.69-.55,0-22.37,1.06-53.33,5.91-66.55,6.5-20.9,56-31.13,70.12-2.77C107,52.63,106.46,82,105.9,104.2Z"/><path class="cls-6" d="M91.24,131.55H39c0-5.5.39-9.42.39-14.92.26-8.84,11.72-11.22,19.24-12.79,4.84.26,7.53-.26,12.37,0,10.34.63,16.92,5.13,19.83,13.18Q91,124.29,91.24,131.55Z"/><g class="cls-7"><path class="cls-8" d="M45.1,99.55l-7.15,14c1.54,1.54,12.43,4.33,12.55,2.73.2-2.56-.1-14.38.47-14.39,4.76-.05,3-5.09,3,5.37,0,5.19.07,7.79,1.32,9.19,4.46,5,22.45,3.75,23.35.63.56-2-.13-17.07.46-17.06,4.63.1,2.21-2.19,3.08,4.6.62,4.84.32,10.22,1,11.69s4.11.43,7.68-.68c.32-.1,1.33-.62,1.74-.79L90.36,99.25,63.36,96Z"/></g><path class="cls-8" d="M94.64,72.16c.19-2.11-.2-6.77,0-8.88.8-.55,4.64-1.16,5.64,1.48,1.24,3.66-1.57,6.37-2.62,7.17A6,6,0,0,1,94.64,72.16Z"/><path class="cls-8" d="M32.86,71.66c-.22-2.39.22-7.65,0-10-.92-.63-5.32-1.31-6.48,1.68-1.42,4.14,1.8,7.2,3,8.11A7,7,0,0,0,32.86,71.66Z"/><path class="cls-8" d="M70.73,88.85l-10.27-.94c0,.42.54,20.5.79,22.93.86,6.79,8.64,8.57,9.42-1.1Z"/><path class="cls-8" d="M36.23,54.12H92.42V74.8A20.75,20.75,0,0,1,71.74,95.49H56.92A20.75,20.75,0,0,1,36.23,74.8Z"/><path class="cls-5" d="M93.27,51.92l-59.44-.45C35.56,57.18,38,62.91,44.67,62.91c1.85,0,14.16,1.21,13.83-.15-2.21-9,1.8,1.83,7.28,1.72,6.17-.12,5.41,3.93,4.71-4.65,2.25,4.26,6.48,6,11.47,4.78,7.74-1.9,8.12,4.19,5.85-4.25s5.35,10.71,3.85,2.59c-.25-1.36-.35-2.24-.54-3.53,1.12-.59,2.2,8.09,1.81-6.74C92.91,52.15,92.93,52.26,93.27,51.92Z"/><path class="cls-9" d="M59.62,85.88A2.77,2.77,0,0,0,60.87,88C65.4,91.3,72,87.39,71.47,86c-.19-.54-1.56-.44-4.11.08C63.7,86.79,59.61,85.73,59.62,85.88Z"/><circle class="cls-10" cx="45.38" cy="76.65" r="0.95"/><circle class="cls-10" cx="51.1" cy="79.68" r="0.95"/><circle class="cls-10" cx="48.18" cy="84.73" r="0.95"/><circle class="cls-10" cx="43.36" cy="81.81" r="0.95"/><circle class="cls-10" cx="80.48" cy="75.98" r="0.95"/><circle class="cls-10" cx="86.2" cy="79.01" r="0.95"/><circle class="cls-10" cx="83.28" cy="84.05" r="0.95"/><circle class="cls-10" cx="78.46" cy="81.14" r="0.95"/><ellipse class="cls-11" cx="92.87" cy="26.25" rx="4.04" ry="4.32" transform="translate(20.9 90.55) rotate(-57.56)"/><path class="cls-6" d="M92.2,29.81l3.1-3.21c2.92-.78,10.74-1.47,11.72,2.54.59,2.41-5.77,1.33-4.21,3.44,2.37,3.18-1.31,12.18-8.86,0C93.77,32.23,92.35,29.9,92.2,29.81Z"/><path class="cls-6" d="M89.11,27.14l2.72-3.54c.35-3-.13-10.84-4.23-11.22-2.47-.23-.47,5.9-2.78,4.67-3.5-1.87-11.85,3.08,1.35,8.76C86.48,25.94,89,27,89.11,27.14Z"/></g></g></g></svg>