<svg xmlns="http://www.w3.org/2000/svg" xmlns:xlink="http://www.w3.org/1999/xlink" viewBox="0 0 127.84 137.9"><defs><style>.cls-1{fill:none;}.cls-2{fill:#688e36;}.cls-3{clip-path:url(#clip-path);}.cls-4,.cls-7{fill:#c23c41;}.cls-4,.cls-5,.cls-6{fill-rule:evenodd;}.cls-5{fill:#f7ecd3;}.cls-6{fill:#ecc963;}</style><clipPath id="clip-path"><rect class="cls-1" width="127.84" height="127.84" rx="22.39" ry="22.39"/></clipPath></defs><title>资源 51</title><g id="图层_2" data-name="图层 2"><g id="Capa_1" data-name="Capa 1"><rect class="cls-2" width="127.84" height="127.84" rx="22.39" ry="22.39"/><g class="cls-3"><path class="cls-4" d="M55.32,100.62c6.32-.57,15-1.73,22.66-.17,17.51,3.59,11.57,25.08,14.13,37.19-25.27.16-23.25-.49-48.32-.33C45,130.6,38.86,102.91,55.32,100.62Z"/><path class="cls-5" d="M74.77,88.19,61.5,87.29c-.07.4.77,19.45,1.11,21.76.6,3.16,3.36,17.62,6.34,17.77s2.3-14.14,2.87-18.81Z"/><path class="cls-5" d="M99.86,137.53l-10.48.37c-4-11.56-11.93-31.65-5-34C91.06,101.71,100.54,136,99.86,137.53Z"/><path class="cls-5" d="M37.17,137.12l10.68.37c4-11.56,9.47-31.65,2.51-34C43.72,101.3,36.5,135.62,37.17,137.12Z"/><path class="cls-4" d="M55.22,136.11a10.36,10.36,0,1,0-10.36-10.36A10.38,10.38,0,0,0,55.22,136.11Z"/><path class="cls-4" d="M80.46,136.93A10.16,10.16,0,1,0,70.3,126.77,10.18,10.18,0,0,0,80.46,136.93Z"/><path class="cls-6" d="M84.5,29.17c.94,0,9.89-5.18,15.77,6.83s1.88,15.53.71,17.18.94,4.47,2.82,8.71,5.65,40-20.48,19.54a410.2,410.2,0,0,0-5.65-45.66Z"/><path class="cls-5" d="M89.46,77.26c1.7-5.31,1-27.9-2.68-36.54-1.66-5.2-14.24-7.92-20.3-7.92-18.66,0-28.58,5.81-26.77,24.79.51,5.38,1.13,24,5.56,27.47C49,88,60.89,103.43,74.43,95.77,79.64,92.81,88.7,82.94,89.46,77.26Z"/><path class="cls-6" d="M85.45,38.46c1.68-3.9,2.46-12-.41-15.23-2.33-2.61-6.45-.3-9.87-2.76-3.05-2.2-3.94-7.54-7.79-8.14-36.34-5.69-21.8,10-23.62,10-7.5,0-17.55,3.62-8.28,10.2C38,34.33,15.12,46.36,32.63,53.18c.89.35-15.95,16.68-.18,22.94,7.73,3.07-.41-2.71,1.69,7.6,1,4.85,10.14,13.93,16.93,9.95,2.45-1.44-7.76-8.09-8.84-18.56a33.26,33.26,0,0,1,6.12-22.2c6.52-9.4,12.59-15,24.26-17.77C79.17,33.58,89.54,43.15,85.45,38.46Z"/><path class="cls-7" d="M93.34,51.79c-6.06-.28-15.75,2.86-19.72,4.67a20.48,20.48,0,0,1-7.22,1.88,20.47,20.47,0,0,1-7.22-1.88c-4-1.81-13.66-4.95-19.72-4.67-2.65.14-1.81,1.81-1,4S41.83,71.3,53,72.27c6.69.14,8.92-4.39,10.1-6.41s2.19-3.59,3.25-3.75c1.06.16,2.13,1.82,3.25,3.75s3.41,6.55,10.1,6.41C91,71.3,93.48,58.06,94.32,55.83S96,51.93,93.34,51.79ZM58.83,68.37c-3.83,3.55-10.24.49-10.24.49-4.39-2.93-6-7.52-6.83-10.31s-.9-4,1.46-3.62,10.45,1.32,13.59,3S61.9,65.59,58.83,68.37ZM91,58.55c-.84,2.79-2.44,7.38-6.83,10.31,0,0-6.41,3.07-10.24-.49-3.06-2.79-1.11-8.78,2-10.45s11.22-2.65,13.59-3S91.88,55.76,91,58.55Z"/></g></g></g></svg>