<svg xmlns="http://www.w3.org/2000/svg" xmlns:xlink="http://www.w3.org/1999/xlink" viewBox="0 0 127.84 131.99"><defs><style>.cls-1{fill:none;}.cls-2{fill:#688e36;}.cls-3{clip-path:url(#clip-path);}.cls-4{fill:#f1d44c;}.cls-4,.cls-5,.cls-6,.cls-7{fill-rule:evenodd;}.cls-5{fill:#94478a;}.cls-6{fill:#f5e9d2;}.cls-7{fill:#d1803f;}</style><clipPath id="clip-path"><rect class="cls-1" width="127.84" height="127.84" rx="22.39" ry="22.39"/></clipPath></defs><title>资源 55</title><g id="图层_2" data-name="图层 2"><g id="Capa_1" data-name="Capa 1"><rect class="cls-2" width="127.84" height="127.84" rx="22.39" ry="22.39"/><g class="cls-3"><path class="cls-4" d="M54.4,82.43c-13.82,9.95-28.46,9.52-21.65,33.73,0,0,.92-10.35,2.78-10.35C39.31,118,19.45,126.46,42,119.72c2.6-.77,32.58-20.29,19.59-33.41C59.44,84.09,57.71,82.43,54.4,82.43Z"/><path class="cls-5" d="M61.69,98.36c5.37-.56,4-.6,10.56.52,19.93,1.75,19.76,21,21.93,32.79-21.48.16-31,0-52.52.2C41.67,117.34,45.25,100,61.69,98.36Z"/><path class="cls-6" d="M58.77,100.69c-.08,6,4.79,24.7,8.59,20.61,4.3-4.64,7.17-12.31,7.17-21.71C69.49,96,64.14,93,58.77,100.69Z"/><path class="cls-6" d="M72.33,71.91,59.43,70.69c-.06.54,1.81,26.86,2.11,30s2.32,3.86,4.45,3.9,4.49-.73,4.71-4.3Z"/><path class="cls-6" d="M34.4,46.1l58.72.07.55,20.56c.57,21.49-19.24,29.82-29.13,30.53C54,98,30.44,81.63,32.44,63.7Z"/><path class="cls-7" d="M66.34,83.21a1.53,1.53,0,0,0-1.18.44A1.53,1.53,0,0,0,64,83.21c-.83,0-3.52,2-4.42,2.75a6,6,0,0,1,1.77,1.18,5,5,0,0,0,3.83,2.33A5,5,0,0,0,69,87.14,6,6,0,0,1,70.76,86C69.86,85.18,67.17,83.21,66.34,83.21Z"/><path class="cls-6" d="M35.47,75.8c-.26-2.83-1.56-9.06-1.83-11.89-1.09-.74-6.3-1.55-7.67,2-1.68,4.9,2.13,8.53,3.56,9.6A17,17,0,0,0,35.47,75.8Z"/><path class="cls-6" d="M42.37,120c-.23,1.59-1.6,11-1,12h7c-.68-1.17.59-7.38.59-9.15C44.9,122.84,44.46,121.84,42.37,120Z"/><path class="cls-6" d="M92.74,119.77c.23,1.59,1.6,11,1,12h-7c.69-1.17-.59-7.38-.59-9.15C90.21,122.66,90.65,121.66,92.74,119.77Z"/><path class="cls-4" d="M81.93,46.29C88.78,53.49,65.54,66,65.54,59.18c0-9.22-.42,2.92-10,5.52-1.54.42,8.06-19.45.41-5.34-9.91,18.28-3.74-9.09-6.11-4-4.58,9.87-11.4,19.66-11.4,31,0-.09-4.86-25-4.08-8.27.29,6.15-5.57-8.78-5.57-24.31,0-24.9,14.16-47.27,41.9-44.93s34.65,34.91,32,59.82c-1.39,13-14.92,15.28-12.84,14.12.26-.15,4-15.35,2.09-13.6C81.45,78.82,92.08,57.31,81.93,46.29Z"/><path class="cls-6" d="M94,74.07c.24-2.59-.24-8.29,0-10.88,1-.68,5.68-1.42,6.91,1.82,1.52,4.49-1.92,7.81-3.21,8.79A7.43,7.43,0,0,1,94,74.07Z"/></g></g></g></svg>