<svg xmlns="http://www.w3.org/2000/svg" xmlns:xlink="http://www.w3.org/1999/xlink" viewBox="0 0 127.84 135.64"><defs><style>.cls-1{fill:none;}.cls-2{fill:#549fa0;}.cls-3{clip-path:url(#clip-path);}.cls-4{fill:#f0d6ac;}.cls-4,.cls-5,.cls-6,.cls-7{fill-rule:evenodd;}.cls-5{fill:#c64e36;}.cls-6{fill:#010002;}.cls-7{fill:#bb7008;}</style><clipPath id="clip-path"><rect class="cls-1" width="127.84" height="127.84" rx="22.39" ry="22.39"/></clipPath></defs><title>资源 50</title><g id="图层_2" data-name="图层 2"><g id="Capa_1" data-name="Capa 1"><rect class="cls-2" width="127.84" height="127.84" rx="22.39" ry="22.39"/><g class="cls-3"><path class="cls-4" d="M56.07,100.55c-.15,4.37,8.57,18.1,15.36,15.1,7.7-3.4,12.84-9,12.84-15.91C75.25,97.1,65.68,94.91,56.07,100.55Z"/><path class="cls-4" d="M76.29,69.22,62.39,67.9c-.07.59,2,29,2.28,32.37s2.5,4.15,4.79,4.2,4.84-.79,5.07-4.64Z"/><path class="cls-4" d="M94,73.13c.26-2.79-.26-8.94,0-11.73,1.06-.73,6.12-1.53,7.45,2,1.63,4.83-2.07,8.42-3.46,9.47A8,8,0,0,1,94,73.13Z"/><path class="cls-4" d="M35.42,41.4l46-9.3L98.7,41.48,96.6,61.09c.62,23.17-15.22,35.16-28.7,35.44-11.38.24-29.63-16.47-27.48-35.8Z"/><path class="cls-5" d="M69.84,81.4a1.64,1.64,0,0,0-1.27.47,1.64,1.64,0,0,0-1.27-.47c-.89,0-3.79,2.12-4.76,3a6.45,6.45,0,0,1,1.91,1.27c.42.53,1.75,2.51,4.13,2.51s3.71-2,4.13-2.51a6.46,6.46,0,0,1,1.91-1.27C73.63,83.52,70.73,81.4,69.84,81.4Z"/><path class="cls-4" d="M46.36,73.77c-.29-3-1.69-9.76-2-12.81-1.17-.8-6.79-1.67-8.27,2.14C34.3,68.38,38.41,72.3,40,73.45A18.3,18.3,0,0,0,46.36,73.77Z"/><path class="cls-6" d="M79.77,37.72S83,59.52,99.36,60.59c3.95-22.16-5.13-52.9-41.07-44.32,0,0-10.1-15-28.56-6.08S7.93,43.08,13,53.09,11,78.82,4.29,77c3.22,5.36,26.18-1.43,24.09-18.59S32.09,7,56,18.06C40.71,22.71,24.89,40.58,33.6,60.59,36.34,62.38,42.83,67,42.83,67s-1-16.8,8.55-16.08S73.76,53.09,79.77,37.72Z"/><path class="cls-7" d="M84.27,99.74l-14.13,8.83-14.07-8S43,105.67,43,132.86c3.26,1.81,41.47,4.74,56.43.92C100.22,120.17,94,102.87,84.27,99.74Z"/></g></g></g></svg>