<svg xmlns="http://www.w3.org/2000/svg" xmlns:xlink="http://www.w3.org/1999/xlink" viewBox="0 0 127.84 131.22"><defs><style>.cls-1{fill:#eccc94;}.cls-2{fill:#fff;}.cls-3{clip-path:url(#clip-path);}.cls-4{fill:#010002;}.cls-4,.cls-5,.cls-6,.cls-7,.cls-8{fill-rule:evenodd;}.cls-5{fill:#c9a970;}.cls-6{fill:#efd8aa;}.cls-7{fill:#353535;}.cls-8{fill:#ae1f16;}</style><clipPath id="clip-path"><rect class="cls-1" width="127.84" height="127.84" rx="22.39" ry="22.39"/></clipPath></defs><title>资源 52</title><g id="图层_2" data-name="图层 2"><g id="Capa_1" data-name="Capa 1"><rect class="cls-2" width="127.84" height="127.84" rx="22.39" ry="22.39"/><rect class="cls-1" width="127.84" height="127.84" rx="22.39" ry="22.39"/><g class="cls-3"><path class="cls-4" d="M70,95.73,49.69,95C30.95,95,14.8,62.31,14.8,42.76c0-26,8.12-35.95,35.85-32.86C65.11,11.5,85.12,23.08,91.72,34.67c9.63,16.94,41.29,59.08,7.16,71.2C88.58,109.52,72,101,70,95.73Z"/><path class="cls-4" d="M56.87,102.1a69.82,69.82,0,0,1,16.67.19c18.23,1.41,19.37,19.09,21.37,28.55l-59,.38C35.93,119.58,41.83,103.41,56.87,102.1Z"/><path class="cls-5" d="M68.29,82.48,58,81.49c-.05.43,6.33,24.7-2.82,22.63.08.8,0,4.76.31,8.55.73,7.92,6.44,16.65,7.59,16.67,1.61,0,19.84-9.87,9.29-24.91l-2.9-1.25Z"/><path class="cls-6" d="M43.8,39.59c-8.92,16.47-7.81,43.1,6.42,56,10.8,9.77,23,3.66,31.89-5.34,4.78-4.84,4.07-30.13,0-34.49-2.54-2.74-1.65-6.19-9.64-9.88-7.76-3.59-16.33-12.59-26.86-8.11A6.14,6.14,0,0,0,43.8,39.59Z"/><path class="cls-7" d="M62.08,59.74a6.88,6.88,0,0,1-3.68-.35c-8.82-4.24-7.76-5.77-16.11-4.81-9.35,1.08-11.49,12.29-5.65,19.77,5.59,7.16,15.92,4.49,19.77-4.55,7.51-17.62,6.69,6,20.36,6,15.14,0,16.8-21.68,5.23-23.18-8-1-10.66.49-12.63,2A39.08,39.08,0,0,1,62.08,59.74Z"/><path class="cls-8" d="M65.11,80.13a2.23,2.23,0,0,0-1.8.75,2.21,2.21,0,0,0-1.79-.75c-.8,0-2.74,1.35-4.39,2.67a33.88,33.88,0,0,0-2.48,2.37c.59.32,2.25.81,2.84,1.64s2.46,4,5.82,4,5.23-3.12,5.82-4,2.33-.13,2.46-1.45c-.39-.37-.77-1.47-1.47-2.05C68.36,81.84,66,80.13,65.11,80.13Z"/></g></g></g></svg>