<svg xmlns="http://www.w3.org/2000/svg" xmlns:xlink="http://www.w3.org/1999/xlink" viewBox="0 0 127.84 131.53"><defs><style>.cls-1{fill:none;}.cls-2{fill:#7ab3ab;}.cls-3{clip-path:url(#clip-path);}.cls-4{fill:#55453c;}.cls-4,.cls-5,.cls-6,.cls-7{fill-rule:evenodd;}.cls-5{fill:#f0d6ac;}.cls-6{fill:#d27e41;}.cls-7{fill:#010002;}</style><clipPath id="clip-path"><rect class="cls-1" width="127.84" height="127.84" rx="22.39" ry="22.39"/></clipPath></defs><title>资源 43</title><g id="图层_2" data-name="图层 2"><g id="Capa_1" data-name="Capa 1"><rect class="cls-2" width="127.84" height="127.84" rx="22.39" ry="22.39"/><g class="cls-3"><path class="cls-4" d="M61.32,95.29c5.79-.6,4.34-.64,11.39.56C94.19,97.73,94,118.48,96.35,131.19c-23.16.17-33.44,0-56.6.21C39.75,115.74,43.61,97,61.32,95.29Z"/><path class="cls-5" d="M52.57,98.1c-.15,4.37,8.57,18.1,15.36,15.1,7.7-3.4,12.84-9,12.84-15.9C71.75,94.66,62.19,92.47,52.57,98.1Z"/><path class="cls-5" d="M72.79,66.78,58.9,65.45c-.07.59,2,29,2.28,32.37S63.68,102,66,102s4.84-.79,5.07-4.64Z"/><path class="cls-5" d="M94.83,71.41c.26-2.79-.26-8.94,0-11.73,1.06-.73,6.12-1.53,7.45,2,1.63,4.83-2.07,8.42-3.46,9.47A8,8,0,0,1,94.83,71.41Z"/><path class="cls-5" d="M31.92,39,95.21,39l.59,22.15c.62,23.17-20.74,32.14-31.39,32.9C53,94.9,27.66,77.26,29.81,57.92Z"/><path class="cls-6" d="M66.35,79a1.64,1.64,0,0,0-1.27.47A1.64,1.64,0,0,0,63.8,79c-.89,0-3.79,2.12-4.76,3a6.46,6.46,0,0,1,1.91,1.27c.42.53,1.75,2.51,4.13,2.51s3.71-2,4.13-2.51a6.46,6.46,0,0,1,1.91-1.27C70.14,81.08,67.24,79,66.35,79Z"/><path class="cls-7" d="M84.17,19.49c9,19.94-17.06,27.19-30.68,31.85C35.95,57.35,32.85,69,42.43,84c4.46,7,5.17,3.52-3.32,1.94s-15.83-23-16.52-31.48c-2.86-35.14,27.21-52.2,57-37.35C81,17.8,83.55,18.12,84.17,19.49Z"/><path class="cls-7" d="M56.46,11.41C104.61,9.24,111.93,41.94,103.6,56c-7.87,13.28-12.66,16.23-19.5,16.89C84.15,73,105,43.94,71.9,43.94H70.66Z"/><path class="cls-5" d="M33.07,71c-.29-3-1.69-9.76-2-12.81-1.17-.8-6.79-1.67-8.27,2.14-1.82,5.28,2.29,9.19,3.84,10.35A18.28,18.28,0,0,0,33.07,71Z"/><path class="cls-5" d="M40.51,118.55c-.25,1.71-1.73,11.9-1.1,13H47c-.74-1.26.64-7.95.64-9.86C43.23,121.67,42.76,120.59,40.51,118.55Z"/><path class="cls-5" d="M94.8,118.36c.25,1.71,1.73,11.9,1.1,13H88.3c.74-1.26-.64-7.95-.64-9.86C92.07,121.47,92.54,120.39,94.8,118.36Z"/></g></g></g></svg>