<svg xmlns="http://www.w3.org/2000/svg" xmlns:xlink="http://www.w3.org/1999/xlink" viewBox="0 0 127.84 130.36"><defs><style>.cls-1{fill:none;}.cls-2{fill:#7ab0c9;}.cls-3{clip-path:url(#clip-path);}.cls-4{fill:#010002;}.cls-11,.cls-4,.cls-5,.cls-6,.cls-7,.cls-8,.cls-9{fill-rule:evenodd;}.cls-5{fill:#c23c41;}.cls-6{fill:#fff;}.cls-7{fill:#d7ac6c;}.cls-8{fill:#f0d6ac;}.cls-9{fill:#d27e41;}.cls-10,.cls-11{fill:#a33534;}</style><clipPath id="clip-path"><rect class="cls-1" width="127.84" height="127.84" rx="22.39" ry="22.39"/></clipPath></defs><title>资源 47</title><g id="图层_2" data-name="图层 2"><g id="Capa_1" data-name="Capa 1"><rect class="cls-2" width="127.84" height="127.84" rx="22.39" ry="22.39"/><g class="cls-3"><path class="cls-4" d="M90.52,68.17l-56.6,2.51c-1.71,1.75,3.17,24.56,3.23,24.65,1.33,1.79,1.89,10.75,33.79,8.26,2.86-.22,18.85-1.43,20.1-6.3C92.66,91,92.95,76.67,90.52,68.17Z"/><path class="cls-5" d="M58.46,97.2c6.07-.55,4.55-.59,11.93.51,22.51,1.73,22.31,20.78,24.77,32.45-24.26.16-32.15,0-56.41.2C38.75,116,39.89,98.81,58.46,97.2Z"/><path class="cls-6" d="M69,93.48,60,94.31c-10.78,5.67-10.16,14.36-8.9,15.88,1.75,2.11,7.33-4.19,8.44-3.15,1.68,1.57-1.78,11.81,2.39,11.81,5.37,0,7.79.28,8.08-1s-.55-3.7-.28-9.94c.15-3.5,9.79,8.27,9.79.51C79.55,102.36,73.85,96,69,93.48Z"/><path class="cls-7" d="M70,71,57.28,69.81c-.06.54,1.79,26.59,2.09,29.72s2.3,3.81,4.4,3.86,4.45-.73,4.66-4.26Z"/><path class="cls-8" d="M92.36,115.32c.32,1.95,3.93,13.75,2.87,14.93l-6.94-.14c-.3-1.31-2.84-9.5-2.76-11.66C87.58,118.16,88.66,117.49,92.36,115.32Z"/><path class="cls-8" d="M39.25,115.32c-.32,1.95-1.84,13.75-.78,14.93l6.94-.14a108.78,108.78,0,0,0,.81-11.94C44.16,117.88,42.95,117.49,39.25,115.32Z"/><path class="cls-6" d="M84.94,119.38c.71.37,12-1.7,7.78-5.82C92,112.73,79.86,116.75,84.94,119.38Z"/><path class="cls-6" d="M38.2,116.92c.36.71,10.7,5.63,9.72-.16C47.81,115.65,35.62,111.81,38.2,116.92Z"/><path class="cls-8" d="M92.17,74.22c.23-2.56-.24-8.21,0-10.77,1-.67,5.62-1.41,6.84,1.8,1.5,4.44-1.9,7.73-3.18,8.7A7.32,7.32,0,0,1,92.17,74.22Z"/><path class="cls-8" d="M34.05,20.17l59,9.48v37c0,21.28-19,29.51-28.82,30.21-10.43.75-32.41-15.36-31.76-33.2Z"/><path class="cls-4" d="M32.25,63.7c-8.76-1-12.91-37.91,2.11-47.44,14.17-9,57.33-8.72,63.74,10.56C102,38.53,104,56,92.55,65.49c0,0,3.8-32.3-19.62-33.81-7.29-.47-6.8,7.66-9,8-.93.14-.27-5.53-5.58-7.44C38.08,25,35.53,51.76,33.8,57,33.61,57.57,32.66,63.75,32.25,63.7Z"/><path class="cls-4" d="M90.3,59.62a.32.32,0,0,0-.26-.32l-.35-.08c-1.68-.27-3.37-.52-5.07-.64-1.36-.09-2.72-.15-4.08-.21a46,46,0,0,0-7.84.27,25.77,25.77,0,0,0-4.7,1c-.77.25-1.54.55-2.31.79a7.55,7.55,0,0,1-3.71.32,18.09,18.09,0,0,1-2.23-.59,31.87,31.87,0,0,0-4-1.1,41.13,41.13,0,0,0-7.87-.69,47.53,47.53,0,0,0-5.71.29c-1.5.18-3,.38-4.5.58a7.9,7.9,0,0,0-.94.22.34.34,0,0,0-.28.34c0,.88-.06,1.77-.08,2.66a2.32,2.32,0,0,0,0,.4.29.29,0,0,0,.19.24,2,2,0,0,1,.33.17,2.67,2.67,0,0,1,.92,1.4c.13.39.22.79.33,1.18.07.24.16.48.22.73.26,1.16.5,2.32.77,3.47a13.19,13.19,0,0,0,1.11,3.18,5.15,5.15,0,0,0,2.62,2.48,9.7,9.7,0,0,0,2.24.61,18.1,18.1,0,0,0,4.15.14,18.92,18.92,0,0,0,4.15-.72,7.54,7.54,0,0,0,2.76-1.41,12.71,12.71,0,0,0,3-3.72,25.69,25.69,0,0,0,1.77-4.48c.14-.44.27-.88.43-1.32a1.65,1.65,0,0,1,1.37-1.14,3,3,0,0,1,.66,0,1.72,1.72,0,0,1,1.34.56,2.85,2.85,0,0,1,.38.61,12.58,12.58,0,0,1,.5,1.29A26.61,26.61,0,0,0,68,71.5a8.81,8.81,0,0,0,3.4,3.38A11.37,11.37,0,0,0,74.68,76a22.2,22.2,0,0,0,5.24.34A12.88,12.88,0,0,0,83,75.88a5.09,5.09,0,0,0,2.66-1.7,7.67,7.67,0,0,0,1-1.86A27,27,0,0,0,88,68c.16-.72.33-1.43.51-2.15.09-.37.2-.74.31-1.11a3,3,0,0,1,.4-1,1.81,1.81,0,0,1,.81-.73.41.41,0,0,0,.28-.32,1.65,1.65,0,0,0,.06-.36c0-.53,0-1.06,0-1.59S90.32,60,90.3,59.62ZM38.59,61.29h0c-.57,0-1-.12-1-.26s.46-.26,1-.26,1,.11,1,.26S39.16,61.29,38.59,61.29Zm20,5.6h0a15.69,15.69,0,0,1-1.76,4.36,9.16,9.16,0,0,1-1.56,2,6.52,6.52,0,0,1-2.93,1.55,16.7,16.7,0,0,1-6.75.38c-.45-.07-.88-.18-1.32-.3a3.53,3.53,0,0,1-2.11-1.53A8.4,8.4,0,0,1,41,70.61a29.55,29.55,0,0,1-.61-3.95,10.34,10.34,0,0,1,0-2.3,11.38,11.38,0,0,1,.17-1.16,3.21,3.21,0,0,1,2.47-2.55A21.38,21.38,0,0,1,46.78,60c.93-.08,1.86-.12,2.47-.15a26.4,26.4,0,0,1,5.71.57,8.35,8.35,0,0,1,2.11.67,5.3,5.3,0,0,1,.92.61,2.39,2.39,0,0,1,.81,1.51A9.13,9.13,0,0,1,58.61,66.89Zm27.7-.57h0a16.35,16.35,0,0,1-1,5.44,5.07,5.07,0,0,1-1.18,1.9,4.85,4.85,0,0,1-2.18,1.13,12.13,12.13,0,0,1-3.11.35,21.6,21.6,0,0,1-4.69-.51,6.34,6.34,0,0,1-3.72-2.34A12.93,12.93,0,0,1,67.91,67a10.9,10.9,0,0,1-.36-2.71,7.63,7.63,0,0,1,.12-1.19,2.55,2.55,0,0,1,1.68-2,15.36,15.36,0,0,1,2.81-.78,24.13,24.13,0,0,1,3.22-.44c.84-.06,1.69-.08,2.26-.1a26.93,26.93,0,0,1,6.17.83,6.59,6.59,0,0,1,1,.42,1.51,1.51,0,0,1,.72.71A11.29,11.29,0,0,1,86,62.84a4.19,4.19,0,0,1,.21,1.33C86.29,64.88,86.33,65.6,86.31,66.32Zm1.79-5h0c-.57,0-1-.12-1-.26s.46-.26,1-.26,1,.11,1,.26S88.67,61.29,88.09,61.29Z"/><path class="cls-9" d="M66,83a1.52,1.52,0,0,0-1.17.43A1.51,1.51,0,0,0,63.69,83c-.82,0-3.48,1.95-4.37,2.72a5.92,5.92,0,0,1,1.75,1.17,4.9,4.9,0,0,0,3.79,2.3,4.9,4.9,0,0,0,3.79-2.3,5.9,5.9,0,0,1,1.75-1.17C69.51,84.92,66.84,83,66,83Z"/><circle class="cls-10" cx="94.99" cy="75.92" r="3.31"/><path class="cls-8" d="M35.47,75.63c-.26-2.8-1.55-9-1.81-11.76-1.08-.73-6.24-1.54-7.59,2-1.67,4.85,2.1,8.44,3.52,9.5A16.8,16.8,0,0,0,35.47,75.63Z"/><path class="cls-11" d="M32.52,80.59a3.31,3.31,0,1,0-3.31-3.31A3.32,3.32,0,0,0,32.52,80.59Z"/></g></g></g></svg>