<svg xmlns="http://www.w3.org/2000/svg" xmlns:xlink="http://www.w3.org/1999/xlink" viewBox="0 0 127.84 146.64"><defs><style>.cls-1{fill:none;}.cls-2{fill:#e3b046;}.cls-3{clip-path:url(#clip-path);}.cls-4{fill:#010002;}.cls-5{fill:#d7bf99;}.cls-6{fill:#f0d6ac;}.cls-7{fill:#583a17;}.cls-8{fill:#3c2600;}.cls-9{fill:#d1ad58;}</style><clipPath id="clip-path"><rect class="cls-1" width="127.84" height="127.84" rx="22.39" ry="22.39"/></clipPath></defs><title>资源 48</title><g id="图层_2" data-name="图层 2"><g id="Capa_1" data-name="Capa 1"><rect class="cls-2" width="127.84" height="127.84" rx="22.39" ry="22.39"/><g class="cls-3"><path class="cls-4" d="M34.26,53.13C32.95,57.21,30.34,68,42.09,94.26,57.33,98,80,95.75,80,95.75L97.39,65.36Z"/><rect class="cls-5" x="56.16" y="76.9" width="14.58" height="39.54"/><path class="cls-6" d="M75,34.4c.61,0,7.5.69,7.5.69l8.92,7.59s.76,2.6,1.26,5.43L94.85,47l2,5.69s-.61,7.42-1.22,7.59-1.82,4-1.82,4l-2.23.86-2.92-1.22,0-.05c-3.93,6.55-11.29,14.09-25,15.42C43.36,77.56,39.13,59.53,38.43,55.41c-.09-.53-.12-.83-.12-.83S74.38,34.4,75,34.4Z"/><path class="cls-4" d="M76.49,39s-20,24.83-47,14.08c2.18-20.38,17-33.35,37-31.87s37.45,19.27,30.92,44.1C93.47,69.81,85.64,68,85.64,68l3-4.08s6.1.74,6.53-9.26-8.71-4.82-8.71-4.82Z"/><polygon class="cls-7" points="90.51 25.74 92.87 32.68 36.31 32.97 39.24 25.1 86.56 24.34 90.51 25.74"/><path class="cls-8" d="M39.15,25.74c.76-6,4.66-17.14,24.74-17.5,21.2-.38,25.62,10.87,26.63,17.5Z"/><path class="cls-8" d="M36.64,32.12v0H93.11l0,.18c3,.15,6.24,1.7,6.05,4.73s-3.31,3.77-7.28,3.84H36.2s-6.05-.44-6.05-4.58C30.15,32.36,36.16,32.13,36.64,32.12Z"/><path class="cls-7" d="M70.73,91.84l22.2-.43s9.79.78,9.18,9.9c-.51,7.54-.61,45.34-.61,45.34H29.08L27.17,117.5s-2-24.76,7.77-26.07c5.17-.69,21.15,0,21.15,0l8.07,22.16Z"/><path class="cls-4" d="M97.39,65.36S93.47,95.74,73,113.9c-.44-25.2,4.35-31.5,4.35-31.5Z"/><ellipse class="cls-9" cx="64.85" cy="119.91" rx="3.43" ry="2.92"/><ellipse class="cls-9" cx="64.85" cy="131.58" rx="3.43" ry="2.92"/></g></g></g></svg>