<svg xmlns="http://www.w3.org/2000/svg" xmlns:xlink="http://www.w3.org/1999/xlink" viewBox="0 0 127.84 127.94"><defs><style>.cls-1{fill:none;clip-rule:evenodd;}.cls-2{fill:#f6ebdb;}.cls-3{fill:#bc3938;}.cls-10,.cls-11,.cls-12,.cls-13,.cls-3,.cls-4,.cls-6,.cls-7,.cls-9{fill-rule:evenodd;}.cls-4{fill:#7a551f;}.cls-5{clip-path:url(#clip-path);}.cls-6{fill:#553b17;}.cls-7,.cls-8{fill:#010002;}.cls-9{fill:#c38735;}.cls-10{fill:#835a20;}.cls-11{fill:#21a0d8;}.cls-12{fill:#643333;}.cls-13{fill:#d1af85;}</style><clipPath id="clip-path"><path class="cls-1" d="M73.34,86.81,55.7,86.06c-.09.33,1.39,10.21,1.8,12.15.72,2.62,3.77,23.37,7.35,23.53,3.81.17,6.11-20.66,6.8-24.63Z"/></clipPath></defs><title>资源 49</title><g id="图层_2" data-name="图层 2"><g id="Capa_1" data-name="Capa 1"><rect class="cls-2" width="127.84" height="127.84" rx="22.39" ry="22.39"/><path class="cls-3" d="M89.89,127.94h10.45C96.07,112,85,98.33,70.88,97.08a15.34,15.34,0,0,0-5.8-.17,15.33,15.33,0,0,0-5.8.17c-14.08,1.25-25.19,15-29.47,30.86H89.89Z"/><path class="cls-4" d="M73.34,86.81,55.7,86.06c-.09.33,1.39,10.21,1.8,12.15.72,2.62,3.77,23.37,7.35,23.53,3.81.17,6.11-20.66,6.8-24.63Z"/><g class="cls-5"><path class="cls-6" d="M64.86,114.49h0a.91.91,0,0,1,.91.91v11.12a.91.91,0,1,1-1.81,0V115.4A.91.91,0,0,1,64.86,114.49Z"/></g><path class="cls-7" d="M82.11,104.24a9.43,9.43,0,0,1-8.26,4.42A9.58,9.58,0,0,1,66,104.87a9.58,9.58,0,0,1-7.85,3.79,9.85,9.85,0,0,1-7-2.79,9.92,9.92,0,0,1-6.69,2.49,9.37,9.37,0,0,1-8.36-4.61,10.27,10.27,0,0,1-5,1.27c-5.08,0-9.19-3.53-9.19-7.89a6.89,6.89,0,0,1,.58-2.77c-4.64-.4-8.27-3.76-8.27-7.86a7.26,7.26,0,0,1,2.28-5.2c-4.66-.39-8.29-3.76-8.29-7.86a7.54,7.54,0,0,1,3.5-6.2c-3.6-1.07-6.18-4-6.18-7.46,0-4.19,3.81-7.62,8.61-7.88a7.84,7.84,0,0,1-4.94-7c0-4.36,4.12-7.89,9.19-7.89a10.56,10.56,0,0,1,3.34.54,7.23,7.23,0,0,1-2.17-5.09c0-4.36,4.12-7.89,9.19-7.89a10.63,10.63,0,0,1,2.39.27,6.9,6.9,0,0,1-.55-2.7c0-4.36,4.11-7.89,9.19-7.89a10.18,10.18,0,0,1,5.54,1.59c.32-4.11,4.3-7.36,9.17-7.36a9.84,9.84,0,0,1,7,2.82A9.22,9.22,0,0,1,70.17,6c4.32,0,7.94,2.56,8.93,6a10.12,10.12,0,0,1,5.78-1.76c5.08,0,9.19,3.53,9.19,7.89,0,.2,0,.41,0,.61a10.68,10.68,0,0,1,2.53-.3c5.08,0,9.19,3.54,9.19,7.9a7.19,7.19,0,0,1-2,4.89c.27,0,.53,0,.81,0,5.08,0,9.19,3.53,9.19,7.89A7.39,7.39,0,0,1,111,44.8c4.08.8,7.13,3.94,7.13,7.69a7.62,7.62,0,0,1-3.85,6.43,8,8,0,0,1,5.52,7.24c0,3.56-2.74,6.57-6.51,7.55a7.61,7.61,0,0,1,3.84,6.41c0,3.76-3.05,6.9-7.14,7.7a7.23,7.23,0,0,1,2.13,5.06c0,4.36-4.12,7.89-9.19,7.89a10.34,10.34,0,0,1-4.53-1c-.3,4.13-4.29,7.4-9.17,7.4A9.81,9.81,0,0,1,82.11,104.24Z"/><path class="cls-8" d="M82.11,104.24l-.15-.09a9.25,9.25,0,0,1-8.1,4.33,9.41,9.41,0,0,1-7.71-3.72l-.14-.2-.14.2a9.41,9.41,0,0,1-7.71,3.72,9.67,9.67,0,0,1-6.88-2.74l-.12-.12-.13.11a9.75,9.75,0,0,1-6.58,2.44,9.2,9.2,0,0,1-8.21-4.52l-.08-.16-.16.09a10.09,10.09,0,0,1-4.92,1.25,9.8,9.8,0,0,1-6.39-2.27A7.18,7.18,0,0,1,22,97.13a6.74,6.74,0,0,1,.57-2.7l.1-.23-.24,0c-4.57-.39-8.11-3.7-8.11-7.68a7.09,7.09,0,0,1,2.22-5.07l.27-.27-.38,0c-4.58-.38-8.14-3.69-8.13-7.68a7.36,7.36,0,0,1,3.43-6.06l.31-.21-.36-.11C8.19,66,5.67,63.14,5.67,59.78c0-4.08,3.72-7.45,8.45-7.7l.72,0-.66-.3a7.67,7.67,0,0,1-4.84-6.84A7.18,7.18,0,0,1,12,39.46a9.79,9.79,0,0,1,6.38-2.27,10.38,10.38,0,0,1,3.28.53l.7.23-.52-.52a7.05,7.05,0,0,1-2.12-5A7.18,7.18,0,0,1,22.34,27a9.79,9.79,0,0,1,6.38-2.27,10.45,10.45,0,0,1,2.35.27l.34.08-.13-.32a6.7,6.7,0,0,1-.54-2.63,7.19,7.19,0,0,1,2.63-5.45,9.79,9.79,0,0,1,6.39-2.27A10,10,0,0,1,45.2,16l.25.16,0-.29c.31-4,4.2-7.2,9-7.2a9.65,9.65,0,0,1,6.92,2.77l.19.19.1-.25a9,9,0,0,1,8.5-5.14c4.25,0,7.8,2.52,8.76,5.88l.07.24.2-.14a10,10,0,0,1,5.68-1.73,9.8,9.8,0,0,1,6.39,2.27,7.19,7.19,0,0,1,2.63,5.45q0,.3,0,.59l0,.24.24-.06a10.44,10.44,0,0,1,2.49-.3A9.79,9.79,0,0,1,103,20.94a7.18,7.18,0,0,1,2.63,5.45,7,7,0,0,1-1.93,4.77l-.3.33.44,0c.26,0,.52,0,.79,0A9.8,9.8,0,0,1,111,33.69a7,7,0,0,1-.1,11l-.28.24L111,45c4,.79,7,3.87,7,7.52a7.44,7.44,0,0,1-3.77,6.27l-.31.19.34.13a7.79,7.79,0,0,1,5.41,7.07c0,3.46-2.67,6.41-6.38,7.38l-.4.1.35.22A7.44,7.44,0,0,1,117,80.12c0,3.65-3,6.74-7,7.52l-.32.06.23.23a7.05,7.05,0,0,1,2.08,4.93,7.18,7.18,0,0,1-2.63,5.45,9.8,9.8,0,0,1-6.39,2.27,10.15,10.15,0,0,1-4.45-1l-.23-.11,0,.26c-.29,4-4.19,7.24-9,7.24a9.64,9.64,0,0,1-7-2.85l-.16-.17-.12.2.15.09-.13.12a10,10,0,0,0,7.25,3c5,0,9-3.32,9.35-7.56H98.4l-.08.16a10.51,10.51,0,0,0,4.61,1,10.16,10.16,0,0,0,6.61-2.35,7.53,7.53,0,0,0,2.75-5.72,7.39,7.39,0,0,0-2.18-5.18l-.13.12,0,.17c4.16-.81,7.29-4,7.29-7.87a7.79,7.79,0,0,0-3.92-6.56l-.09.15,0,.17c3.83-1,6.64-4.07,6.64-7.72a8.13,8.13,0,0,0-5.63-7.4l-.06.17.09.15a7.79,7.79,0,0,0,3.93-6.57c0-3.85-3.12-7.05-7.28-7.87l0,.17.11.13a7.32,7.32,0,0,0,.1-11.51,10.14,10.14,0,0,0-6.61-2.35c-.28,0-.55,0-.82,0v.18l.13.12a7.37,7.37,0,0,0,2-5,7.53,7.53,0,0,0-2.75-5.72,10.14,10.14,0,0,0-6.61-2.35,10.73,10.73,0,0,0-2.58.31l0,.17.17,0c0-.2,0-.41,0-.62a7.54,7.54,0,0,0-2.75-5.72,10.15,10.15,0,0,0-6.61-2.35A10.3,10.3,0,0,0,79,11.91l.1.14.17,0c-1-3.54-4.71-6.13-9.1-6.13a9.39,9.39,0,0,0-8.83,5.36l.16.07.13-.12A10,10,0,0,0,54.46,8.3c-4.94,0-9,3.3-9.35,7.52h.18l.09-.15a10.35,10.35,0,0,0-5.63-1.62,10.15,10.15,0,0,0-6.61,2.35,7.54,7.54,0,0,0-2.75,5.72A7,7,0,0,0,31,24.9l.16-.07,0-.17a10.81,10.81,0,0,0-2.43-.28,10.15,10.15,0,0,0-6.61,2.35,7.54,7.54,0,0,0-2.75,5.72,7.41,7.41,0,0,0,2.22,5.21l.13-.12.05-.16a10.64,10.64,0,0,0-3.39-.55,10.15,10.15,0,0,0-6.61,2.35A7.53,7.53,0,0,0,9,44.91a8,8,0,0,0,5,7.16l.07-.16v-.17c-4.88.26-8.78,3.75-8.78,8.05,0,3.54,2.65,6.54,6.31,7.63l.05-.17-.1-.14A7.71,7.71,0,0,0,8,73.45c0,4.21,3.73,7.64,8.45,8V81.3l-.12-.13A7.44,7.44,0,0,0,14,86.5c0,4.21,3.72,7.63,8.43,8l0-.17-.16-.07a7.06,7.06,0,0,0-.6,2.84,7.53,7.53,0,0,0,2.75,5.72,10.15,10.15,0,0,0,6.61,2.35,10.44,10.44,0,0,0,5.09-1.3l-.08-.15-.16.08a9.55,9.55,0,0,0,8.52,4.71A10.09,10.09,0,0,0,51.25,106l-.12-.13L51,106a10,10,0,0,0,7.13,2.84,9.76,9.76,0,0,0,8-3.87l-.14-.1-.14.1a9.76,9.76,0,0,0,8,3.87,9.6,9.6,0,0,0,8.41-4.51l-.15-.09-.13.12Z"/><path class="cls-9" d="M86.5,81.44c.27-2.93-.27-9.37,0-12.3,1.11-.77,6.42-1.61,7.81,2.06C96,76.27,92.14,80,90.68,81.13A8.39,8.39,0,0,1,86.5,81.44Z"/><path class="cls-9" d="M84.48,52.29c-5.14-11.34-38.69-11.45-43.84,2.46-2.69,13-1.72,18.56,1.56,28.73,3.86,9.47,12.62,13.68,18.94,16.83,2.75,1,8.83.41,10.87-.7,7.42-3.8,14-12.16,15.43-18.23C89.14,68.51,88.93,64.62,84.48,52.29Z"/><path class="cls-9" d="M42.35,82.05c-.27-2.88.27-9.23,0-12.11-1.11-.76-6.42-1.58-7.81,2-1.71,5,2.17,8.69,3.63,9.78A8.51,8.51,0,0,0,42.35,82.05Z"/><path class="cls-10" d="M58.09,88.94c3.93,0,10.07.8,13.78-.25,1.62-.46-1.51,3-3.81,3.21C61,92.45,58.89,91,58.09,88.94Z"/><path class="cls-11" d="M88,65.89c-6.94-16.8-42.36-22.73-49.12.46-2.8-3.71-1.95-12.72.36-19C41.31,40,51.91,35.9,62.67,36.1c10.52.19,21.17,4.51,24.09,9.61C89.14,49.34,88.41,56.88,88,65.89Z"/><path class="cls-12" d="M83.83,64.78c-.36.17,3.05-.67,4.11-.14s1.55,2.86,1,3.77a15.81,15.81,0,0,1-2.5,2.52Z"/><path class="cls-12" d="M42.72,64.78c.37.17-3.05-.67-4.11-.14s-1.55,2.86-1,3.77a15.74,15.74,0,0,0,2.49,2.52Z"/><path class="cls-12" d="M83.59,64.42c-4.08-2.48-11-1.19-14.61.53a12.35,12.35,0,0,1-5.68,1.46h0a12.34,12.34,0,0,1-5.68-1.46C54,63.23,47,61.94,43,64.42c-4.53,2.75-4,9.49-2.26,12.92s5,4.35,8.94,4.4,8.61-1.62,10.18-5.82c.66-1.77,1.68-6,3.45-6.2,1.78.18,2.79,4.43,3.45,6.2,1.57,4.2,6.27,5.86,10.18,5.82s7.22-1,8.94-4.4S88.11,67.17,83.59,64.42Z"/><path class="cls-13" d="M81.73,79.28h0c-3.84,2.34-9.52,1-12.23-2.16s-3-6.08-2.18-8.4S78.19,62.6,82.69,66,85.57,76.93,81.73,79.28Z"/><path class="cls-13" d="M57,77.11h0c-2.71,3.17-8.39,4.51-12.23,2.16s-5.58-9.69-1-13.23,14.51.36,15.37,2.67S59.76,73.94,57,77.11Z"/><path class="cls-3" d="M46.68,127.41"/></g></g></svg>