<svg xmlns="http://www.w3.org/2000/svg" xmlns:xlink="http://www.w3.org/1999/xlink" viewBox="0 0 127.84 136.82"><defs><style>.cls-1{fill:none;}.cls-2{fill:#7ab3ab;}.cls-3{clip-path:url(#clip-path);}.cls-4{fill:#688e36;}.cls-4,.cls-5,.cls-6,.cls-7,.cls-8,.cls-9{fill-rule:evenodd;}.cls-5{fill:#c9a970;}.cls-6{fill:#efd8aa;}.cls-7{fill:#7a5b29;}.cls-8{fill:#d1803f;}.cls-10,.cls-9{fill:#8d3637;}</style><clipPath id="clip-path"><rect class="cls-1" width="127.84" height="127.84" rx="22.39" ry="22.39"/></clipPath></defs><title>资源 54</title><g id="图层_2" data-name="图层 2"><g id="Capa_1" data-name="Capa 1"><rect class="cls-2" width="127.84" height="127.84" rx="22.39" ry="22.39"/><g class="cls-3"><path class="cls-4" d="M58.38,99.41c8.34-.62,6.25-.67,16.4.58,30.93,2,30.66,23.45,34,36.62-33.35.18-44.19,0-77.54.22C31.28,120.6,32.86,101.23,58.38,99.41Z"/><path class="cls-5" d="M73.46,69.88l-14.4-1.37c-.07.61,2,30,2.36,33.53s2.59,4.31,5,4.35,5-.82,5.26-4.81Z"/><path class="cls-6" d="M95.95,74.65c.27-2.89-.27-9.26,0-12.15,1.09-.76,6.34-1.59,7.72,2,1.7,5-2.14,8.72-3.58,9.81A8.3,8.3,0,0,1,95.95,74.65Z"/><path class="cls-6" d="M30.37,27.3l66.58,9V71.48c0,20.22-21.48,28-32.52,28.71-11.77.71-36.57-14.59-35.84-31.56Z"/><path class="cls-7" d="M28.33,62.78c-9.88-1-14.57-36.45,2.39-45.62,16-8.64,64.69-8.38,71.92,10.16C107,38.58,110.1,53.5,97.17,62.61c0,0-1.94-14.69-8.78-21.24-7.14-6.85-13.44,7.27-23.59,7.23-9.13,0-22.08-15.33-29.47-3.1a69.29,69.29,0,0,0-5.23,10.83C29.88,56.88,28.8,62.83,28.33,62.78Z"/><path class="cls-8" d="M67,82.07a2.16,2.16,0,0,0-1.67.62,2.16,2.16,0,0,0-1.67-.62c-1.17,0-5,2.78-6.24,3.88a8.51,8.51,0,0,1,2.5,1.67c.55.69,2.29,3.29,5.41,3.29s4.86-2.6,5.41-3.29A8.51,8.51,0,0,1,73.21,86C71.94,84.85,68.13,82.07,67,82.07Z"/><path class="cls-6" d="M105,119.86c.44,2.2,5.4,15.52,4,16.85l-9.54-.17c-.41-1.48-3.91-10.71-3.79-13.15C98.41,123.06,99.88,122.31,105,119.86Z"/><path class="cls-6" d="M32,119.86c-.44,2.2-2.53,15.52-1.08,16.85l9.54-.17a101.16,101.16,0,0,0,1.11-13.47C38.73,122.75,37.06,122.31,32,119.86Z"/><path class="cls-9" d="M99.12,80.3a3.73,3.73,0,1,0-3.73-3.73A3.74,3.74,0,0,0,99.12,80.3Z"/><path class="cls-6" d="M32,76.24c-.29-3.16-1.75-10.11-2-13.27-1.21-.83-7-1.73-8.56,2.22-1.88,5.47,2.38,9.53,4,10.72A19,19,0,0,0,32,76.24Z"/><circle class="cls-10" cx="28.64" cy="78.1" r="3.73"/></g></g></g></svg>