<svg xmlns="http://www.w3.org/2000/svg" xmlns:xlink="http://www.w3.org/1999/xlink" viewBox="0 0 127.84 128.84"><defs><style>.cls-1{fill:none;}.cls-2{fill:#d6cec0;}.cls-3{clip-path:url(#clip-path);}.cls-4{fill:#583431;}.cls-5{fill:#f0d6ac;}.cls-6{fill:#211915;}</style><clipPath id="clip-path"><rect class="cls-1" width="127.84" height="127.84" rx="22.39" ry="22.39"/></clipPath></defs><title>资源 14</title><g id="图层_2" data-name="图层 2"><g id="Capa_1" data-name="Capa 1"><rect class="cls-2" width="127.84" height="127.84" rx="22.39" ry="22.39"/><g class="cls-3"><path class="cls-4" d="M78.81,91l-9.37,4.23v-.19l-3.21.09L63,95.05v.19l-8.08-5.69c-.55.18-33.79,14.14-33.79,31.4v7.9h90.16v-7.9C111.31,103.68,79.36,91.2,78.81,91Z"/><path class="cls-5" d="M46.74,93.46A172.64,172.64,0,0,0,68,113.15C80.28,101.59,83.63,93,83.63,93s-9-4.57-13.56-4.86C68.85,88,55.88,87.5,46.74,93.46Z"/><path class="cls-5" d="M42.2,48c.88,1.32-.52,3.75-.52,3.75s-3.89-5.29-3.67,2,2.57,20.75,7.2,17.44c3.09,6,9.13,16.53,9.13,16.53l16.1,3.75s4.85-3.75,5.73-4.63S83,77.29,83,77.29l3.93-8.22s2,2.62,3.8-4.21,2.57-17-1.34-16.9c0-9.93-.22-13.46-1.77-13.68s-9,.66-9.71,1.1S46.17,43.1,46.17,43.1Z"/><g id="Capa_1-2" data-name="Capa 1"><path class="cls-6" d="M94.37,25c-.9-.13-4.08-7.1-6.43-10.55s-7.19-4.09-7.19-4.09c-1.23-1,3.56-2.63,3.56-2.63s.47-.8-2.47-.2-5.25,5.14-5.56,1.26S70.11,5,72,5.2,74.5,8.8,74.5,8.8l-.69-.36c-3.72-2-17.45-.6-21.93,3S36.75,26.31,37.82,34.17,35.66,44.6,35.66,44.6h4s.47,6.75-.16,7.61,2.16-.51,2.16-.51l1.4,9.08a57.56,57.56,0,0,1,1.55-9.28,3.24,3.24,0,0,0,1,2.41c.67.57.91,2.08,1.1,3.81.52,6.36,6.64,6.83,6.64,6.83s5.49,1,8.32-2.12a8.3,8.3,0,0,0,2.4-8.35,1.79,1.79,0,0,1,.15-1.37,2.82,2.82,0,0,1,4.67,0A1.79,1.79,0,0,1,69,54.09a8.3,8.3,0,0,0,2.4,8.35c2.83,3.12,8.32,2.12,8.32,2.12a7.34,7.34,0,0,0,6.64-6.83c.19-1.75.43-3.25,1.1-3.81a3.65,3.65,0,0,0,1-3.15,9.66,9.66,0,0,1-3.8-.66,19,19,0,0,0-7.12-1.22c-3.46-.09-7.84,2.68-8.08,2.92-.4-.84-1.66-1.24-2.91-1.22S64,51,63.63,51.79c-.23-.23-4.29-2.81-7.69-2.92a48.13,48.13,0,0,0,11.19-2l-.78.88-.39.23h.19l-.21.25.47-.24c2,.07,4.07-.39,9.26-2.53a32.92,32.92,0,0,0,10.13-6.3,14,14,0,0,1,1.58,6.63c-.18,3.52,1.1,5,1.1,5s1.07-2.08,1.77-3.36S94.4,34.73,94,30.54,92,25,92,25,95.27,25.15,94.37,25ZM86.62,51.7l.75.12c-.12.08,0,.91-.47.91S86.62,51.7,86.62,51.7Zm-15.22.41A9.38,9.38,0,0,1,78,49.83c6.64.05,7.65,3.77,7.76,5.06.08.86-.12,5.51-2.3,7.07-3.77,2.71-9.49,2.12-11.71-.75S69.6,53.83,71.4,52.11ZM55.82,46.94l-1.06,2a21.47,21.47,0,0,0-4,.48Zm-9.75,5.8c-.47,0-.34-.83-.47-.91l.75-.12S46.53,52.74,46.06,52.74Zm-1.19-2a4.72,4.72,0,0,1,1.53-2.54l1.29,2.12A9.62,9.62,0,0,1,44.87,50.77ZM61.33,61.23c-2.21,2.87-8,3.47-11.7.75-2-1.49-2.37-6.22-2.29-7.07.11-1.29,1.12-5,7.76-5.06a9.38,9.38,0,0,1,6.61,2.28C63.51,53.83,63.49,58.43,61.33,61.23Z"/><path class="cls-6" d="M66.94,101.11h0Z"/><path class="cls-6" d="M67.25,101.11h0Z"/><path class="cls-6" d="M65,101.11h0Z"/><path class="cls-6" d="M82,76.17c-1.48.22-5.11-4.89-9-5.74a35.09,35.09,0,0,0-7.15-.81,37.71,37.71,0,0,0-7,.81c-3.87.85-7.5,6-9,5.74s-2.63-4.09-3.53-7a43.13,43.13,0,0,0-2.51-6s0,.14,0,.39c.11,1.81.63,9.42,1.71,11.88,1.22,2.8,1.29,12.58,5,16S54.23,98,57.5,99.61c2.36,1.16,6.41,1.43,8.47,1.5s6.12-.34,8.47-1.5c3.26-1.59,3.17-4.69,6.88-8.11s3.8-13.18,5-16C87.39,73,87.9,65.43,88,63.62c0-.25,0-.39,0-.39a41.58,41.58,0,0,0-2.51,6C84.64,72.08,83.47,75.95,82,76.17Zm-6.82,1.06c-.31,1.82-.78,4.17-2.94,4.93S66.91,82,67,80.72s2.83-1.21,1.92-1.89-5-.68-5.92,0,1.84.61,1.92,1.89-3.1,2.2-5.26,1.45-2.63-3.1-2.94-4.93,2.63-2.5,4.48-3.4,7.65-.91,9.5,0S75.5,75.41,75.19,77.24Z"/></g></g></g></g></svg>