<svg xmlns="http://www.w3.org/2000/svg" xmlns:xlink="http://www.w3.org/1999/xlink" viewBox="0 0 127.84 133.74"><defs><style>.cls-1{fill:none;}.cls-2{fill:#bb7008;}.cls-3{clip-path:url(#clip-path);}.cls-4{fill:#333233;}.cls-10,.cls-11,.cls-12,.cls-13,.cls-4,.cls-5,.cls-6,.cls-7,.cls-8,.cls-9{fill-rule:evenodd;}.cls-5{fill:#010002;}.cls-6{fill:#d1ac75;}.cls-7{fill:#f0d6ac;}.cls-8{fill:#8cc2df;}.cls-9{fill:#6f6f6e;}.cls-10{fill:#656565;}.cls-11{fill:#e5e6e6;}.cls-12{fill:#fff;}.cls-13{fill:#4c4d4d;}</style><clipPath id="clip-path"><rect class="cls-1" width="127.84" height="127.84" rx="22.39" ry="22.39"/></clipPath></defs><title>资源 16</title><g id="图层_2" data-name="图层 2"><g id="Capa_1" data-name="Capa 1"><rect class="cls-2" width="127.84" height="127.84" rx="22.39" ry="22.39"/><g class="cls-3"><path class="cls-4" d="M75.74,40.2l4-4.85c8.37.22,8.73,23.76,8.73,29.5,0,9.41,1.16,9.81-4.9,17.18-2.13,2.6-6.67,5.28-10.34,5.28Z"/><path class="cls-4" d="M43,40.75,39,35.9c-8.37.22-8.73,23.76-8.73,29.5,0,9.41-1.15,9.81,4.91,17.18,2.13,2.6,6.67,5.28,10.34,5.28Z"/><path class="cls-5" d="M49.74,95.15a74.4,74.4,0,0,1,19.8.25c21.67,1.86,23,25.3,25.39,37.83l-70.07.51C24.86,118.3,31.87,96.87,49.74,95.15Z"/><path class="cls-6" d="M69.51,74l-20.34-.85c-.1.38,1.08,18.41,1.55,20.6,1.71,6.1,17.11,7.7,18.67-1Z"/><path class="cls-7" d="M84.58,72.33c.28-3.06-.28-9.8,0-12.86,1.16-.81,6.72-1.68,8.17,2.15C94.54,66.91,90.48,70.84,89,72A8.76,8.76,0,0,1,84.58,72.33Z"/><path class="cls-7" d="M33.61,66.94c3.08,13.22-1.71,18,14.62,23.73,4,1.39,25.53.12,28.49-1.44,10.73-5.3,7.43-16.48,9.54-25a39,39,0,0,0-4.17-24.34C64.5,8,28.36,33.42,33.61,66.94Z"/><path class="cls-5" d="M41.23,27.45c-2.4,1.12-6.35,1.32-6.73,4.29-.32,2.48,3.13,5,5,6,8,4.52,29.68,3.32,38.56.22,4.16-1.45,9-4.58,4.59-8.36A7.31,7.31,0,0,0,78.59,28c.36-5,.18-12.24-3.31-15.51-4.1-3.84-9.26-4.43-15-4.39C37.05,8.24,44.09,18,41.23,27.45Z"/><path class="cls-8" d="M51,55.44c-7.55,1.59-4.84,12,2.05,10.61C60.3,64.6,57.86,54,51,55.44Z"/><path class="cls-8" d="M66,55.65c-7.58,1.58-4.91,12,2,10.59a5.39,5.39,0,1,0-2-10.59Z"/><path class="cls-5" d="M66,55.65a5.39,5.39,0,1,1,2,10.59C61.12,67.62,58.45,57.23,66,55.65Zm-15-.2c-7.55,1.59-4.84,12,2.05,10.61C60.3,64.6,57.86,54,51,55.44Zm-6.54,4.37c0,2.48.24,1.45,1.22,2.42s1.65,4.18,5.68,4.6c5.12.53,6.19-3.91,7.4-6.47h1.13c1.22,1.66,1.8,6.78,7.51,6.5,4-.19,5-3.94,5.93-4.72.66-.55.66,0,1-.83a3.38,3.38,0,0,0,.07-1.46c-1-.68-.8-.44-1.5-1.39-.38-.51-.85-1-1.24-1.46a6.63,6.63,0,0,0-8.22-1.17,10.11,10.11,0,0,0-2.5,2.89c-3.45-.18-2.65.46-4.3-1.85a5.54,5.54,0,0,0-4.37-2,6.5,6.5,0,0,0-4.65,1.73C46.55,57.64,45.8,59.13,44.49,59.81Z"/><path class="cls-5" d="M58.45,78.4c.23,1.4.75.79,2.22,1.57,5.68,3,14.94,18.62,23.54,16.13,3.39-1,5.12-5.08,5-9.47-1.77-1-3.08-2.29-5.76-2.56-1.25,1.36-3.81,5.76-4.87,6.45-2.51-.13-7.51-5.27-9.42-6.72-4.27-3.23-7.76-4.54-9.95-6.06h-.91Z"/><path class="cls-4" d="M59.11,74.16c.64-1.89.64-3.28-1.93-2.41-3.82,1.3-4,6.52-8.07,9-3.05,1.91-6.45.26-6.68-3.05-.2-2.88,2.53-4.84,4-4.25.95.37.58,1,.48,1.73,3.07-2.31-2.25-4.23-4.7-.11-1.88,3.16-.38,6.72,2.72,7.46C51.1,84,53,78.93,55.44,76.14,56.8,74.55,57,74.87,59.11,74.16Z"/><path class="cls-4" d="M64,76.23c.92,1.09,1.53,2.14,2.37,3.23,5.35,6.88,14.17,2.18,10.91-4.08-2.22-4.27-7.58-2.9-5.06-.32l0-.4c.06-.54-.09,0,.06-.49.75-2.2,5,.34,4.59,3.84s-4,4.58-6.85,2.66c-3.87-2.63-4.44-8-8.11-9-2.36-.63-2.31.85-1.69,2.45C62.46,75.12,62.24,74.18,64,76.23Z"/><path class="cls-9" d="M59.8,77.93l-.09-.46h.65l-.18-.1-.17,0c-.42-.07-.44-.33-.3.15C59.47,77.91,59.49,77.66,59.8,77.93Z"/><path class="cls-10" d="M59.53,127.91,69.68,93.11c.69,2.3,11,7.71,9.5,9.4s-3.35,2.75-3,3.41c.63,1.16,4.62,2.39,7,4.45,1.13,1-13.72,18.05-22.3,19.51-.05,0-1.48.48-1.54.54Z"/><path class="cls-10" d="M59.7,127.91,50.13,93.11c-.69,2.3-11,7.71-9.55,9.4s3.37,2.75,3,3.41c-.63,1.16-4.64,2.39-7,4.45-1.14,1,13.79,18.05,22.42,19.51a9.61,9.61,0,0,1,.91.54Z"/><path class="cls-11" d="M63.76,97.46l-15-1.85c.84,10.85.36,21.47,9.8,31.22,1.15,1.19.79,1.54,1.8,1.08,3.05-1.37,4.73-4.34,6.9-7.42.84-1.19,3.38-11.42,4.3-22.78Z"/><path class="cls-5" d="M64.28,96.8l-8.7.13c.26,2.9,3.53,15.59,7.35,4C63.34,99.67,64.28,98.06,64.28,96.8Z"/><path class="cls-12" d="M69.57,92.57,61.4,96.79c1.08,1.42,7.7,7.85,7.72,7.81C70.33,102.36,76.7,92.09,69.57,92.57Z"/><path class="cls-12" d="M51.49,92.45l8.17,4.22c-1.08,1.42-7.7,7.85-7.72,7.81C50.73,102.24,44.37,92,51.49,92.45Z"/><path class="cls-5" d="M60.7,103.66l-1.5.92c-.14.35-3.73,17.93-3.46,19.2.36,1.71,3.73,4.81,4.07,4.82.7,0,5.64-4.29,5.46-5Z"/><path class="cls-7" d="M35.64,74.82c-.28-3.06.28-9.8,0-12.86-1.16-.81-6.71-1.68-8.17,2.15-1.79,5.3,2.27,9.23,3.79,10.39A8.77,8.77,0,0,0,35.64,74.82Z"/><path class="cls-4" d="M36.39,44.56,32.63,51l-.4,7.9c.93,2.29,1.37,8.31,3.71,8.31,1.58,0,.27-5-.13-6.72A34.08,34.08,0,0,1,36.39,44.56Z"/><path class="cls-4" d="M83.43,43.18l3.76,6.44.4,7.9c-.93,2.29-1.36,8.31-3.71,8.31-1.58,0-.27-5,.13-6.72A34.08,34.08,0,0,0,83.43,43.18Z"/><path class="cls-5" d="M89.12,125.44a1.83,1.83,0,1,1-2.37-2.79c.49-.42,4.13-5.73,8.16-11.62,2.5-3.65,5.14-7.51,7.37-10.67s4.74-4.17,7-4a6.85,6.85,0,0,1,3.09.95,7.65,7.65,0,0,1,2.25,2,5.75,5.75,0,0,1,.88,5.88,23.86,23.86,0,0,1-2.21,3.39c-.63.86-1.18,1.54-1.18,1.58a1.83,1.83,0,0,1-3.65-.17c0-1.06.9-2.22,1.88-3.56a20.6,20.6,0,0,0,1.87-2.85,2.19,2.19,0,0,0-.52-2.08,4,4,0,0,0-1.18-1.06,3.2,3.2,0,0,0-1.44-.45c-1.16-.06-2.53.6-3.87,2.5-2.18,3.09-4.83,7-7.34,10.64C93.75,119.21,90,124.72,89.12,125.44Z"/><polygon class="cls-13" points="89.05 133.28 75.83 133.38 88.89 105.05 88.64 116.48 97.54 105.82 92.73 119.61 102.32 111.71 96.46 120.91 107.38 116.82 89.05 133.28"/></g></g></g></svg>