<svg xmlns="http://www.w3.org/2000/svg" xmlns:xlink="http://www.w3.org/1999/xlink" viewBox="0 0 127.84 132.72"><defs><style>.cls-1{fill:none;}.cls-2{fill:#edd4d6;}.cls-3{clip-path:url(#clip-path);}.cls-4{fill:#2b415d;}.cls-5{fill:#f0d6ac;}.cls-6{fill:#003a6a;}.cls-7{fill:#211915;}.cls-8{fill:#87a8d6;}</style><clipPath id="clip-path"><rect class="cls-1" width="127.84" height="127.84" rx="22.39" ry="22.39"/></clipPath></defs><title>资源 22</title><g id="图层_2" data-name="图层 2"><g id="Capa_1" data-name="Capa 1"><rect class="cls-2" width="127.84" height="127.84" rx="22.39" ry="22.39"/><g class="cls-3"><path class="cls-4" d="M73.59,96l41.82,33.41-7.6,2.34s-88.15,1.73-88.58.58c-.52-1.39-6.14-5-6.14-5l38.2-31.8Z"/><path class="cls-5" d="M37,55.52c-.49.25-4.43-2.21-3.69,5.66s3.17,16.48,6,13.4C41.14,80.85,49.5,95.36,49.5,95.36L62,100.28l8.85-5.41,8.85-14.26,3.2-7.13s3.44,4.18,3.93-3S91.06,53.31,86.39,55c.25-6.89-.49-15.25-.49-16.48s-5.67-14.23-5.67-14.23c-1.7-1-32.44,3.16-32.44,3.16l-3,3.69s-7.13,3-7.13,3.69-2,11.31-2,11.31Z"/><path class="cls-6" d="M73.7,63.33a9.13,9.13,0,0,0,9.17-8.25c.37-.08.92-.28.92-.77s-.55-.74-.93-.85a9.24,9.24,0,0,0-18.2-.94,9.84,9.84,0,0,0-5.55-.07,9.23,9.23,0,0,0-18.17,1c-.37.11-.93.35-.93.84s.55.7.92.77A9.22,9.22,0,0,0,59.3,54.3c0-.17,0-.35,0-.51a10,10,0,0,1,5.23,0c0,.18,0,.34,0,.52A9.17,9.17,0,0,0,73.7,63.33Zm0-16.51A7.5,7.5,0,1,1,66,54.33,7.59,7.59,0,0,1,73.7,46.82Zm-23.58,15a7.5,7.5,0,1,1,7.66-7.5A7.59,7.59,0,0,1,50.12,61.83Z"/><path class="cls-7" d="M44.45,35.59c2.4-3.53,16.13-2.69,21.43-2.93,8.17-.39,12.88-5.45,13.2-7.32S78,11.63,70.49,10.69s-19.71,1.4-20.36,0S48.71,14.58,53,14.58s-4,1.55-7.78,2.64c-4.44,1.28-10.4,10.2-9.54,9.66,2.7-1.68,7.29-2.5,10.81.62,0,0-4.18-1.69-5.38-1.66-2.63.08-4.85,2.69-5.76,7.77-.71,3.93-.92,14.82.85,18.42,1.2,2.45.65,9.67,1.81,5.58,0,0-.31-10.1.79-13C40.43,40.42,43,37.69,44.45,35.59Z"/><path class="cls-7" d="M87.32,28.43c-3.53-5.05-7.09-4.11-7.09-4.11a7.69,7.69,0,0,1-1.7,3.81A31.8,31.8,0,0,1,74,32c.42.07,9.32.48,11,11.39.79,5-.69,15.07-.62,14.72s2-4.43,2.69-6.56S90.85,33.47,87.32,28.43Z"/><path class="cls-7" d="M84.39,66.42l-.46,1.26h0v0c0,.06-2.27,6.16-3,8a8.43,8.43,0,0,1-3,3.08,2.71,2.71,0,0,1-2.32.42,10.89,10.89,0,0,1-3.89-1.76,24.22,24.22,0,0,1-1.94-2c-1.17-1.33-2.37-2.7-3.35-3a5,5,0,0,0-4.32.61,2.57,2.57,0,0,0-.89,1,2.6,2.6,0,0,0-.89-1,5,5,0,0,0-4.32-.61c-1,.32-2.19,1.69-3.35,3a24.06,24.06,0,0,1-1.94,2,10.6,10.6,0,0,1-3.86,1.76,2.83,2.83,0,0,1-2.37-.42,8.42,8.42,0,0,1-2.92-3.06,49.32,49.32,0,0,1-1.41-5.19c-.21-.93-.35-1.59-.37-1.6l-.21-1-.24-1.12L39.32,69v.26c0,.76-.07,2.95,0,5.29,0,.18,0,.36,0,.54,0,2.66.2,5.4.64,6.42a18.83,18.83,0,0,1,.61,2.28c1,4.29,2.88,12.27,8.65,16.19a83,83,0,0,0,11.13,6.63,1.45,1.45,0,0,0,.92.33,1.56,1.56,0,0,0,.72-.18A85.46,85.46,0,0,0,73.39,100C79.15,96.09,81,88.1,82,83.81c.25-1,.44-1.86.61-2.28A7.6,7.6,0,0,0,83,80.08h0c.75-3.71,1.37-11.82,1.4-12.22v-.28h0L84.56,66l-.17.4ZM65.45,92.32l-.06.05h-.07c-.1,0-.92.24-1.34-.19A1.1,1.1,0,0,1,63.86,91a4.39,4.39,0,0,1,1.79-1.87c.78-.57,1.53-1.09,1.41-1.69-.07-.35-2.18-.84-5.82-.84s-5.75.5-5.82.84c-.11.6.62,1.12,1.41,1.69A4.37,4.37,0,0,1,58.64,91a1.14,1.14,0,0,1-.11,1.18,1.11,1.11,0,0,1-.78.26,2.06,2.06,0,0,1-.55-.07l-.1-.05c-.06,0-5.14-4.27-7.25-5.29-3.79-1.83-4.65-4.07-4.66-4.77a.4.4,0,0,1,.17-.37l.14-.07.15.09a5.85,5.85,0,0,0,3.53-.64c1.5-.9,3.29-1.3,6.85-1.55,3.87-.26,4.58-2,4.65-2.21l0-.08.07,0a1.06,1.06,0,0,1,.73-.2.53.53,0,0,1,.34.28,3.23,3.23,0,0,0,1.26,1.32,7.4,7.4,0,0,0,3.39.93c3.56.25,5.36.65,6.85,1.55a5.83,5.83,0,0,0,3.55.64l.14-.1.3.21,0,.21c-.1.4-2.47,4.59-4.69,4.85S65.5,92.28,65.45,92.32Z"/><polygon class="cls-8" points="50.6 105.68 50.31 119.44 61.78 114.57 73.53 118.58 71.81 105.39 61.2 111.7 50.6 105.68"/></g></g></g></svg>