<svg xmlns="http://www.w3.org/2000/svg" xmlns:xlink="http://www.w3.org/1999/xlink" viewBox="0 0 127.84 130.13"><defs><style>.cls-1{fill:none;}.cls-2{fill:#f1d44c;}.cls-3{clip-path:url(#clip-path);}.cls-4{fill:#fff;}.cls-4,.cls-5,.cls-6,.cls-7,.cls-8{fill-rule:evenodd;}.cls-5{fill:#010002;}.cls-6{fill:#cacac9;}.cls-7{fill:#4e3615;}.cls-8{fill:#705528;}</style><clipPath id="clip-path"><rect class="cls-1" width="127.84" height="127.84" rx="22.39" ry="22.39"/></clipPath></defs><title>资源 4</title><g id="图层_2" data-name="图层 2"><g id="Capa_1" data-name="Capa 1"><rect class="cls-2" width="127.84" height="127.84" rx="22.39" ry="22.39"/><g class="cls-3"><path class="cls-4" d="M55.59,94.56A85.91,85.91,0,0,1,76,94.79c22.35,1.72,23.75,23.33,26.19,34.87l-72.29.47C29.92,115.9,37.16,96.15,55.59,94.56Z"/><path class="cls-5" d="M69.77,97.76l-7.93.12c1.7,3.62,2.6,14.21,6.09,3.61C68.29,100.38,69.77,98.91,69.77,97.76Z"/><path class="cls-6" d="M74,94.52l-7.45,3.84c1,1.29,7,7.15,7,7.12C74.67,103.44,80.47,94.08,74,94.52Z"/><path class="cls-6" d="M58.12,93.8l7.45,3.84c-1,1.29-7,7.15-7,7.12C57.42,102.71,51.62,93.36,58.12,93.8Z"/><path class="cls-7" d="M75.1,82.66,57,82.11c-.09.24,1,11.84,1.38,13.24,1.53,3.92,15.24,5,16.63-.63Z"/><polygon class="cls-5" points="66.47 104.01 64.46 104.76 61.99 129.75 69.62 129.69 66.47 104.01"/><path class="cls-8" d="M70.34,35.45,45.6,41.74c-2.39,4.34-3.69,25.93-.57,30.43,2.75,4,4.94,12,10.26,16.5,7.17,6,21,2.77,25.67-10.27,6-16.94,6.3-11.55,8.75-35.28Z"/><path class="cls-5" d="M44,70.33C34.89,64.87,31.41,54,33.25,40a35.14,35.14,0,0,1,12-21.6c30.9-24.6,63.48,18.24,47.37,43.73-.05.08-8.09,18.78-11.83,16.69,2.63-8.19,7.21-16,7-22.68-.15-4.37.57-7.47-7.55-11.78-4.86-2.58-2.61,1-11.8,0-1.89,6-6.41-2.12-11.72,3.52C54.17,50.61,40.05,37.06,44,70.33Z"/><path class="cls-5" d="M38,64.22l5.38-7.14c-1.12,10.21.85,12.19,3.5,18.16.66,1.49,1.78,3.36.76,3.29C44.42,78.3,39.73,68.14,38,64.22Z"/></g></g></g></svg>