<svg xmlns="http://www.w3.org/2000/svg" xmlns:xlink="http://www.w3.org/1999/xlink" viewBox="0 0 127.84 129.69"><defs><style>.cls-1{fill:none;}.cls-2{fill:#dbc563;}.cls-3{clip-path:url(#clip-path);}.cls-4{fill:#a3373a;}.cls-4,.cls-5,.cls-6,.cls-7,.cls-8{fill-rule:evenodd;}.cls-5{fill:#773233;}.cls-6{fill:#e4e4e3;}.cls-7{fill:#c9a970;}.cls-8{fill:#fff;}.cls-9{fill:#f0d6ac;}.cls-10{fill:#35271c;}</style><clipPath id="clip-path"><rect class="cls-1" width="127.84" height="127.84" rx="22.39" ry="22.39"/></clipPath></defs><title>资源 17</title><g id="图层_2" data-name="图层 2"><g id="Capa_1" data-name="Capa 1"><rect class="cls-2" width="127.84" height="127.84" rx="22.39" ry="22.39"/><g class="cls-3"><path class="cls-4" d="M54.78,97.73a92.34,92.34,0,0,1,20,.21C85.64,98.7,93.46,99.7,97,104c2.95,3.57,5.12,20.23,6.32,25.42-23.59.14-52.17.13-75.76.27,0-7.51,2.63-14.82,3.56-21.88C31.92,101.83,47.42,98.31,54.78,97.73Z"/><path class="cls-5" d="M72.52,129.6c2.18-7.31,4.37-28,.68-31.11-1.12-.93-1.61-6-1.57-6.17,8.6,0,15.33,9.58,18.2,17.27.63,1.69,3.28,6.32,1.07,6.32s-8.25-.6-9.58-.2c-1,.3.67,2.07,0,2.6-1.84,1.54-4,7.66-6.92,11.29Z"/><path class="cls-6" d="M69.39,101.45l-14.06-.95,1.4,29,15.7.09c1.54,0,4.2-17.63,5.17-27.92Z"/><path class="cls-7" d="M72.77,81.17l-16-.76C56.7,80.74,57.62,97,58,99c.66,2.71,6.18,25.43,8.09,25.42,1.7,0,6-22.34,6.59-26.31Z"/><path class="cls-8" d="M72.49,93.79c-.41,7.44-4.32,23.23-6.66,30.68.15,0,.18.75,1-.88,1.75-3.4,5.76-15.74,6.93-15.22a140.73,140.73,0,0,0,13.57,4.56C83.32,103.62,80.49,94.81,72.49,93.79Z"/><path class="cls-5" d="M59,129.6c-2.17-7.42-4.32-27.94-.64-31,1.12-.93-.33-.93-.36-1.09-4.21,0-1.8-6.91-5-4.9s-12.22,13.17-13.68,17.09c-.63,1.69-2.07,6.57.14,6.57s9.46-.85,10.79-.45c1,.29-.67,2.07,0,2.6C52,119.95,54.12,126,57,129.6Z"/><path class="cls-8" d="M58.08,92.94c.4,7.44,5.53,23.84,7.87,31.28-.15,0-.18.75-1-.88-1.75-3.4-6-15.37-7.17-14.86A140.48,140.48,0,0,1,44.18,113C48.21,103.75,49.35,93.48,58.08,92.94Z"/><path class="cls-9" d="M43.8,24.74l-.53,23.35s-6.26-3.35-5.5,5.16,5.86,7.42,5.9,6.6S46.27,73.94,58,83c5.5,5.49,8.85,5.67,12.07,2.56S84.82,71.92,86.16,69.8s2.7-10.51,2.7-10.51,1.73,3.23,3.26-2.42.34-12.21-2.92-9.12c-1.33,1.26-2.81-5.1-2.75-6.19s-5.16-17-5.16-17-3.39-4.25-4.3-4.3S42.92,24.15,43.8,24.74Z"/><g id="Capa_1-2" data-name="Capa 1"><path class="cls-10" d="M91.28,65.31c.91-4.5-.54-5.72-.06-7.42s-1.68-6.55-2.16-8.43a2.7,2.7,0,0,0-.59-1.17c0-.17,2.33-18.53,1.95-22.24s-5-3.6-5-3.6l-1.2,1.29a18.27,18.27,0,0,0,.45-2.31c.88-5.65-3-7.94-3-7.94l-.42.68a8.88,8.88,0,0,0-.42-4c-1.05-3.29-3.26-3.05-3.26-3.05s1.68,1.68-.46,4.42-15.48-.16-24.4-.69-9.92,11.67-9.84,12.08a0,0,0,0,1,0,0c-.57-.11-1.22.11-2.12.95-1.8,1.68-2,8.31-1.72,12.35s4.13,11.5,4.13,11.5l0,0a2.11,2.11,0,0,0-1.58,1.74c-.47,1.88-2.63,6.73-2.16,8.43s-1,2.92-.06,7.42-.68,6.1-.3,7.88,1.32,10,4,15.09,3.09,11.32,6.94,13.6,10.31,4.81,11.07,6,3.47,2.25,4,3.56c.07.16.13-.24.18-1.07.05.83.11,1.24.18,1.07.57-1.31,3.29-2.34,4-3.56s7.22-3.75,11.08-6,4.22-8.51,6.94-13.6,3.66-13.3,4-15.09S90.38,69.83,91.28,65.31ZM73.21,76.57c-.66,1.5-5.83,1.34-7.87.51-2.05.83-7.21,1-7.87-.51s-1.24-2.74,1.17-4.39a19.57,19.57,0,0,1,6.7-2.77A19.45,19.45,0,0,1,72,72.18C74.45,73.84,73.87,75.07,73.21,76.57ZM85.3,58.88c-.92,7.16-7.68,13.57-8.15,11.39-1.09-5-10.33-5.5-11.52-3.71-3.71-1.63-11-1.32-12.09,3.71-.47,2.18-7.23-4.23-8.16-11.39-.22-1.75-1.38-8.77-1.71-10.71.3.2.63.24.7-.5.14-1.39.08-6.16,1.16-10.35A16.32,16.32,0,0,1,49.72,30a75.21,75.21,0,0,0,13.11,1.37c5.14.14,12-.22,16.06-1.92h0s2.43.09,3.76,3.29S87.1,47.68,87.1,47.68,85.56,56.84,85.3,58.88Z"/></g></g></g></g></svg>