<svg xmlns="http://www.w3.org/2000/svg" xmlns:xlink="http://www.w3.org/1999/xlink" viewBox="0 0 127.84 133.84"><defs><style>.cls-1{fill:none;}.cls-2{fill:#da962b;}.cls-3{clip-path:url(#clip-path);}.cls-4{fill:#00938f;}.cls-5{fill:#f0d6ac;}.cls-6{fill:#7e6244;}</style><clipPath id="clip-path"><rect class="cls-1" width="127.84" height="127.84" rx="22.39" ry="22.39"/></clipPath></defs><title>资源 1</title><g id="图层_2" data-name="图层 2"><g id="Capa_1" data-name="Capa 1"><rect class="cls-2" width="127.84" height="127.84" rx="22.39" ry="22.39"/><g class="cls-3"><path class="cls-4" d="M80.36,91.07l37.78,35.07-5.95,6.8s-92.16,1-93.55.88c-2.38-.24-6.43-4.38-6.43-4.38L54.86,90.56Z"/><path class="cls-5" d="M77.9,95.36c.56-.41-10.52,23-10.52,23L54.45,95.8S70.45,100.84,77.9,95.36Z"/><path class="cls-5" d="M43.5,34.62,38.58,56.36S32.71,51.63,34,61.77s7.2,11.12,7.2,10.14S44.81,88.6,57.9,98.74C64.11,105,67.71,105,71,101s15-17.34,16.36-20,2.29-12.76,2.29-12.76,3.6,3.92,4.91-2.94-1-12.76-2.94-12.76S89.3,47.71,89.3,46.4s-5.89-17-5.89-17S72,26.44,71,26.44,42.52,34,43.5,34.62Z"/><g id="Capa_1-2" data-name="Capa 1"><path class="cls-6" d="M91.12,65.87c-.25.06-.65.33-1.2,1.85C89,70.25,82,85.42,80,85.78a.09.09,0,0,1-.11,0,41.42,41.42,0,0,0-8.39-6.55A23,23,0,0,0,65.46,77h-.12a23.72,23.72,0,0,0-5.52,2.16,40.3,40.3,0,0,0-8.38,6.55.09.09,0,0,1-.11,0c-1.94-.36-9-15.52-9.9-18.05-.55-1.52-.94-1.79-1.2-1.85a.39.39,0,0,0-.38.08l-.12.1,0,.16C39.93,67,44,85.76,48,90.1c.83.89,1.84,2,2.94,3.22,5.47,6.07,10.15,11.11,12,11.37l2.43.33H66l2.41-.33c1.86-.25,6.53-5.3,12-11.37,1.09-1.21,2.11-2.35,2.94-3.22,4-4.34,8.1-23.08,8.29-23.88l0-.16-.12-.1A.42.42,0,0,0,91.12,65.87ZM76.25,90.47c-.42.44-1.21,1.36-2.14,2.43-1.92,2.2-5.41,6.19-6.3,6.77a30.12,30.12,0,0,1-.23-5.5,3.18,3.18,0,0,0,2.06-.33,1,1,0,0,0,.41-.74,2.29,2.29,0,0,0-.29-1.69,1.86,1.86,0,0,0-1.29-.53,26.88,26.88,0,0,0-2.71,0,25.44,25.44,0,0,0-2.86,0,1.77,1.77,0,0,0-1.29.53,2.22,2.22,0,0,0-.29,1.69,1.07,1.07,0,0,0,.41.74,3.29,3.29,0,0,0,2.06.33,29.9,29.9,0,0,1-.23,5.5c-.88-.57-4.38-4.56-6.3-6.77-.94-1.07-1.74-2-2.14-2.43A2.36,2.36,0,0,1,55,87.3l.15-.29a20.65,20.65,0,0,1,3.75-2.5c.63-.36,1.17-.69,1.46-.89.71-.47,3.57-.86,4.86-1h.68c1.17.11,4.33.51,5.07,1,.29.2.83.51,1.46.89,1.23.72,3.54,2.06,3.75,2.5,0,.08.09.18.16.29A2.37,2.37,0,0,1,76.25,90.47Z"/><path class="cls-6" d="M39.77,63.18h.57s0-.36,0-.84c0-2.38.18-9.25,2.77-12.32,2.83-3.37,5.72-8,5.4-10.25-.14-.92-.28-1.91-.37-2.7a63,63,0,0,0,9.69.74,53.81,53.81,0,0,0,11.9-1.26,42.78,42.78,0,0,0,9-3.25c-.37,1.3-.86,4.13,1.37,5,2.48,1,8.05,11.55,8.58,13.88s1.21,10,1.21,10.13L90,64.11l.4-1.76c.2-.87,4.83-21.52,4.69-26.42-.17-6.2-2.17-11.64-3.77-12.17a.59.59,0,0,0-.32,0,2.11,2.11,0,0,0-.08-.8C89.84,19.08,79.54,12.69,75,10.37c-13.22-6.76-22.29-1.25-25.7.83a41.75,41.75,0,0,0-4.5,3.4c-2.43,2-4.7,3.9-6.07,3.6-2.07-.47-1.35-4.82-1.34-4.86l-.54-.14c-.09.23-2.1,5.53-1.84,8.69a13.91,13.91,0,0,0,4.35,8.81l.4.42c-.65.78-3.72,4.61-3.6,7.06s1.12,12.11,2.4,15.87a32.3,32.3,0,0,1,1.23,8.24A5.84,5.84,0,0,0,39.77,63.18Z"/></g></g></g></g></svg>