<svg xmlns="http://www.w3.org/2000/svg" xmlns:xlink="http://www.w3.org/1999/xlink" viewBox="0 0 127.84 129.2"><defs><style>.cls-1,.cls-2{fill:none;}.cls-2{clip-rule:evenodd;}.cls-3{fill:#9fb5bb;}.cls-4{clip-path:url(#clip-path);}.cls-5{fill:#7a551f;}.cls-11,.cls-12,.cls-13,.cls-5,.cls-6,.cls-8,.cls-9{fill-rule:evenodd;}.cls-6{fill:#4b4b4d;}.cls-7{clip-path:url(#clip-path-2);}.cls-8{fill:#e9c284;}.cls-9{fill:#3a4057;}.cls-10,.cls-12{fill:#010002;}.cls-11{fill:#f0d6ac;}.cls-13{fill:#838587;}</style><clipPath id="clip-path"><rect class="cls-1" width="127.84" height="127.84" rx="22.39" ry="22.39"/></clipPath><clipPath id="clip-path-2"><path class="cls-2" d="M57.29,93.94a85,85,0,0,1,20.21.23c22.11,1.7,23.49,23.07,25.91,34.49l-71.51.46C31.9,115.05,39,95.51,57.29,93.94Z"/></clipPath></defs><title>资源 21</title><g id="图层_2" data-name="图层 2"><g id="Capa_1" data-name="Capa 1"><rect class="cls-3" width="127.84" height="127.84" rx="22.39" ry="22.39"/><g class="cls-4"><path class="cls-5" d="M39.36,24.32,92.6,42.62c9.41,12.85,11,25.14,6.24,47.07-1.43,6.55,7.18,14,2.55,22.56l-4,1.9L94,118.68l-58.23,1a7.85,7.85,0,0,1-1.6-1.66c-9.87-15.71,8.94-11.11-5.15-42.74C22.78,61.17,28.73,32.72,39.36,24.32Z"/><path class="cls-6" d="M57.29,93.94a85,85,0,0,1,20.21.23c22.11,1.7,23.49,23.07,25.91,34.49l-71.51.46C31.9,115.05,39,95.51,57.29,93.94Z"/><g class="cls-7"><path class="cls-8" d="M33.15,120.19l9.51,3.21c1.23-7.18,5.46-14.73,5.46-27.57l-8.91,3.8-6.42,14Z"/><path class="cls-8" d="M100.77,117.81,91.27,121C90,113.84,85.8,106.29,85.8,93.45l8.91,3.8,6.42,14Z"/><path class="cls-8" d="M33.52,116.46c-.34,1.68-2.4,11.68-1.53,12.73H42.56c-1-1.24.89-7.8.89-9.68C37.32,119.52,36.66,118.46,33.52,116.46Z"/><path class="cls-8" d="M100.68,115.88c.49,1.64,3.54,11.83,2.77,13l-10.53.1c.91-1.32-1.7-7.27-1.86-9.14C97.17,119.26,97.73,118.15,100.68,115.88Z"/><path class="cls-9" d="M38.79,120.95c.13-1,1.54-1.5,2.16-2.19a3.36,3.36,0,0,0,.39-2.92,5.3,5.3,0,0,0-4.93-3.7,5,5,0,0,0-5,3.2,4.26,4.26,0,0,0,.09,2.93,3,3,0,0,0,.91,1.11c.23.2.49.37.74.55a1.19,1.19,0,0,1,.38,1.45c0,.12.16.19.19.06a1.45,1.45,0,0,0-.62-1.79,5.78,5.78,0,0,1-1.16-1,3.11,3.11,0,0,1-.54-2,4.15,4.15,0,0,1,1.4-3.11,5.75,5.75,0,0,1,3.45-1.21,5,5,0,0,1,5,4.11,3.5,3.5,0,0,1-.23,1.82,2.91,2.91,0,0,1-1.13,1.12c-.55.39-1.21.82-1.3,1.54C38.57,121.06,38.77,121.07,38.79,120.95Z"/><path class="cls-10" d="M38.79,120.95h.07a1.87,1.87,0,0,1,.87-1.17,9.19,9.19,0,0,0,1.27-1,2.58,2.58,0,0,0,.56-1.75,5.22,5.22,0,0,0-.16-1.23,5.36,5.36,0,0,0-5-3.75h-.25a5,5,0,0,0-4.84,3.26,4.53,4.53,0,0,0-.22,1.39,4.12,4.12,0,0,0,.31,1.59,3.08,3.08,0,0,0,.93,1.13c.24.2.49.37.74.55a.94.94,0,0,1,.43.82,2.45,2.45,0,0,1-.08.56v0a.18.18,0,0,0,.18.18.15.15,0,0,0,.15-.12,2.81,2.81,0,0,0,.09-.64,1.45,1.45,0,0,0-.73-1.23,5.64,5.64,0,0,1-1.15-1,3,3,0,0,1-.53-1.87v-.05a4.08,4.08,0,0,1,1.37-3.06,5.71,5.71,0,0,1,3.4-1.19h.11a5,5,0,0,1,4.87,4.05,3.17,3.17,0,0,1,0,.47,3.6,3.6,0,0,1-.26,1.31,2.88,2.88,0,0,1-1.11,1.09c-.54.4-1.22.83-1.33,1.59v0l.06.12.11,0a.17.17,0,0,0,.17-.15h-.14l0,0,0,0h0c.09-.68.72-1.1,1.27-1.49a3,3,0,0,0,1.16-1.16,3.69,3.69,0,0,0,.27-1.37,3.37,3.37,0,0,0,0-.49,5.11,5.11,0,0,0-5-4.17h-.11a5.83,5.83,0,0,0-3.49,1.22,4.23,4.23,0,0,0-1.42,3.17v.06a3.13,3.13,0,0,0,.56,2,5.88,5.88,0,0,0,1.17,1,1.3,1.3,0,0,1,.67,1.12,2.69,2.69,0,0,1-.08.6h0v0h0a2.59,2.59,0,0,0,.08-.59,1.08,1.08,0,0,0-.49-.93c-.25-.18-.5-.35-.73-.55a3,3,0,0,1-.89-1.08,4,4,0,0,1-.3-1.53,4.35,4.35,0,0,1,.22-1.35,4.87,4.87,0,0,1,4.7-3.16h.24a5.22,5.22,0,0,1,4.86,3.65,5.05,5.05,0,0,1,.15,1.2,2.45,2.45,0,0,1-.52,1.66,9.23,9.23,0,0,1-1.25,1,2,2,0,0,0-.92,1.26Z"/><path class="cls-9" d="M39.06,120a2.2,2.2,0,0,0-.57,1.33c-.07.47-.17.81-.69.94a3,3,0,0,1-.71,0c-.49,0-3.5,0-3.45-.76a.1.1,0,0,0-.2,0c-.07.95,2.62.93,3.16,1s1.26.14,1.66-.19c.65-.51.34-1.54.92-2.15C39.28,120.08,39.15,119.93,39.06,120Z"/><path class="cls-10" d="M39.06,120,39,120a2.28,2.28,0,0,0-.59,1.37,1.47,1.47,0,0,1-.17.57.69.69,0,0,1-.47.31,1.6,1.6,0,0,1-.37,0H37.1a18.51,18.51,0,0,1-1.9-.1,5.09,5.09,0,0,1-1.06-.21,1.07,1.07,0,0,1-.32-.17.24.24,0,0,1-.1-.19h0l-.05-.12-.11,0a.16.16,0,0,0-.17.15v0a.69.69,0,0,0,.46.59,8.35,8.35,0,0,0,2.77.4c.21,0,.48,0,.76,0a1.58,1.58,0,0,0,1-.24,1.63,1.63,0,0,0,.51-1.08,2,2,0,0,1,.42-1.08l0-.12a.17.17,0,0,0-.17-.18L39,120l.05,0,.05,0h0v0a2.14,2.14,0,0,0-.46,1.15,1.51,1.51,0,0,1-.46,1,1.45,1.45,0,0,1-.87.21c-.27,0-.54,0-.75,0a15.82,15.82,0,0,1-1.77-.12,3.35,3.35,0,0,1-.94-.26c-.25-.12-.38-.27-.38-.46v0l0,0,0,0h0v0a.38.38,0,0,0,.15.29,3.77,3.77,0,0,0,1.76.45c.71.07,1.4.07,1.61.07h.33a1.75,1.75,0,0,0,.4,0,.85.85,0,0,0,.55-.37,1.63,1.63,0,0,0,.19-.63,2.12,2.12,0,0,1,.55-1.29Z"/><path class="cls-9" d="M38.14,122.37a.5.5,0,0,1,0,.51c-.28.53-.59-.41-.62-.57a.1.1,0,0,0-.2,0,2,2,0,0,1-.11.49c-.25.76-.64-.43-.65-.44s-.16-.12-.19,0a1.38,1.38,0,0,1-.29.61c-.41.46-.54-.51-.56-.61s-.18-.09-.19,0c-.05.43-.26.56-.62.41s-.26-.49-.22-.74-.17-.13-.2,0-.29.83-.51.36a1.89,1.89,0,0,1-.13-.65c0-.13-.21-.09-.19,0s.1,1,.49,1.08.49-.53.54-.82h-.2c-.14,1,1,1.45,1.24.36h-.2c0,.36.12.84.56.87s.6-.56.67-.85h-.19c.08.25.25.89.62.85s.48-.61.53-.93h-.2c.07.27.28,1.08.74.86a.68.68,0,0,0,.27-.92C38.26,122.17,38.08,122.26,38.14,122.37Z"/><path class="cls-10" d="M38.14,122.37l-.06,0a.39.39,0,0,1,.05.2.51.51,0,0,1-.07.24c-.06.11-.1.13-.12.12l-.1-.07a2,2,0,0,1-.27-.6.16.16,0,0,0-.16-.13.17.17,0,0,0-.17.15h0a1.87,1.87,0,0,1-.11.47h0A.54.54,0,0,1,37,123l0,0s-.06,0-.11-.08a2.34,2.34,0,0,1-.27-.56l-.07,0,.07,0a.19.19,0,0,0-.17-.13.15.15,0,0,0-.15.12,1.34,1.34,0,0,1-.28.58c-.07.08-.12.1-.15.1s-.06,0-.1-.07a1.61,1.61,0,0,1-.18-.6.15.15,0,0,0-.15-.14.19.19,0,0,0-.18.15h0a.63.63,0,0,1-.11.32.22.22,0,0,1-.19.09.65.65,0,0,1-.22-.05l0,.06,0-.06a.47.47,0,0,1-.2-.45,1.44,1.44,0,0,1,0-.22v0l-.05-.12-.11,0a.18.18,0,0,0-.18.14,1.29,1.29,0,0,1-.11.29c-.05.11-.14.19-.16.18s-.06,0-.11-.12a1.77,1.77,0,0,1-.12-.63.15.15,0,0,0-.15-.14.18.18,0,0,0-.18.18v0h0a3.35,3.35,0,0,0,.11.64c.08.23.2.47.45.5H34a.48.48,0,0,0,.43-.35,2.9,2.9,0,0,0,.13-.53V122l0,0h-.2l-.07.06a1.14,1.14,0,0,0,0,.17.84.84,0,0,0,.75.9c.29,0,.56-.22.64-.69l0-.06-.06,0-.2,0,0,0,0,.05a1.8,1.8,0,0,0,.14.58.57.57,0,0,0,.48.35h0a.6.6,0,0,0,.5-.35,2.26,2.26,0,0,0,.21-.54v-.06l-.05,0h-.19l-.06,0v.06a2.9,2.9,0,0,0,.19.53.57.57,0,0,0,.46.37h0a.57.57,0,0,0,.46-.4,2.79,2.79,0,0,0,.13-.58l0-.06-.06,0h-.2l-.05,0v.06a3,3,0,0,0,.19.55c.1.2.24.39.47.4a.42.42,0,0,0,.19,0,.73.73,0,0,0,.39-.66.74.74,0,0,0-.09-.36.16.16,0,0,0-.15-.09.17.17,0,0,0-.17.16l0,.08.06,0,.06,0h0l0,0a.61.61,0,0,1,.08.3.59.59,0,0,1-.31.53l-.12,0c-.13,0-.25-.13-.34-.32a2.44,2.44,0,0,1-.18-.52l-.07,0v.07h.19v-.07h-.07a2.47,2.47,0,0,1-.12.55.44.44,0,0,1-.34.32h0c-.13,0-.24-.12-.33-.3a3.28,3.28,0,0,1-.19-.5l-.07,0v.07h.19v-.07l-.07,0a2.2,2.2,0,0,1-.2.51c-.1.17-.23.29-.37.29h0a.43.43,0,0,1-.37-.28,1.73,1.73,0,0,1-.12-.53h-.07v.07h.19v-.07h-.07c-.08.42-.29.57-.5.57a.7.7,0,0,1-.61-.76v-.15h-.07v.07h.2v-.07H34.4a2.46,2.46,0,0,1-.12.5c-.07.16-.16.26-.3.26h0c-.15,0-.26-.18-.33-.41a2.83,2.83,0,0,1-.1-.61h0l0,0h0a1.91,1.91,0,0,0,.14.68c.06.13.13.21.24.21s.22-.13.28-.25a1.5,1.5,0,0,0,.12-.33l0,0,0,0h0a1.87,1.87,0,0,0,0,.24.6.6,0,0,0,.28.57h0a.74.74,0,0,0,.28.06.37.37,0,0,0,.3-.14.77.77,0,0,0,.14-.39h0l0,0h0a2.54,2.54,0,0,0,.09.41,1,1,0,0,0,.12.25.27.27,0,0,0,.22.13.35.35,0,0,0,.26-.14,1.47,1.47,0,0,0,.31-.64h0l0,0h0a2.75,2.75,0,0,0,.15.35,1.32,1.32,0,0,0,.15.25.3.3,0,0,0,.22.13.21.21,0,0,0,.16-.08.67.67,0,0,0,.11-.22l-.06,0,.06,0a1.87,1.87,0,0,0,.12-.51h0l0,0,0,0a2.36,2.36,0,0,0,.16.42,1.08,1.08,0,0,0,.14.24.29.29,0,0,0,.21.12c.1,0,.18-.07.25-.2a.67.67,0,0,0,.08-.31.51.51,0,0,0-.07-.27Z"/><path class="cls-9" d="M37.63,118.88a1.23,1.23,0,0,0,2-.7c.28-.89-.93-1.87-1.66-2.11s-.89.28-1,.79a2.87,2.87,0,0,0,.58,2.05c.08.1.23,0,.15-.13a2.76,2.76,0,0,1-.53-1.38c0-.37,0-1.06.42-1.16a1.12,1.12,0,0,1,.76.28,3.11,3.11,0,0,1,1,1,1.07,1.07,0,0,1-.36,1.29,1,1,0,0,1-1.26-.09C37.65,118.64,37.54,118.8,37.63,118.88Z"/><path class="cls-10" d="M37.63,118.88l0,.05a1.27,1.27,0,0,0,.83.32,1.41,1.41,0,0,0,1.28-1.05,1,1,0,0,0,0-.29,1.77,1.77,0,0,0-.63-1.19A3.26,3.26,0,0,0,38,116a.89.89,0,0,0-.28,0,.67.67,0,0,0-.54.28,1.3,1.3,0,0,0-.23.61,2.33,2.33,0,0,0,0,.31,3,3,0,0,0,.62,1.79l.12.06a.18.18,0,0,0,.17-.17l0-.11a2.68,2.68,0,0,1-.51-1.35,2.75,2.75,0,0,1,0-.31,1.36,1.36,0,0,1,.08-.5.43.43,0,0,1,.3-.28h.08a1.29,1.29,0,0,1,.62.28,3,3,0,0,1,.94,1,.72.72,0,0,1,.09.36,1.19,1.19,0,0,1-.44.84.71.71,0,0,1-.49.18,1.09,1.09,0,0,1-.68-.27l-.1,0a.17.17,0,0,0-.16.18l.06.13,0-.05,0-.05v-.06h0a1.24,1.24,0,0,0,.77.31.87.87,0,0,0,.58-.22,1.33,1.33,0,0,0,.49-.95.88.88,0,0,0-.11-.43,3.11,3.11,0,0,0-1-1,1.39,1.39,0,0,0-.7-.3h-.11a.56.56,0,0,0-.4.36,1.51,1.51,0,0,0-.09.55,2.59,2.59,0,0,0,0,.32,2.79,2.79,0,0,0,.54,1.42v0h0a2.84,2.84,0,0,1-.59-1.71,2,2,0,0,1,0-.3,1.16,1.16,0,0,1,.21-.54.53.53,0,0,1,.43-.23.69.69,0,0,1,.23,0,3.12,3.12,0,0,1,1.07.68,1.65,1.65,0,0,1,.58,1.09.84.84,0,0,1,0,.25,1.27,1.27,0,0,1-1.15,1,1.14,1.14,0,0,1-.74-.29Z"/><path class="cls-9" d="M34.33,118.57c1.09.75,2.31-2.52.77-2.66-1.33-.12-2.34,2.94-.66,2.74.13,0,.09-.21,0-.2-1.33.15-.33-2.19.58-2.35,1.3-.22.38,2.92-.54,2.3A.1.1,0,0,0,34.33,118.57Z"/><path class="cls-10" d="M34.33,118.57l0,.06a.66.66,0,0,0,.38.12,1.13,1.13,0,0,0,.87-.64,2.56,2.56,0,0,0,.36-1.25,1.19,1.19,0,0,0-.18-.68.8.8,0,0,0-.61-.34H35a1.41,1.41,0,0,0-1.09.69,2.45,2.45,0,0,0-.45,1.31,1,1,0,0,0,.19.63.75.75,0,0,0,.62.26h.15a.15.15,0,0,0,.14-.15.17.17,0,0,0-.17-.18h-.13a.44.44,0,0,1-.35-.13.55.55,0,0,1-.11-.36,2.13,2.13,0,0,1,.38-1.07,1.38,1.38,0,0,1,.79-.66h.12a.37.37,0,0,1,.34.18.92.92,0,0,1,.11.48,2.46,2.46,0,0,1-.27,1.06c-.16.32-.39.54-.59.53a.36.36,0,0,1-.21-.07l-.09,0a.18.18,0,0,0-.17.18l.07.13,0-.06,0-.06v0h0a.5.5,0,0,0,.29.1c.3,0,.54-.27.71-.6a2.57,2.57,0,0,0,.29-1.13,1,1,0,0,0-.13-.55.51.51,0,0,0-.46-.25H35a1.53,1.53,0,0,0-.88.72,2.27,2.27,0,0,0-.4,1.15.68.68,0,0,0,.14.45.57.57,0,0,0,.46.18h.13l0,0v0H34.3a.61.61,0,0,1-.51-.21.85.85,0,0,1-.16-.54,2.32,2.32,0,0,1,.42-1.23,1.29,1.29,0,0,1,1-.63h.07a.66.66,0,0,1,.51.28,1.06,1.06,0,0,1,.16.6,2.41,2.41,0,0,1-.34,1.18,1,1,0,0,1-.75.58.53.53,0,0,1-.3-.1Z"/><path class="cls-9" d="M36.73,119.13a.92.92,0,0,1,.44.86c0,.06-.11.22-.19.22l-.11-.17c-.13-.32-.09-.69-.22-1-.05-.12-.23,0-.18.09a3.78,3.78,0,0,1,.14.72c0,.19.1.48.31.55s.44-.29.46-.48a1.16,1.16,0,0,0-.54-1C36.73,118.89,36.62,119.06,36.73,119.13Z"/><path class="cls-10" d="M36.73,119.13l0,.06a1,1,0,0,1,.43.68V120l-.06.11,0,0h0v.07l.06,0-.11-.17-.06,0,.07,0c-.12-.29-.08-.67-.23-1a.15.15,0,0,0-.14-.1.18.18,0,0,0-.18.17l0,.07a4.13,4.13,0,0,1,.14.71c0,.19.09.5.36.6l.1,0a.41.41,0,0,0,.33-.22.84.84,0,0,0,.13-.34v-.09a1.29,1.29,0,0,0-.58-.94l-.1,0a.17.17,0,0,0-.17.18l.07.13,0-.06,0-.06v0h0a1.17,1.17,0,0,1,.52.82v.07a.74.74,0,0,1-.11.28.29.29,0,0,1-.21.15h-.05c-.15,0-.22-.31-.26-.5a3.84,3.84,0,0,0-.15-.74h0v0h0c.13.29.09.66.22,1h0l.11.17.06,0a.24.24,0,0,0,.18-.12.44.44,0,0,0,.08-.16l0-.14a1.09,1.09,0,0,0-.48-.79Z"/><path class="cls-9" d="M36,119.07a1.77,1.77,0,0,1-.09,1.1l.09,0c-.59,0-.07-.9.15-1.11s0-.24-.13-.15c-.35.33-.87,1.41,0,1.46l.09,0a2,2,0,0,0,.12-1.24C36.21,118.91,36,118.95,36,119.07Z"/><path class="cls-10" d="M36,119.07H36c0,.17,0,.35,0,.53a1,1,0,0,1-.12.53v.08l.08,0,.09,0,0-.08-.06-.06a.24.24,0,0,1-.17-.06.19.19,0,0,1,0-.13,1.53,1.53,0,0,1,.4-.8l.05-.12a.17.17,0,0,0-.17-.17l-.11,0a1.78,1.78,0,0,0-.5,1.08.48.48,0,0,0,.12.34.55.55,0,0,0,.4.16h0l.09,0,0,0a1.33,1.33,0,0,0,.17-.72c0-.19,0-.39,0-.57a.15.15,0,0,0-.15-.14.18.18,0,0,0-.18.18v0h.14l0,0h0c0,.19,0,.38,0,.56a1.19,1.19,0,0,1-.15.64l.06,0,0-.06-.09,0,0,.06v-.07a.43.43,0,0,1-.3-.12.36.36,0,0,1-.08-.25,1.66,1.66,0,0,1,.46-1h0v0a1.64,1.64,0,0,0-.45.9.33.33,0,0,0,.08.23.38.38,0,0,0,.26.11v-.07l0-.06-.09,0,0,.06.06,0a1.13,1.13,0,0,0,.14-.6c0-.19,0-.37,0-.54H36Z"/><path class="cls-9" d="M98,110.73c0-.4-.16-1.06-.59-1.22.63-.59-.33-1.43-.85-1.74s-1.83-.69-2,.35c0,.07.11.07.12,0,.12-.94,1.25-.56,1.78-.25s1.47,1.09.76,1.62c0,0,0,.1,0,.11.46.08.58.76.61,1.14s0,1-.35,1.13l-.09,0-.06,0a5.71,5.71,0,0,1-.27-.68,2.83,2.83,0,0,0-.75-1.31,2,2,0,0,0-1.06-.33,1.89,1.89,0,0,0-.07-.32,2,2,0,0,0-.74-1.11A1.72,1.72,0,0,0,93,108c-.54.14-1.26.45-1.71,0h-.09a2.68,2.68,0,0,0-.33,1.33v0a2.22,2.22,0,0,0-1,.46,1.07,1.07,0,0,0-.38.8,1.14,1.14,0,0,0,.22.64.85.85,0,0,1,.19.6c-.07.23-.17.45-.23.68a1.1,1.1,0,0,0,.13.72,1.52,1.52,0,0,0,.32.47c0,.51.43,1,.27,1.49l.07.07c.79-.28,1.14.74,1.73,1.05h.05a1.16,1.16,0,0,0,.68.94.57.57,0,0,0,.7-.24,1.17,1.17,0,0,0,.63.74c.39.14.57-.36.63-.66a1,1,0,0,0,1.11-.22,2.06,2.06,0,0,0,1.32-.16c.44-.25.41-.73.25-1.14a2.12,2.12,0,0,0,1.33-1.79,1.44,1.44,0,0,0,0-.5,2.52,2.52,0,0,1,.52.78c.19.36.34.73.52,1.09l.1.23a.93.93,0,0,1-.87.24l-.07.08a.64.64,0,0,0,.5.41,1.53,1.53,0,0,0,.61-.12l0,0c.09.34.16.68.24,1s.09.39.15.59l0,0c-.05-.05-.14,0-.08.08.33.3.05.91-.1,1.24a6.34,6.34,0,0,1-.68,1.12,8.94,8.94,0,0,1-.94,1.27,2.34,2.34,0,0,1-2.08.13c.28-1.12.57-2.61,1.72-3.16a4.87,4.87,0,0,1,1.07-.3l.56-.11.24,0h.09c.08,0,0,0,0-.05s.09.1.11,0-.49,0-.54,0a9.33,9.33,0,0,0-1.46.35,2.51,2.51,0,0,0-1.25,1.21,8.61,8.61,0,0,0-.69,2.13l0,.07a2.81,2.81,0,0,0,2.05,0c.51-.28.78-1,1.12-1.4a6,6,0,0,0,.79-1.34,2.08,2.08,0,0,0,.18-.66c0,.12.09.24.14.36a9.66,9.66,0,0,0,.51,1.08,1,1,0,0,1-.51.14l0,.09a1.27,1.27,0,0,0,.7.49h.05c.09-.1.07-.17.06-.29a7.73,7.73,0,0,0,.61.85,2.38,2.38,0,0,0,2,1.06l0,0,.13,0c.07,0,.1-.09,0-.11-1.11-.39-1.61-1.6-2.12-2.56-.15-.27-.29-.55-.43-.83h0a.86.86,0,0,0,.27-.7,1.33,1.33,0,0,0-.42-.7.06.06,0,0,0-.1.05.75.75,0,0,1-.12.64q-.35-.74-.64-1.5c1.19.28,2.59-1.27,2.38-2.41l-.08,0c-.15-.47-1.26-.22-1.56-.13-.94.27-.93,1.21-.94,2-.13-.37-.27-.78-.45-1.18.12-.42.18-.84-.24-1.12l-.09.06a1.1,1.1,0,0,1,0,.38,5.36,5.36,0,0,0-.48-.74c.68-.09.86-.87.89-1.46a5.29,5.29,0,0,0-1-2.52h-.1a6.49,6.49,0,0,0-.42,2.28,5.52,5.52,0,0,0,.2,1,1.68,1.68,0,0,0,.15.4,2.43,2.43,0,0,0-1.52-.74C98,111.65,98,111.06,98,110.73Zm-1.31-.28h0c.38.68.44,1.71,1.18,2.11a1,1,0,0,0-.53.71c-.11.44-.09,1-.6,1.19l0,0a1,1,0,0,0-.23-.3c0-.24,0-.46,0-.68s-.12-1-.45-1.21a2.91,2.91,0,0,0-1.69-2v0c-.06-.48.41-.61.82-.62l0,.06c.1.05.14,0,.15-.06h.12A1.48,1.48,0,0,1,96.66,110.45Zm-.92,2.13h0v0l.1,0c.07,0,.13-.07.06-.1a.39.39,0,0,0-.2,0c-.21-.35-.92,0-1.37.34,0-.56-.27-2.12-.91-1.4a1,1,0,0,0-.57-.37c-.27,0-.41.22-.5.44a6,6,0,0,0-.6-.27,1.88,1.88,0,0,1,1.68-.93l0,.09c0,.07.12,0,.11,0l0-.06a1.86,1.86,0,0,1,.39,0,2.75,2.75,0,0,1,1.91,1.93.5.5,0,0,0-.24,0c-.07,0,0,.13,0,.11a.4.4,0,0,1,.24,0l0,0c.37.22.43,1.09.42,1.69l0,0a.06.06,0,0,0-.06.1l.11.07c0,.16,0,.3,0,.38a1.38,1.38,0,0,1-.62,1.18,2.76,2.76,0,0,1-1.6.25.52.52,0,0,0-.29-.55.92.92,0,0,0,.13-.88c.34.13.51-.34.58-.69a1.48,1.48,0,0,1,.19-.68,2.48,2.48,0,0,1,.49-.43,1.51,1.51,0,0,1,.43-.23v0C95.64,112.68,95.75,112.65,95.74,112.58Zm-4.06-1.26h0a6.22,6.22,0,0,1,.66.28l.07,0c.09-.21.22-.48.49-.4a1.22,1.22,0,0,1,.46.37h.09c.35-.44.55,0,.64.39a2.81,2.81,0,0,1,.11.79l-.1,0a2,2,0,0,0-2.34-.7,4.64,4.64,0,0,1-.63.24c-.47.09-.23-.43-.1-.63a.54.54,0,0,1,.54-.32ZM91,109.26h0a2.5,2.5,0,0,1,.29-1.21c.56.52,1.42.08,2.06,0a1.4,1.4,0,0,1,1.39.49,1.93,1.93,0,0,1,.33.62c0,.05.06.28.09.4-.55,0-1,.19-1,.75h0l-.31-.09a1.78,1.78,0,0,0-.37,0,1.76,1.76,0,0,0-1.43-.85,3.77,3.77,0,0,0-1.07,0Zm-.79,4.33h0v-.15c0-.07-.1-.11-.11,0v.07a1.65,1.65,0,0,1-.3-.51.87.87,0,0,1,0-.71c.07-.17.1-.34.17-.52s-.06-.22-.08-.28c-.09-.22-.23-.4-.31-.62a.93.93,0,0,1,.27-1,2.6,2.6,0,0,1,2-.49,1.79,1.79,0,0,1,1.47.76,2,2,0,0,0-1.75,1,.5.5,0,0,0-.4.1c-.19.14-.59.63-.48.93l0,0a1.43,1.43,0,0,0,.41,1.22l0,.14a.8.8,0,0,0-.13.47A2.38,2.38,0,0,1,90.19,113.59Zm1.52-.27h0c0,.2.08.74.41.64s.17-.57.06-.75-.5-.61-.84-.44a.55.55,0,0,0-.24.53,1.38,1.38,0,0,1-.28-1l0,0a.33.33,0,0,0,.18,0h0c.24-.05.53.17.72.29a1.56,1.56,0,0,1,.57.55c.22.42-.05,1.35-.65,1a1.08,1.08,0,0,1-.45-.59l.05-.07v-.09l-.09-.06v0c0-.22.08-.53.34-.52s.61.47.64.74c0,.09,0,.27-.14.28s-.22-.43-.23-.54S91.71,113.25,91.72,113.32Zm-1.22,1.76h0c.08-.46-.22-.87-.29-1.32a2.79,2.79,0,0,0,.83.44,2.57,2.57,0,0,0,1,1.21c.06,0,.12-.05.06-.1-.37-.28-.89-.67-1-1.13v-.06a.67.67,0,0,1,.06-.38c.13.33.45.69.82.66s.5-.38.54-.65a1.07,1.07,0,0,0-.46-1,2.58,2.58,0,0,0-.7-.44,4.72,4.72,0,0,1,.91-.29,1.73,1.73,0,0,1,1.8.92L94,113a4.54,4.54,0,0,0-1.44,1.4,2.67,2.67,0,0,0-.34,1.66v.07C91.61,115.83,91.27,114.89,90.49,115.08Zm2.33,2h0c-.7-.36-.61-1.54-.4-2.16A4.06,4.06,0,0,1,94.17,113c.2-.13,1.1-.76,1.38-.55a1.8,1.8,0,0,0-.42.23c-.21.14-.55.37-.64.63s-.14,1.56-.69,1.07a.06.06,0,0,0-.08.08c.2.22.2.82,0,1a1,1,0,0,0-.35-.06.06.06,0,0,0,0,.11.44.44,0,0,0,.38.08A.42.42,0,0,1,94,116l0,0c-.09.18-.19.45-.31.67a.06.06,0,0,0-.09.06v.05A.51.51,0,0,1,92.82,117.06Zm3.06-.32h0a.88.88,0,0,1-1.05.18l-.09,0c0,.28-.17.81-.56.63a1.18,1.18,0,0,1-.52-.72l0-.07c.1-.18.18-.38.27-.58s.68,0,.82-.05a1.74,1.74,0,0,0,1.32-.6,2.08,2.08,0,0,0,.33-1.21,1.58,1.58,0,0,1,0,1.71,2.34,2.34,0,0,1-.51.66Zm2.85-3h0a2,2,0,0,1-1.3,1.65l0,.08c.19.44.19.88-.28,1.11a1.89,1.89,0,0,1-1.06.11,2.69,2.69,0,0,0,.46-.61,2,2,0,0,0,.2-1.54h0c.92-.3.31-1.7,1.27-1.95a.06.06,0,0,0,0-.11,1.18,1.18,0,0,1-.59-.53h.08a2.1,2.1,0,0,1,1.13,1h0c-.07,0-.11.1,0,.11l.09,0A1.39,1.39,0,0,1,98.73,113.78Zm.46,1.92h0a1,1,0,0,0,.83-.25c0,.13.09.25.13.38h0C99.75,115.95,99.42,116,99.19,115.7Zm2.3,4.17h0v.2a1.16,1.16,0,0,1-.2-.09,1,1,0,0,1-.32-.26,1.13,1.13,0,0,0,.46-.15l.15.25Zm.33-2.75h0a1.07,1.07,0,0,1,.26.44.74.74,0,0,1-.22.63h0l-.24-.49A.92.92,0,0,0,101.82,117.12Zm-.23-3.46h0c.24-.09,1.54-.4,1.54.1l.07.05c.09,1.07-1.25,2.46-2.33,2.14v0H101a11.34,11.34,0,0,1,1.35-1.83c0-.06,0-.14-.08-.08a11.62,11.62,0,0,0-1.37,1.86v0C100.87,115.08,100.7,114,101.59,113.66Zm-1.5-.22h0a.75.75,0,0,1,.13.77c-.05-.12-.11-.24-.17-.35A1.1,1.1,0,0,0,100.09,113.44Zm-.63-2.91h0c.1.11.07.32.06.45s0,.47-.07.7a6.25,6.25,0,0,0-.09,1,1.47,1.47,0,0,1-.27-.68,4.84,4.84,0,0,1-.16-1,6.1,6.1,0,0,1,.39-1.83,7.09,7.09,0,0,1,.87,1.76,2,2,0,0,1-.36,1.76c-.08.07-.34.24-.36.1a2.32,2.32,0,0,1,0-.32c0-.29.05-.57.09-.85s.19-.91,0-1.16C99.49,110.39,99.41,110.47,99.46,110.53Zm.47,3.33h0l0,.09c0,.06.06.09.1,0,.06.13.12.26.17.39l0,.12c0,.06.07.09.1,0,.18.45.34.91.49,1.33v.07h0l0,.09h0l.16.43a34.68,34.68,0,0,0,1.55,3.22,4.3,4.3,0,0,0,1.65,2c-.93.07-1.67-.76-2.16-1.45a8.19,8.19,0,0,1-.47-.75l.09-.07c.06,0,0-.13-.08-.08l-.07.05a10.06,10.06,0,0,1-.7-1.61c-.19-.55-.28-1.14-.42-1.7a5.51,5.51,0,0,0-.23-.72l0,0c0-.06,0-.14-.08-.08h0c-.06-.15-.13-.3-.2-.46a11.23,11.23,0,0,0-.57-1.14,1.57,1.57,0,0,0-.5-.58,2.06,2.06,0,0,0-.93-1A3,3,0,0,1,99.93,113.85Z"/><path class="cls-10" d="M98,110.73H98a2.55,2.55,0,0,0-.15-.72.91.91,0,0,0-.49-.56l0,.06,0,.05a.66.66,0,0,0,.23-.5,1.25,1.25,0,0,0-.4-.8,3.34,3.34,0,0,0-.69-.56,2.55,2.55,0,0,0-1.19-.36.92.92,0,0,0-.57.17.86.86,0,0,0-.3.6v0l0,.09.08,0a.14.14,0,0,0,.13-.12.59.59,0,0,1,.21-.42.66.66,0,0,1,.4-.11,2.39,2.39,0,0,1,1.07.34,3,3,0,0,1,.62.48,1,1,0,0,1,.35.65.45.45,0,0,1-.22.37l-.06.11a.11.11,0,0,0,.1.12.59.59,0,0,1,.42.42,2.44,2.44,0,0,1,.14.66c0,.06,0,.14,0,.22a1.77,1.77,0,0,1-.07.51.48.48,0,0,1-.25.33l0,.07,0-.07-.1,0h0l-.09,0,0,.07.06,0a5.55,5.55,0,0,1-.26-.67,2.91,2.91,0,0,0-.77-1.34,2.06,2.06,0,0,0-1.1-.35v.07h.07a1.69,1.69,0,0,0-.08-.33A2.11,2.11,0,0,0,94.5,108a1.4,1.4,0,0,0-.82-.24,2.84,2.84,0,0,0-.68.1,4.41,4.41,0,0,1-1,.22.77.77,0,0,1-.6-.25l0,0h-.17l0,0a2.92,2.92,0,0,0-.35,1.25v.12h0l0,0,.06,0v-.07a2.25,2.25,0,0,0-1.08.48,1.13,1.13,0,0,0-.4.85v0a1.22,1.22,0,0,0,.23.66,1.05,1.05,0,0,1,.19.47v.07c-.07.22-.17.44-.23.68a.7.7,0,0,0,0,.19,1.47,1.47,0,0,0,.16.58,1.57,1.57,0,0,0,.34.49l0,0H90c0,.45.31.85.31,1.24a.79.79,0,0,1,0,.23v0l.1.1,0,0h0a.69.69,0,0,1,.24,0,1,1,0,0,1,.72.43,3.22,3.22,0,0,0,.71.67h.09v-.07h-.07a1.23,1.23,0,0,0,.72,1,.58.58,0,0,0,.23.05.73.73,0,0,0,.54-.32l-.05,0-.07,0a1.25,1.25,0,0,0,.67.79l.16,0a.48.48,0,0,0,.4-.28,1.58,1.58,0,0,0,.16-.47h-.07l0,.06a.93.93,0,0,0,.4.09,1.23,1.23,0,0,0,.78-.33l0-.05v.07a3.15,3.15,0,0,0,.48,0,1.82,1.82,0,0,0,.89-.21.74.74,0,0,0,.39-.69,1.49,1.49,0,0,0-.11-.54l-.06,0,0,.07a2.19,2.19,0,0,0,1.38-1.85,1.57,1.57,0,0,0,0-.17,1.5,1.5,0,0,0,0-.35h-.07l0,.06a2.43,2.43,0,0,1,.5.75c.19.35.34.72.52,1.09l.1.23.06,0,0,0a.79.79,0,0,1-.59.24l-.22,0h0l-.09.12,0,0,0,0a.71.71,0,0,0,.55.45h.07a1.74,1.74,0,0,0,.57-.13h0l0,0,0-.06-.07,0c.09.33.16.67.24,1s.09.39.15.59l.07,0,.05,0,0,0h0l-.09,0a.13.13,0,0,0-.13.13l0,.09a.45.45,0,0,1,.13.35,2.19,2.19,0,0,1-.25.82,6.13,6.13,0,0,1-.67,1.1,9.1,9.1,0,0,1-.93,1.26,1.39,1.39,0,0,1-.95.29,3.62,3.62,0,0,1-1.07-.18l0,.07.07,0c.27-1.12.57-2.59,1.68-3.11a5.15,5.15,0,0,1,1.06-.3l.56-.11.24,0h.14l0,0,0-.05,0-.05h0l0,0,0,0h0l0,0,0,0,0,0h0v0l0,0h0l-.13,0v0a.13.13,0,0,0,.13.12.13.13,0,0,0,.12-.09v0a.13.13,0,0,0-.09-.12l-.13,0a2.77,2.77,0,0,0-.41.06,9.55,9.55,0,0,0-1.47.36,2.59,2.59,0,0,0-1.29,1.24,8.64,8.64,0,0,0-.7,2.15v0l.05.1v0h0a3.78,3.78,0,0,0,1.17.21,2,2,0,0,0,.94-.21c.54-.3.81-1,1.15-1.42a6.18,6.18,0,0,0,.8-1.36,2.19,2.19,0,0,0,.19-.68h-.07l-.07,0,.14.36a10,10,0,0,0,.51,1.09l.06,0,0-.06a1,1,0,0,1-.48.13h0l-.07.12,0,0,0,0a1.38,1.38,0,0,0,.74.52h0l.07,0h0a.3.3,0,0,0,.09-.21v-.13h-.07l-.06,0a7.8,7.8,0,0,0,.61.85,2.6,2.6,0,0,0,1.88,1.1h.24l0,0,.09,0h0a.13.13,0,0,0,.12-.13.13.13,0,0,0-.09-.12c-1.07-.37-1.57-1.56-2.08-2.53-.14-.28-.29-.55-.43-.83l-.06,0,0,.06h0a.91.91,0,0,0,.3-.71v0a1.38,1.38,0,0,0-.44-.75l-.09,0a.13.13,0,0,0-.13.13v0a.68.68,0,0,1-.11.58l.06,0,.06,0c-.23-.49-.44-1-.63-1.5l-.07,0,0,.07a1.37,1.37,0,0,0,.31,0,2.15,2.15,0,0,0,1.49-.75,2.37,2.37,0,0,0,.69-1.53,1.41,1.41,0,0,0,0-.24v0l-.11-.05,0,.06.07,0a.42.42,0,0,0-.27-.26,1.27,1.27,0,0,0-.43-.06,3.88,3.88,0,0,0-.95.15,1.21,1.21,0,0,0-.87.86,4.52,4.52,0,0,0-.12,1.25h.07l.07,0c-.13-.37-.27-.78-.45-1.19l-.06,0,.07,0a2,2,0,0,0,.09-.53.76.76,0,0,0-.36-.67l0,0-.13.09,0,0v0a1.13,1.13,0,0,1,0,.2v.16H100l.06,0a5.37,5.37,0,0,0-.49-.75l-.05,0V113a1,1,0,0,0,.75-.58,2.49,2.49,0,0,0,.2-.94v-.09a5.61,5.61,0,0,0-1-2.47l0,0-.16,0h0v0a8.39,8.39,0,0,0-.43,2,2.65,2.65,0,0,0,0,.28,5.76,5.76,0,0,0,.2,1,1.69,1.69,0,0,0,.16.42l.06,0,0,0a2.5,2.5,0,0,0-1.56-.76v.07l0,.05a1.34,1.34,0,0,0,.32-1c0-.08,0-.15,0-.21H97.9c0,.06,0,.13,0,.2a1.22,1.22,0,0,1-.27.9l-.13.11h.17a2.36,2.36,0,0,1,1.47.72l.4.4-.29-.48a1.63,1.63,0,0,1-.15-.38,5.82,5.82,0,0,1-.2-1c0-.09,0-.17,0-.26a8.41,8.41,0,0,1,.43-2l-.06,0v.07h.11V109l-.06,0a5.54,5.54,0,0,1,1,2.41v.08a2.36,2.36,0,0,1-.19.89.8.8,0,0,1-.63.5l-.12,0,.08.1a5.06,5.06,0,0,1,.48.73l.1.18,0-.21a1,1,0,0,0,0-.18,1.24,1.24,0,0,0,0-.23H100l0,.06.09-.06,0-.06,0,.06a.61.61,0,0,1,.3.56,1.9,1.9,0,0,1-.08.49v0c.17.4.31.81.44,1.18l.13.38v-.41a4.44,4.44,0,0,1,.12-1.21,1.07,1.07,0,0,1,.77-.77,3.79,3.79,0,0,1,.91-.14,1.11,1.11,0,0,1,.38.05.29.29,0,0,1,.19.18v0l.1,0,0-.06h-.07a1.57,1.57,0,0,1,0,.22,2.22,2.22,0,0,1-.65,1.44,2,2,0,0,1-1.39.7,1.26,1.26,0,0,1-.27,0l-.13,0,0,.12c.19.51.41,1,.64,1.51l.05.11.07-.1a.87.87,0,0,0,.16-.48,1,1,0,0,0,0-.22h0v0h0v0h0c.17.2.4.43.41.66v0a.78.78,0,0,1-.25.6l0,.05,0-.06h0l-.06,0,0,.06.43.83c.51,1,1,2.19,2.16,2.6h0v0h0v0h0l-.12,0h0l-.07.06,0,.05v-.07H104a2.47,2.47,0,0,1-1.77-1.05,7.83,7.83,0,0,1-.6-.84l-.17-.27,0,.32V120l0,.11,0,0,0-.07h-.05l0,.07,0-.06a1.23,1.23,0,0,1-.66-.47l-.06,0,.06,0,0-.08-.06,0v.07a1.13,1.13,0,0,0,.55-.15l.06,0,0-.06a9.42,9.42,0,0,1-.5-1.07l-.13-.35-.12-.32,0,.34a2,2,0,0,1-.18.63,6,6,0,0,1-.78,1.33c-.35.46-.62,1.13-1.1,1.38a1.83,1.83,0,0,1-.87.19,3.63,3.63,0,0,1-1.13-.2l0,.07.06,0,0-.07-.06,0,.07,0a8.65,8.65,0,0,1,.68-2.12,2.48,2.48,0,0,1,1.21-1.18,9.76,9.76,0,0,1,1.45-.35,2.29,2.29,0,0,1,.38-.05h.09v0h0v0h0l-.13,0v0l0,.07,0,0h0l0-.05,0,.05h0l0-.05,0,.05,0-.06h-.07l0,.06,0-.06h0l0-.05,0,.05h.07l0-.05,0,.05v-.07l0,0,0,.05v-.07h0v0h-.13l-.25,0-.57.11a5.16,5.16,0,0,0-1.09.31c-1.19.57-1.48,2.09-1.75,3.21l0,.06.06,0a3.75,3.75,0,0,0,1.11.18,1.51,1.51,0,0,0,1-.33,8.71,8.71,0,0,0,.95-1.28,6.45,6.45,0,0,0,.69-1.13,2.3,2.3,0,0,0,.26-.87.59.59,0,0,0-.18-.45h0l0-.05,0,0,0,0,.19.2-.08-.27c-.05-.19-.1-.38-.15-.58s-.15-.68-.24-1l0-.09-.11.08,0,.06,0-.07a1.71,1.71,0,0,1-.52.13h-.06a.57.57,0,0,1-.44-.37l-.06,0,.06,0,.06-.08-.05,0v.07l.24,0a1,1,0,0,0,.69-.28l0,0,0,0-.11-.24c-.17-.36-.33-.73-.52-1.09a2.51,2.51,0,0,0-.54-.8l-.16-.12,0,.2a1.4,1.4,0,0,1,0,.32,1.41,1.41,0,0,1,0,.16,2.06,2.06,0,0,1-1.27,1.73l-.08,0,0,.08a1.36,1.36,0,0,1,.1.48.61.61,0,0,1-.32.57,1.69,1.69,0,0,1-.83.19,3,3,0,0,1-.46,0h0l0,0a1.1,1.1,0,0,1-.69.29.78.78,0,0,1-.34-.08l-.08,0,0,.09a1.49,1.49,0,0,1-.15.42c-.08.13-.17.21-.28.21l-.11,0a1.12,1.12,0,0,1-.59-.7l0-.12-.08.1a.58.58,0,0,1-.43.26.44.44,0,0,1-.18,0,1.1,1.1,0,0,1-.64-.89v-.06h-.11v.07l0-.06a3,3,0,0,1-.68-.64,1.17,1.17,0,0,0-.82-.47.81.81,0,0,0-.29.05l0,.06.05,0-.07-.07,0,0,.07,0a.9.9,0,0,0,0-.27c0-.45-.28-.85-.31-1.25v0l0,0a1.49,1.49,0,0,1-.31-.45,1.34,1.34,0,0,1-.14-.52l0-.15c.06-.22.16-.44.23-.67l0-.12a1.14,1.14,0,0,0-.21-.54,1.08,1.08,0,0,1-.21-.58v0a1,1,0,0,1,.35-.75,2.21,2.21,0,0,1,1-.45l.09,0-.05-.12-.06,0h.07v-.11a2.82,2.82,0,0,1,.33-1.19l-.06,0V108h.09v-.07l-.05,0a.91.91,0,0,0,.71.29A4.62,4.62,0,0,0,93,108a2.52,2.52,0,0,1,.65-.09,1.25,1.25,0,0,1,.74.21,2,2,0,0,1,.71,1.08,1.75,1.75,0,0,1,.07.3v.06h.06a2,2,0,0,1,1,.31,2.82,2.82,0,0,1,.73,1.28,5.89,5.89,0,0,0,.27.69l0,.05.09,0,.07,0h.05a.61.61,0,0,0,.33-.41,1.89,1.89,0,0,0,.07-.55c0-.09,0-.17,0-.24a2.48,2.48,0,0,0-.15-.7.73.73,0,0,0-.52-.5v0h0v0h0a.59.59,0,0,0,.27-.49,1.18,1.18,0,0,0-.39-.75,3.27,3.27,0,0,0-.65-.5,2.56,2.56,0,0,0-1.14-.35.78.78,0,0,0-.49.14.73.73,0,0,0-.26.51h0l0,0h0v0l0,0h0a.7.7,0,0,1,.25-.5.77.77,0,0,1,.48-.14,2.42,2.42,0,0,1,1.12.34,3.12,3.12,0,0,1,.66.54,1.14,1.14,0,0,1,.36.7.53.53,0,0,1-.19.39l-.08.08.11,0a.78.78,0,0,1,.41.48,2.38,2.38,0,0,1,.14.68Zm-1.31-.28-.06,0a9.7,9.7,0,0,1,.45,1.15,1.75,1.75,0,0,0,.76,1l0-.06,0-.06a1,1,0,0,0-.57.76c-.06.23-.08.48-.15.69a.63.63,0,0,1-.41.45h0l0,0,0,.06.06,0a1.08,1.08,0,0,0-.25-.32l0,.05h.07c0-.24,0-.47,0-.68s-.11-1-.48-1.26l0,.06H96a3,3,0,0,0-1.73-2l0,.06.07,0v-.14a.38.38,0,0,1,.23-.36,1.32,1.32,0,0,1,.53-.12v-.07l-.07,0,0,.06v0h0l.11,0,.1,0,0-.09h-.07v.07h.12a1.4,1.4,0,0,1,1.21.76l.06,0,.06,0a1.55,1.55,0,0,0-1.32-.84h-.18v.09h0l0,.06.07,0,0-.06,0,0h0a1.42,1.42,0,0,0-.58.13.53.53,0,0,0-.3.48v.09h.07l-.07,0v0l0,.06.06,0a2.85,2.85,0,0,1,1.65,1.94v0h0c.29.19.39.82.42,1.15s0,.44,0,.67v0l0,0a.93.93,0,0,1,.21.28l0,.07.09-.06,0-.06,0,.07a.77.77,0,0,0,.5-.54c.07-.23.1-.49.15-.7a.87.87,0,0,1,.49-.67l.13-.06-.13-.07a1.64,1.64,0,0,1-.7-.92,9.5,9.5,0,0,0-.46-1.17Zm-.92,2.13.07,0v0l-.07,0v.07l.1,0v-.07l0,.06h.05a.13.13,0,0,0,.13-.13l-.07-.11a.46.46,0,0,0-.19,0h-.05v.07l.06,0a.37.37,0,0,0-.33-.17,2.63,2.63,0,0,0-1.14.49l0,.06h.07v-.08a3.46,3.46,0,0,0-.15-1,1.45,1.45,0,0,0-.2-.42.41.41,0,0,0-.32-.2.51.51,0,0,0-.36.21l.05,0,0,0a1.05,1.05,0,0,0-.62-.39h0a.47.47,0,0,0-.36.16,1.17,1.17,0,0,0-.2.32l.07,0,0-.06a5.52,5.52,0,0,0-.61-.27l0,.07.06,0a1.81,1.81,0,0,1,1.62-.88v-.07l-.07,0,0,.09.07,0h-.07a.12.12,0,0,0,.12.1.13.13,0,0,0,.13-.13v0h0l0-.07-.07,0v.07a1.89,1.89,0,0,1,.37,0,2.7,2.7,0,0,1,1.86,1.88l.07,0,0-.07-.15,0h-.12a.12.12,0,0,0-.1.12.13.13,0,0,0,.13.13h.1l.13,0,0-.06,0,.06,0,0,0-.06,0,.06a.93.93,0,0,1,.31.6,4.79,4.79,0,0,1,.08.92v.11h.07l0-.06,0,0-.07,0a.13.13,0,0,0-.13.13l.06.11,0-.06,0,.06.11.07,0-.06h-.07c0,.16,0,.3,0,.38a1.3,1.3,0,0,1-.59,1.13,2.05,2.05,0,0,1-1.12.25h-.44V116h.07V116a.6.6,0,0,0-.33-.53l0,.06,0,0a.82.82,0,0,0,.21-.59,1.12,1.12,0,0,0-.06-.36l-.07,0,0,.07.13,0a.45.45,0,0,0,.37-.28,1.93,1.93,0,0,0,.17-.49,1.47,1.47,0,0,1,.18-.65,2.48,2.48,0,0,1,.48-.42,1.45,1.45,0,0,1,.4-.22l0-.07-.07,0v0l.07,0h-.07a.12.12,0,0,0,.12.1.13.13,0,0,0,.13-.13v0h0l-.07,0h-.06v0h0v0h0v0l0-.07-.07,0a1.58,1.58,0,0,0-.45.24,2.55,2.55,0,0,0-.51.44,1.51,1.51,0,0,0-.21.71,1.68,1.68,0,0,1-.16.45c-.07.13-.16.21-.25.2l-.08,0-.14-.05.05.14a1,1,0,0,1,0,.31.7.7,0,0,1-.16.49l-.07.06.08,0A.46.46,0,0,1,94,116v.15h.53a2.18,2.18,0,0,0,1.19-.27,1.45,1.45,0,0,0,.65-1.24c0-.08,0-.22,0-.38v0l-.14-.09h0l0,0,.11.07V114a5,5,0,0,0-.08-.95,1,1,0,0,0-.37-.69h0l0,0h0a.5.5,0,0,0-.18,0H95.6v0h0v0h.21l.12,0,0-.12a2.84,2.84,0,0,0-2-2,1.89,1.89,0,0,0-.4,0h-.09l0,.15.07,0h-.06v0h0v0h0l0-.09v-.05h-.06a1.94,1.94,0,0,0-1.74,1l0,.07.08,0a5.82,5.82,0,0,1,.59.27l.06,0,0-.06a1,1,0,0,1,.17-.28.33.33,0,0,1,.25-.12h0c.18,0,.38.19.53.35l.05.05.05-.06a.38.38,0,0,1,.26-.16.27.27,0,0,1,.21.14,2.77,2.77,0,0,1,.32,1.3v.21l.12-.07a2.51,2.51,0,0,1,1.06-.47.22.22,0,0,1,.21.1l0,0h.08l.13,0v0h0v0h0l-.11,0-.11,0,0,.13.07,0h0Zm-4.06-1.26,0,.07c.2,0,.42.18.65.27h0l.1-.06h0v0a1.18,1.18,0,0,1,.14-.26.26.26,0,0,1,.19-.11h.07a1.17,1.17,0,0,1,.43.34l0,0h.15l0,0c.09-.12.16-.15.21-.15s.12.05.17.15a1.47,1.47,0,0,1,.14.35,2.81,2.81,0,0,1,.11.71v.06h.07l0-.07-.1,0,0,.07.06,0a1.89,1.89,0,0,0-1.65-.86,2.36,2.36,0,0,0-.77.13,4.73,4.73,0,0,1-.63.23H91a.12.12,0,0,1-.09,0l0-.07a1.06,1.06,0,0,1,.17-.44c.14-.22.27-.28.42-.29h0v0l.11,0v-.07l0,.07,0-.07v-.07l-.11,0h-.07a.63.63,0,0,0-.54.35,1.17,1.17,0,0,0-.19.51.24.24,0,0,0,.06.17.24.24,0,0,0,.19.07h.12a4.24,4.24,0,0,0,.64-.24,2.3,2.3,0,0,1,.72-.12,1.75,1.75,0,0,1,1.53.79l0,0,.15,0h0v-.12a3,3,0,0,0-.12-.75,1.74,1.74,0,0,0-.15-.39.37.37,0,0,0-.3-.22.42.42,0,0,0-.31.2l.05,0v-.07h-.09v.07l.05-.05a1.3,1.3,0,0,0-.5-.38l-.11,0a.38.38,0,0,0-.3.17,1.18,1.18,0,0,0-.16.29l.07,0,0-.06-.07,0,0,.06,0-.07a6.11,6.11,0,0,0-.67-.28h0ZM91,109.26h.07v-.1a2.54,2.54,0,0,1,.29-1.06l-.06,0,0,.05a1,1,0,0,0,.73.27,7.34,7.34,0,0,0,1.39-.29l.29,0a1.33,1.33,0,0,1,1,.49,1.89,1.89,0,0,1,.32.6s.05.27.09.4l.07,0v-.07h0a1.45,1.45,0,0,0-.71.15.61.61,0,0,0-.33.56v.11h0l.07,0,0-.06-.31-.1a2,2,0,0,0-.39,0v.07l.07,0a1.82,1.82,0,0,0-1.49-.89,3.66,3.66,0,0,0-.57,0,3.54,3.54,0,0,0-.52,0v.07h.07v0h-.14v.11H91a3.53,3.53,0,0,1,.5,0,3.9,3.9,0,0,1,.55,0,1.69,1.69,0,0,1,1.38.81l0,0h0a1.75,1.75,0,0,1,.36,0l.3.09.12,0,0-.13-.07,0h.07v-.09a.47.47,0,0,1,.26-.44,1.33,1.33,0,0,1,.64-.14h.11l0-.09c0-.12-.07-.34-.09-.4a2,2,0,0,0-.34-.65,1.47,1.47,0,0,0-1.14-.54,1.46,1.46,0,0,0-.31,0,7.63,7.63,0,0,1-1.36.29.87.87,0,0,1-.63-.23l-.07-.07,0,.09a2.69,2.69,0,0,0-.3,1.12v.11Zm-.79,4.33h.07v-.15h0v0a.13.13,0,0,0-.14-.13.12.12,0,0,0-.11.1h0v.07h.07l.05,0a1.65,1.65,0,0,1-.28-.49.75.75,0,0,1,0-.27.94.94,0,0,1,.1-.39c.08-.18.11-.36.17-.52v-.06a.73.73,0,0,0-.09-.27c-.09-.23-.23-.41-.31-.62a.62.62,0,0,1,0-.23,1,1,0,0,1,.3-.65,2.23,2.23,0,0,1,1.55-.49l.4,0a1.74,1.74,0,0,1,1.42.72l.06,0v-.07a2.07,2.07,0,0,0-1.81,1.07l.06,0v-.07h-.11a.55.55,0,0,0-.35.12,1.42,1.42,0,0,0-.53.87l0,.14.07,0-.06,0,0,0v.17a1.4,1.4,0,0,0,.44,1.14l0-.05H91l0,.14h.07l-.06,0a.9.9,0,0,0-.14.47v0H91l0-.07a2.3,2.3,0,0,1-.8-.47l0,.05h0l0,0a2.43,2.43,0,0,0,.85.5l.1,0V114a.76.76,0,0,1,.12-.4l0,0,0-.16v0l0,0a1.27,1.27,0,0,1-.38-1v-.13h-.07l.06,0,0,0,0,0v0l0-.09a1.33,1.33,0,0,1,.47-.76.43.43,0,0,1,.26-.09h.14l0-.05a1.94,1.94,0,0,1,1.69-1h.1l0-.1a1.85,1.85,0,0,0-1.53-.8l-.41,0a2.36,2.36,0,0,0-1.65.53,1.09,1.09,0,0,0-.34.76.81.81,0,0,0,.05.29c.09.23.23.42.31.62a.9.9,0,0,1,.09.22h0c-.06.18-.09.35-.16.51a1.1,1.1,0,0,0-.11.45.88.88,0,0,0,.06.31,1.77,1.77,0,0,0,.31.53l.1.12,0-.22h0v0h0v0l0,0v0h0l0,0v0h0l0,.15v0l0,0Zm1.52-.27h-.07a1.83,1.83,0,0,0,.08.41.59.59,0,0,0,.11.2.28.28,0,0,0,.21.1l.1,0a.35.35,0,0,0,.24-.37,1.06,1.06,0,0,0-.14-.49,1,1,0,0,0-.71-.52.47.47,0,0,0-.22.06.6.6,0,0,0-.28.57v0h.07l.05,0a1.25,1.25,0,0,1-.26-.87v-.07h-.07l0,.05,0,0h0a.39.39,0,0,0,.21.05h0v0h.11a1.35,1.35,0,0,1,.61.29,1.45,1.45,0,0,1,.55.53.7.7,0,0,1,.07.32.93.93,0,0,1-.11.45.34.34,0,0,1-.29.2.41.41,0,0,1-.22-.07,1,1,0,0,1-.41-.56l-.07,0,.06,0,.05-.07,0,0v-.15l-.09-.06h0v-.05a.56.56,0,0,1,.07-.28.23.23,0,0,1,.2-.12h0a.54.54,0,0,1,.37.25,1,1,0,0,1,.2.43v0l0,.12-.05,0h0l0,0a1.14,1.14,0,0,1-.1-.43.13.13,0,0,0-.13-.12l-.08,0,0,.09h.12v0h0v0h0v0h0v0h0a2.08,2.08,0,0,0,0,.32.61.61,0,0,0,.07.18.21.21,0,0,0,.17.1h0a.21.21,0,0,0,.17-.13.43.43,0,0,0,0-.18v-.05a1.11,1.11,0,0,0-.23-.5.66.66,0,0,0-.48-.3h0a.36.36,0,0,0-.32.18.68.68,0,0,0-.09.35v.14l.09.06v0l0,0,0,0v0a1.16,1.16,0,0,0,.48.63.58.58,0,0,0,.29.09.47.47,0,0,0,.41-.26,1.07,1.07,0,0,0,.13-.52.87.87,0,0,0-.08-.38,1.6,1.6,0,0,0-.6-.58,1.49,1.49,0,0,0-.69-.31h-.09l0,.07v-.07h0a.27.27,0,0,1-.14,0l0,.06,0-.05,0,0-.11-.08v.21a1.39,1.39,0,0,0,.3,1l.13.13v-.19h0a.46.46,0,0,1,.21-.45.35.35,0,0,1,.16,0c.22,0,.47.24.59.45a1,1,0,0,1,.12.42c0,.12,0,.2-.14.23H92l-.11-.05a1,1,0,0,1-.16-.53h-.07Zm-1.22,1.76h.07a1,1,0,0,0,0-.17,8.18,8.18,0,0,0-.3-1.17h-.07l0,.05a2.92,2.92,0,0,0,.85.45l0-.07-.07,0A2.61,2.61,0,0,0,92,115.47l.07,0a.13.13,0,0,0,.12-.13l-.05-.1c-.37-.27-.88-.67-1-1.09l-.07,0h.07v-.06h0V114a.61.61,0,0,1,.06-.26l-.06,0-.07,0a1.06,1.06,0,0,0,.85.71h0a.57.57,0,0,0,.43-.26,1,1,0,0,0,.18-.45v-.15a1.16,1.16,0,0,0-.5-.92,2.68,2.68,0,0,0-.72-.45l0,.07,0,.07a4.8,4.8,0,0,1,.9-.29h.23a1.63,1.63,0,0,1,1.5.9l.06,0,0-.06-.13.09a4.67,4.67,0,0,0-1.46,1.43,2.59,2.59,0,0,0-.36,1.38c0,.11,0,.21,0,.32v.08h.07l0-.06a3.49,3.49,0,0,1-.69-.65,1.19,1.19,0,0,0-.84-.46l-.22,0,0,.07h0l0,.07.19,0a1.05,1.05,0,0,1,.74.42,3.53,3.53,0,0,0,.73.68l.12.06,0-.21c0-.1,0-.2,0-.31a2.46,2.46,0,0,1,.34-1.31A4.53,4.53,0,0,1,94,113.08l.14-.09.05,0,0-.05a1.76,1.76,0,0,0-1.62-1l-.25,0a4.77,4.77,0,0,0-.92.3l-.2.06.2.07a2.49,2.49,0,0,1,.68.43,1,1,0,0,1,.45.82v.13a.87.87,0,0,1-.15.39.44.44,0,0,1-.32.2h0c-.3,0-.59-.32-.72-.62l-.06-.15-.07.14a.75.75,0,0,0-.07.32v.1h0v.07h0c.12.49.66.89,1,1.17h0v0h0v0h0v0a2.5,2.5,0,0,1-1-1.17v0h0a2.75,2.75,0,0,1-.81-.43l-.14-.12,0,.18a9.27,9.27,0,0,1,.3,1.15v.15l0,.11.11,0Zm2.33,2,0-.06a1.23,1.23,0,0,1-.52-1.15,3,3,0,0,1,.15-.92,4,4,0,0,1,1.73-1.84c.09-.05.29-.2.53-.33a1.61,1.61,0,0,1,.65-.25l.11,0,0-.05,0-.07a2,2,0,0,0-.44.23c-.21.15-.56.37-.66.66,0,.14-.08.43-.14.69a1.29,1.29,0,0,1-.12.33c0,.08-.09.11-.14.11a.28.28,0,0,1-.18-.09l-.09,0a.13.13,0,0,0-.13.13l0,.09a.73.73,0,0,1,.12.44c0,.2-.07.37-.15.41l0,.06,0-.07a1.05,1.05,0,0,0-.36-.06h0a.13.13,0,0,0-.12.13l.06.11a.59.59,0,0,0,.32.11l.13,0,0-.07,0,.06a.36.36,0,0,1,.25.33V116H94l0-.06,0,0h0v0c-.1.19-.19.45-.31.66l.06,0,0-.06-.06,0a.13.13,0,0,0-.13.12v0l0,.05.07,0-.06,0a.49.49,0,0,1-.39.26.5.5,0,0,1-.24-.07l0,.06,0,.06a.65.65,0,0,0,.3.08.63.63,0,0,0,.51-.32l0,0,0-.08h0v0h0v0h0l.06,0,0-.06c.13-.23.23-.49.31-.67l-.06,0,0,.06,0,0h0V116a.51.51,0,0,0-.34-.46h-.13a.45.45,0,0,1-.24-.08h0a.9.9,0,0,1,.31.05h.06a.59.59,0,0,0,.23-.54.85.85,0,0,0-.16-.53h0v0h0v0h0a.43.43,0,0,0,.27.13.31.31,0,0,0,.26-.19,1.92,1.92,0,0,0,.17-.57,4.7,4.7,0,0,1,.09-.47c.07-.22.39-.45.61-.59a1.77,1.77,0,0,1,.4-.22l.13,0-.1-.08a.32.32,0,0,0-.2-.06,1.75,1.75,0,0,0-.72.27c-.24.13-.46.29-.54.34a4.12,4.12,0,0,0-1.78,1.91,3.17,3.17,0,0,0-.15,1,1.36,1.36,0,0,0,.59,1.28Zm3.06-.32,0-.05a1,1,0,0,1-.62.27.68.68,0,0,1-.35-.1l0,0-.11,0h0v0a1.61,1.61,0,0,1-.11.4c-.06.13-.14.21-.23.21l-.12,0a1.11,1.11,0,0,1-.48-.68l-.07,0,.06,0,0-.08h0c.11-.19.19-.39.27-.58h0l.08,0h.18l.46,0h0a1.81,1.81,0,0,0,1.37-.63,2.17,2.17,0,0,0,.34-1.24h-.07l-.05,0a1,1,0,0,1,.22.66,2.17,2.17,0,0,1-.26,1,2.25,2.25,0,0,1-.49.64l0,0,0,.05,0,.05,0,0a2.4,2.4,0,0,0,.52-.68,2.33,2.33,0,0,0,.28-1,1.09,1.09,0,0,0-.26-.75l-.12-.13v.18a2,2,0,0,1-.32,1.16,1.66,1.66,0,0,1-1.27.57h0l-.46,0-.23,0c-.06,0-.13,0-.16.1s-.17.39-.27.57l.06,0-.06,0,0,.08,0,0v0a1.24,1.24,0,0,0,.56.77.43.43,0,0,0,.18,0,.42.42,0,0,0,.36-.29,1.83,1.83,0,0,0,.12-.44h-.07l0,.07.09,0,0-.06,0,.06a.84.84,0,0,0,.42.12,1.13,1.13,0,0,0,.71-.3Zm2.85-3h-.07a1.9,1.9,0,0,1-1.24,1.59h0l-.05.12v.06a1.21,1.21,0,0,1,.11.47.57.57,0,0,1-.36.54,1.5,1.5,0,0,1-.65.13l-.36,0v.07l0,.05a2.88,2.88,0,0,0,.47-.63,2.38,2.38,0,0,0,.3-1.09,1.42,1.42,0,0,0-.09-.51l-.07,0v.07h0a.82.82,0,0,0,.5-.43,5.15,5.15,0,0,0,.24-.92.73.73,0,0,1,.53-.6.12.12,0,0,0,.09-.12.13.13,0,0,0-.08-.12,1.1,1.1,0,0,1-.55-.5l-.06,0,0,.07h.11l0-.07,0,.06a2.05,2.05,0,0,1,1.09,1l.06,0v-.07h0a.13.13,0,0,0-.13.13.12.12,0,0,0,.1.12v-.07l0,.07.08,0,0-.07-.07,0a1.27,1.27,0,0,1,.06.4,1.32,1.32,0,0,1,0,.2h.14a1.71,1.71,0,0,0,0-.22,1.41,1.41,0,0,0-.07-.44v0l-.12,0h0v0h0v0h0l.13,0L98.7,113a2.17,2.17,0,0,0-1.16-1.06h-.09l-.16,0,.08.14a1.26,1.26,0,0,0,.62.56h0v0h0v0a.79.79,0,0,0-.51.4,4.18,4.18,0,0,0-.25.91.78.78,0,0,1-.51.64l0,.07v-.07h0l-.08,0,0,.08a1.25,1.25,0,0,1,.08.46,2.22,2.22,0,0,1-.28,1,2.6,2.6,0,0,1-.45.59l-.1.1.14,0a2.7,2.7,0,0,0,.38,0,1.61,1.61,0,0,0,.72-.15.71.71,0,0,0,.43-.67,1.37,1.37,0,0,0-.12-.53l-.07,0,.07,0,0-.08-.06,0v.07a2,2,0,0,0,1.35-1.7Zm.46,1.92v.07h.15a1.05,1.05,0,0,0,.73-.28l0-.05-.07,0c0,.12.09.25.13.37l.07,0v-.07h0a1.62,1.62,0,0,1-.47.1.42.42,0,0,1-.37-.21l-.06,0v0l-.06,0a.56.56,0,0,0,.49.26,1.71,1.71,0,0,0,.51-.11l0-.07v.07h.12l0-.08c0-.13-.08-.26-.13-.38l0-.1-.08.07a.9.9,0,0,1-.64.24H99.2l-.15,0,.08.13Zm2.3,4.17h-.07v.2h.07l0-.07-.19-.08a1,1,0,0,1-.3-.24l-.05,0v.07a1.24,1.24,0,0,0,.48-.16l0-.06-.06,0,.15.25.06,0,0-.06-.07.05,0,0v0h.07l0,.05.07-.05.05,0,0-.06-.15-.25,0-.06-.06,0a1.1,1.1,0,0,1-.43.14h-.13l.09.1a1.12,1.12,0,0,0,.34.28l.22.09.08,0v-.29h-.07l0,.05Zm.33-2.75-.05,0a1,1,0,0,1,.25.42v.09a.68.68,0,0,1-.21.47l0,.05,0-.06h0l0,.06.06,0-.24-.49-.06,0,.06,0a1,1,0,0,0,.22-.61v0h-.07l-.05,0,.05,0h-.07v0a.86.86,0,0,1-.19.53l0,0,0,0,.24.49,0,.07.08,0h0a.84.84,0,0,0,.25-.58v-.12a1.16,1.16,0,0,0-.28-.48l-.13-.15v.2Zm-.23-3.46,0,.06a3.62,3.62,0,0,1,1-.17.87.87,0,0,1,.33.05.16.16,0,0,1,.11.16v0l.1.07,0-.06h-.07v.1a2.09,2.09,0,0,1-.62,1.35,1.93,1.93,0,0,1-1.32.66,1.17,1.17,0,0,1-.31,0l0,.07.07,0v0l-.07,0V116H101l0,0a11.53,11.53,0,0,1,1.34-1.82l0-.08a.13.13,0,0,0-.13-.13l-.09,0a11.89,11.89,0,0,0-1.37,1.87h0v0l.07,0,.07,0v0l-.07,0h.07c0-.08,0-.16,0-.24v-.29a3.18,3.18,0,0,1,.1-1,1,1,0,0,1,.6-.64l0-.06,0-.07a1.09,1.09,0,0,0-.68.73,3.33,3.33,0,0,0-.11,1v.29c0,.08,0,.16,0,.23h0l0,.05.07.19.07-.22-.07,0,.06,0a11.67,11.67,0,0,1,1.36-1.84v0h0v0h0a11.37,11.37,0,0,0-1.36,1.84l.06,0v-.07h-.19l0,.11v0h0a1.24,1.24,0,0,0,.35,0,2.07,2.07,0,0,0,1.42-.71,2.22,2.22,0,0,0,.66-1.45v-.15l-.1-.07,0,.06h.07a.3.3,0,0,0-.19-.28,1,1,0,0,0-.39-.07,3.86,3.86,0,0,0-1,.18Zm-1.5-.22,0,0a.51.51,0,0,1,.15.39,1.32,1.32,0,0,1,0,.31l.07,0,.06,0-.17-.36-.06,0,.07,0a1.14,1.14,0,0,0,0-.34v-.11h-.07l0,0,0,0H100v.1a1,1,0,0,1,0,.3v.05l.17.35.09.19,0-.2a1.45,1.45,0,0,0,0-.35.64.64,0,0,0-.19-.49l-.13-.13v.19Zm-.63-2.91-.05,0a.34.34,0,0,1,.05.22c0,.06,0,.13,0,.18,0,.23,0,.46-.06.69a7.55,7.55,0,0,0-.09.9v.1h.07l0-.05a1.42,1.42,0,0,1-.25-.64,4.82,4.82,0,0,1-.16-1v-.08a6.73,6.73,0,0,1,.39-1.72l-.07,0-.06,0a7.06,7.06,0,0,1,.87,1.74,2.59,2.59,0,0,1,.05.52,1.65,1.65,0,0,1-.4,1.17l-.12.09-.12,0h0v0h0v0h0v-.13c0-.06,0-.12,0-.18,0-.28.05-.56.08-.85a5.65,5.65,0,0,0,.09-.73.72.72,0,0,0-.14-.49l-.09,0a.13.13,0,0,0-.13.13l0,.09.05,0,.05,0h0v0h0v0h0a.58.58,0,0,1,.11.39,6,6,0,0,1-.09.71c0,.28-.07.57-.08.86,0,.06,0,.12,0,.18v.14l0,.09.09,0a.41.41,0,0,0,.19-.07l.15-.11a1.79,1.79,0,0,0,.44-1.27,2.57,2.57,0,0,0-.06-.55,7.11,7.11,0,0,0-.88-1.78l-.08-.15,0,.17a6.79,6.79,0,0,0-.4,1.76V111a5.1,5.1,0,0,0,.16,1,1.5,1.5,0,0,0,.29.71l.13.12v-.27a7.79,7.79,0,0,1,.09-.88c0-.23.06-.46.07-.7,0,0,0-.12,0-.19a.47.47,0,0,0-.09-.32Zm.47,3.33-.06,0,0,.09.07,0-.07,0V114l0,.09.08,0,.11-.05-.06,0-.06,0,.17.38.06,0-.07,0,0,.12v0a.13.13,0,0,0,.13.13l.1-.05-.06,0-.07,0c.18.45.34.91.49,1.33l.07,0h-.07v.07h0l0,.09v0l.07,0,0-.07-.06,0c.05.15.11.29.16.43a33.6,33.6,0,0,0,1.55,3.23,4.37,4.37,0,0,0,1.68,2l0-.06v-.07H104c-.83,0-1.52-.76-2-1.42a7.81,7.81,0,0,1-.47-.74l-.06,0,0,.05.09-.07h0l0-.09a.13.13,0,0,0-.13-.13l-.08,0,0,.05,0-.05-.07.05,0,.06.06,0a10,10,0,0,1-.7-1.6c-.18-.55-.27-1.12-.41-1.7a5.66,5.66,0,0,0-.24-.73l-.06,0,.05,0,0,0,0-.08a.13.13,0,0,0-.13-.13l-.09,0h0l.05,0,.07,0-.2-.46a10.82,10.82,0,0,0-.58-1.14,1.6,1.6,0,0,0-.53-.61l0,.06.07,0a2.14,2.14,0,0,0-1-1.07l0,.06v.07a2.91,2.91,0,0,1,2,1.79l.06,0-.06,0,.06,0,.06,0A3,3,0,0,0,97.85,112l-.38-.06.33.19a2,2,0,0,1,.91,1v0h0a1.5,1.5,0,0,1,.48.56,10.93,10.93,0,0,1,.57,1.13l.2.46,0,.11.08-.1,0,0v0h0l0,0v0h0v0h0l0,0,0,0,0,0a5.8,5.8,0,0,1,.23.72c.14.56.23,1.15.42,1.71a10.22,10.22,0,0,0,.71,1.62l0,.07.13-.1h0v0h0v0l0,.05,0-.06-.09.07,0,0,0,.05a8.63,8.63,0,0,0,.48.75,2.91,2.91,0,0,0,2.1,1.48h.12l.25,0-.22-.11a4.22,4.22,0,0,1-1.61-2,33.72,33.72,0,0,1-1.55-3.21l-.16-.43v0h0l0-.05-.07,0h.07v-.07h0c-.15-.42-.3-.88-.49-1.34l0-.12-.07.11h0v0h0v0h0v0h0l0-.12v0l-.17-.39-.05-.1-.07.09h0v0h0v0h0l0-.09v-.06Z"/><path class="cls-9" d="M100.41,117.78c-.64,0-1.07.56-1.47,1a9.16,9.16,0,0,0-.86.89,9.52,9.52,0,0,1-.73,1.13l.08.08A3.71,3.71,0,0,0,98,120a4.3,4.3,0,0,1,.87-1c.44-.41.89-1.12,1.56-1.09C100.48,117.89,100.49,117.78,100.41,117.78Z"/><path class="cls-10" d="M100.41,117.78v-.07h0c-.66,0-1.09.6-1.48,1a9.32,9.32,0,0,0-.87.9,9.75,9.75,0,0,1-.73,1.12l0,0,.13.13,0,0,.05,0A3.77,3.77,0,0,0,98,120a4.3,4.3,0,0,1,.86-1c.44-.41.88-1.08,1.47-1.08h0l.09,0,0-.08a.13.13,0,0,0-.12-.13v.14h0v0h0v0h0c-.7,0-1.15.73-1.57,1.11a4.51,4.51,0,0,0-.89,1,3.56,3.56,0,0,1-.54.82l0,.05,0,0-.08-.08-.05,0,0,0a9.13,9.13,0,0,0,.74-1.14,9,9,0,0,1,.85-.88c.4-.41.81-.95,1.38-.95h0Z"/></g><path class="cls-11" d="M76.11,87.63l-17.92-.54c-.09.24.95,11.71,1.37,13.1.74,1.9,3.91,15.48,7.59,15.57s8.16-13.38,8.85-16.2Z"/><path class="cls-11" d="M93.15,73c.34-3.69-.34-11.83,0-15.52,1.4-1,8.1-2,9.86,2.6,2.16,6.39-2.73,11.13-4.58,12.53A10.57,10.57,0,0,1,93.15,73Z"/><path class="cls-11" d="M92.13,25.71C85.64,11.25,43.31,11.1,36.82,28.84c-3.39,16.54-3.69,34.43.44,47.4,3.84,9.54,11.55,14.89,18.55,18.7,16.32,8.89,34.4-4,38.53-21.38C96.48,57.16,97.74,41.43,92.13,25.71Z"/><path class="cls-11" d="M37.44,73.8c-.34-3.63.34-11.64,0-15.28-1.4-1-8.1-2-9.86,2.55-2.16,6.29,2.73,11,4.58,12.34A10.76,10.76,0,0,0,37.44,73.8Z"/><path class="cls-5" d="M61,49.33C54.74,58.74,47,69,35,69c.55,0,11.08-12.07,7.72-12.37-1.25-.11-3.49,3.72-7.58,5.59-8.34,3.81.54,2-1.39-6.28C28.88,35,34.11,9.44,60.18,9.44,73.89,9.44,65.62,42.32,61,49.33Z"/><path class="cls-5" d="M72,47.79c6,9.13,13.52,19.08,25.21,19.08-.53,0-10.74-11.7-7.48-12,1.21-.11,3.38,3.61,7.35,5.42,8.09,3.7-.52,2,1.34-6.08,4.7-20.3-.37-45.1-25.65-45.1C59.45,9.11,67.47,41,72,47.79Z"/><path class="cls-5" d="M63.93,77.53c3.41,1,2.48,5.35-.07,5.91-1.35.3-16,3.36-16.67,3.31-1.9-.15-1-1.64-.7-1.93.55-.47,2.06-.8,3.76-1.62C53.55,81.62,60.45,77,63.93,77.53Z"/><path class="cls-5" d="M69.07,77.41c-3.41,1-2.48,5.34.07,5.91,1.35.3,16,3.36,16.67,3.31,1.9-.15,1-1.64.7-1.93-.55-.47-2.06-.8-3.76-1.62C79.46,81.5,72.55,76.87,69.07,77.41Z"/><path class="cls-5" d="M50.52,91.82c-1.12-.42,6.68,5.15,7.77,5.79,2.88,1.68,6.66,1.9,9.22,1.94,10,.16,16.94-8.94,15.92-8.37a22,22,0,0,1-12.66,2.48c-2.43-.38-2-2.77-1.85-3.53.24-1.46,2.45-1.55,2.31-2.87-.06-.63-8.75-1-8.84.27,0,.78,2.14,1.67,2.45,2.39a2.83,2.83,0,0,1-1.26,3.79C60,95.41,53.68,93,50.52,91.82Z"/><path class="cls-12" d="M69.53,62.81C74.1,56.94,86,58.69,89.69,64.45c2.89,4.45.65,15-8.08,14.25S65.82,67.56,69.53,62.81Z"/><path class="cls-13" d="M88.73,68.13a1.11,1.11,0,0,0,1,1.2h2.2a1.22,1.22,0,0,0,0-2.39h-2.2A1.11,1.11,0,0,0,88.73,68.13Z"/><path class="cls-12" d="M62.48,62.81c-4.57-5.87-16.43-4.12-20.16,1.64-2.89,4.45-.65,15,8.08,14.25S66.18,67.56,62.48,62.81Z"/><path class="cls-13" d="M43.28,68.13a1.11,1.11,0,0,1-1,1.2h-2.2a1.22,1.22,0,0,1,0-2.39h2.2A1.11,1.11,0,0,1,43.28,68.13Z"/><path class="cls-13" d="M73.7,60a34.39,34.39,0,0,0-7.7-.62,34.41,34.41,0,0,0-7.7.62l.31,1.16A34.06,34.06,0,0,1,66,60.55a35,35,0,0,1,7.42.58Z"/><path class="cls-13" d="M69.29,63a4.32,4.32,0,0,0-6.58,0,4.06,4.06,0,0,0-.78,1.54l1.23.28a3,3,0,0,1,5.69,0l1.23-.28A4.08,4.08,0,0,0,69.29,63Z"/><path class="cls-12" d="M53.8,60.15a12.4,12.4,0,0,1,4.53.8,7.87,7.87,0,0,1,3.38,2.45,4.05,4.05,0,0,1,.8,2.52,8.28,8.28,0,0,1-.76,3.29,15,15,0,0,1-4.48,5.62,13.13,13.13,0,0,1-7,2.89c-.26,0-.52,0-.76,0a6.91,6.91,0,0,1-3.82-1.06A7.31,7.31,0,0,1,43.31,74a10.49,10.49,0,0,1-1.21-4.85,7.67,7.67,0,0,1,1-4.17,10,10,0,0,1,4.41-3.51A15.69,15.69,0,0,1,53.8,60.15Zm0-1h0c-4.56,0-9.35,2-11.48,5.27-2.79,4.3-.79,14.29,7.24,14.29.27,0,.56,0,.84,0C59.12,78,66.18,67.56,62.48,62.81,60.52,60.29,57.22,59.18,53.8,59.18Z"/><path class="cls-12" d="M78.21,60.15a15.7,15.7,0,0,1,6.25,1.32A10,10,0,0,1,88.88,65a7.69,7.69,0,0,1,1,4.17A10.53,10.53,0,0,1,88.7,74a7.3,7.3,0,0,1-2.43,2.7,6.9,6.9,0,0,1-3.82,1.06c-.25,0-.5,0-.76,0a13.14,13.14,0,0,1-7-2.89,15,15,0,0,1-4.48-5.62,8.23,8.23,0,0,1-.76-3.29,4,4,0,0,1,.8-2.52A7.87,7.87,0,0,1,73.68,61a12.41,12.41,0,0,1,4.53-.8Zm0-1h0c-3.42,0-6.72,1.12-8.68,3.63C65.82,67.56,72.88,78,81.61,78.7q.43,0,.84,0c8,0,10-10,7.24-14.29C87.56,61.16,82.77,59.18,78.21,59.18Z"/></g></g></g></svg>