<svg xmlns="http://www.w3.org/2000/svg" xmlns:xlink="http://www.w3.org/1999/xlink" viewBox="0 0 127.84 132.44"><defs><style>.cls-1,.cls-2{fill:none;}.cls-2{clip-rule:evenodd;}.cls-3{fill:#c4abb9;}.cls-4{clip-path:url(#clip-path);}.cls-5{fill:#6b882b;}.cls-10,.cls-5,.cls-6,.cls-7,.cls-8,.cls-9{fill-rule:evenodd;}.cls-6{fill:#f0d6ac;}.cls-7{fill:#654e45;}.cls-8{fill:#4a3c31;}.cls-9{fill:#7a551f;}.cls-10{fill:#dda043;}.cls-11{clip-path:url(#clip-path-2);}.cls-12,.cls-13{opacity:0.5;}.cls-13,.cls-14{fill:#384b06;}</style><clipPath id="clip-path"><rect class="cls-1" width="127.84" height="127.84" rx="22.39" ry="22.39"/></clipPath><clipPath id="clip-path-2"><path class="cls-2" d="M63.41,74.09c-.73-1.32-17.74-5.11-20.75,9.17-2.72,12.84-9.58,11.63-10.19,8.6-.43-2.14-.43-7.15,1-10.24-1.54,0-12.72-1-13,.71-.88,6.54-.23,13.12,5.85,17.3,7.65,5.26,19-.35,21.77-9.93,3.25-11.35,1.79-15.6,13.32-13.76C64.21,76.39,63.93,75,63.41,74.09Z"/></clipPath></defs><title>资源 8</title><g id="图层_2" data-name="图层 2"><g id="Capa_1" data-name="Capa 1"><rect class="cls-3" width="127.84" height="127.84" rx="22.39" ry="22.39"/><g class="cls-4"><path class="cls-5" d="M79.64,99.71l.25-7.7L52.8,92c0,.07,0,4.11.16,7.4-20,2.05-27.87,19.39-27.87,32l82-.42C104.43,120.87,102.85,102.24,79.64,99.71Z"/><path class="cls-6" d="M91.29,64.86c.31-3.4-.31-10.91,0-14.31,1.29-.9,7.47-1.87,9.09,2.39,2,5.9-2.52,10.27-4.22,11.55A9.76,9.76,0,0,1,91.29,64.86Z"/><path class="cls-6" d="M89.65,26c-6-13.19-45-13.33-51,2.86-2.53,12.19-3.24,56.9,8.63,62.84,3.2,1.16,37.23,0,39.61-1.26C96,85.78,93.2,35.9,89.65,26Z"/><path class="cls-6" d="M39.92,65.57c-.31-3.35.31-10.74,0-14.09-1.29-.88-7.47-1.84-9.09,2.36-2,5.8,2.52,10.11,4.22,11.38A9.89,9.89,0,0,0,39.92,65.57Z"/><path class="cls-7" d="M37.25,57C33.69,60.78,36,85.74,40.35,91.2c2.61,3.24,13.44,7,23.76,6.94,8-.05,17.59-3.71,20.43-4.67,8.85-3,8.65-9.95,8.65-15.9,0-3.29,1.76-25.71.67-24.93s-3-.58-3.78,1.17c-.39.88-.73,6.66-1.49,10.08C87.32,69.64,81.22,83.33,71,80.38c-6.27-1.82-1.57,0-3.94-3.63,0,0-6.68-.45-6.68.54,0,4.5-4.14,4.43-8.2,3.59-6.83-1.42-9.77-7.76-10-13.57-.1-2.79-.88-9.88-4.53-10C37.45,57.27,37.27,57,37.25,57Z"/><path class="cls-8" d="M55.74,60c-4.09-.15-8.91,2.59-11.3,10.19-2.92,9.28-8.68,6.39-9.19,3.9-.57-2.76,5.85-2.19,1.33-.77-.15,1.21,1.76,1.43,2.63.37,1.06-1.3.91-3.64-3.43-2.92-3.12.52-6.78,7.09.58,9.24,13.57,4,14.87-10.23,21.75-6.25a3.05,3.05,0,0,0,2.6.2C65.77,72.17,63.44,60.33,55.74,60Z"/><path class="cls-8" d="M73,60.52c4.2-.16,9.15,2.67,11.61,10.46,3,9.53,8.91,6.56,9.44,4,.59-2.84-6-2.25-1.37-.79.16,1.24-1.81,1.47-2.7.38-1.09-1.34-.94-3.74,3.53-3,3.2.53,7,7.28-.6,9.5C78.94,85.14,77.6,70.56,70.54,74.65a3.13,3.13,0,0,1-2.67.21C62.67,73,65.06,60.82,73,60.52Z"/><path class="cls-8" d="M84.32,31.74,82.78,16c4.64-.24,16.86,11.15,17.52,19.87.94,12.54.66,15.72-5.19,26-.59,1-4.18-.06-5.45-.06C89.27,61.3,91.59,31.06,84.32,31.74Z"/><path class="cls-8" d="M42,66.51l-3.73-3.29C32.19,52.88,22,8.48,58.09,6.25c25.33-1.56,30.35,7,29.91,26-.24,10.54-26.84,13.57-37.24-.6-2.56-3.49-10.87,14.15-9.64,26.52C41.37,60.71,42.49,64.66,42,66.51Z"/><path class="cls-9" d="M61.59,74c-.34-3.38,4.4.55,1.91,2.39-1.11.82-3.54.16-1.95-.63C62,75.5,61.64,74.45,61.59,74Z"/><path class="cls-10" d="M63.41,74.09c-.73-1.32-17.74-5.11-20.75,9.17-2.72,12.84-9.58,11.63-10.19,8.6-.43-2.14-.43-7.15,1-10.24-1.54,0-12.72-1-13,.71-.88,6.54-.23,13.12,5.85,17.3,7.65,5.26,19-.35,21.77-9.93,3.25-11.35,1.79-15.6,13.32-13.76C64.21,76.39,63.93,75,63.41,74.09Z"/><g class="cls-11"><path class="cls-9" d="M18.33,91.49h0c.43.41,2.77,1,5.71,1.09a20,20,0,0,0,9.24-1.47,9.21,9.21,0,0,0,1.61-1l.55.52a10.13,10.13,0,0,1-1.76,1.07A21,21,0,0,1,24,93.28c-3.14-.15-5.73-.81-6.27-1.33h0l-.11-.12Z"/><path class="cls-9" d="M17.62,87.89h0c.41.43,2.7,1.09,5.62,1.38a20.19,20.19,0,0,0,9.33-1,9.5,9.5,0,0,0,1.68-.89l.51.55a10.4,10.4,0,0,1-1.83,1A21.13,21.13,0,0,1,23.15,90c-3.13-.31-5.66-1.1-6.17-1.64l-.1-.13Z"/></g><path class="cls-9" d="M21.11,79.08H31.63a3.55,3.55,0,0,1,0,7.1H21.11a3.55,3.55,0,0,1,0-7.1Z"/><g class="cls-12"><path class="cls-13" d="M28.33,130.83c-1.43-20.4,23.47-30.4,25.61-30.62a.72.72,0,0,0,.55-.32c.51-.73.31-2.47.13-3.19l.86-.21s.64,2.63-.26,3.91a1.61,1.61,0,0,1-1.18.69c-1.83.18-26.18,10.19-24.82,29.68Z"/><path class="cls-13" d="M33.8,131.36l-.88-.07c1.4-17.21,18.94-27.4,22.45-29.27A3.17,3.17,0,0,0,57,99.67a3.51,3.51,0,0,0-.22-2.18.24.24,0,0,0,.09,0l.28-.84c.61.2.75,1.39.78,1.75a4.41,4.41,0,0,1-2.12,4.34C52.35,104.63,35.17,114.61,33.8,131.36Z"/><path class="cls-13" d="M41.89,130.67c-.44-12.74,5.74-17.9,9.84-21.32a29.46,29.46,0,0,0,2.21-2c6.31-6.52,5.29-10.33,5.28-10.37l.84-.26c.05.17,1.23,4.29-5.49,11.24a29.91,29.91,0,0,1-2.27,2c-4,3.31-10,8.3-9.52,20.61Z"/><path class="cls-13" d="M66.39,132.44l-.88,0c0-.13.44-13.46.44-18.08,0-4.79-.36-16.75-.37-16.87l.88,0c0,.12.37,12.09.37,16.9C66.84,119,66.4,132.3,66.39,132.44Z"/><path class="cls-13" d="M59.5,131.09,59,131a.69.69,0,0,1-.11-.33h0c-.31-1.92.25-11.18,1.32-14.07C63,109,62.86,97.45,62.86,97.34l.88,0c0,.12.19,11.87-2.68,19.58-1.3,3.5-1.34,12.62-1.3,13.75h0Z"/><path class="cls-13" d="M50.06,131.12l-.88,0c0-.52.59-12.67,5.65-17.73s6.26-16.17,6.27-16.28l.88.09c0,.46-1.18,11.48-6.53,16.82C50.63,118.79,50.07,131,50.06,131.12Z"/><g class="cls-12"><path class="cls-14" d="M103.2,130.83l-.88-.06C103.7,111.1,81.18,101.2,79.49,101a3.28,3.28,0,0,1-2.14-1.62c-.92-1.31-1.69-3.31-1.53-4l.86.21-.43-.11.43.1a8.13,8.13,0,0,0,1.59,3.52,2.28,2.28,0,0,0,1.31,1C81.56,100.36,104.64,110.24,103.2,130.83Z"/><path class="cls-14" d="M97.73,131.36C96.26,113.35,78,103.41,77.24,103c-2.53-1.35-3.87-5.74-3.77-7a.64.64,0,0,1,.41-.64l.28.84a.31.31,0,0,0,.2-.18c-.16.56,1,4.91,3.3,6.15.79.42,19.45,10.58,21,29.07Z"/><path class="cls-14" d="M89.64,130.67l-.88,0c.42-12.14-5.25-16.94-9.39-20.45A27.43,27.43,0,0,1,77,108c-6-6.51-5.54-11.42-5.52-11.62l.88.1s-.42,4.74,5.29,10.93a27.41,27.41,0,0,0,2.33,2.12C84,112.94,90.08,118.1,89.64,130.67Z"/><path class="cls-14" d="M72.3,131.21l-.53-.23v-.32h0c0-1.14,0-10.26-1.3-13.75C67.6,109.2,67.53,97.16,67.53,97h.88c0,.12.07,12,2.88,19.56,1.07,2.88,1.63,12.1,1.33,14.06h0a.73.73,0,0,1-.11.35Z"/><path class="cls-14" d="M81.47,131.12c0-.12-.57-12.33-5.39-17.14-5.35-5.35-6.55-16.75-6.6-17.23l.88-.09c0,.12,1.22,11.57,6.35,16.7s5.62,17.21,5.65,17.73Z"/></g><path class="cls-13" d="M66.66,105.25c-6.78,0-13.66-5.24-14-5.47l.54-.7c.07.06,7.39,5.6,14,5.27s12-4.93,12.07-5l.58.67c-.23.2-5.63,4.82-12.6,5.19Z"/></g></g></g></g></svg>