<svg xmlns="http://www.w3.org/2000/svg" xmlns:xlink="http://www.w3.org/1999/xlink" viewBox="0 0 127.84 128.88"><defs><style>.cls-1{fill:none;}.cls-2{fill:#7ab0c9;}.cls-3{clip-path:url(#clip-path);}.cls-4,.cls-7{fill:#304f47;}.cls-5{fill:#f0d6ac;}.cls-5,.cls-6,.cls-7{fill-rule:evenodd;}.cls-6{fill:#914d1c;}</style><clipPath id="clip-path"><rect class="cls-1" width="127.84" height="127.84" rx="22.39" ry="22.39"/></clipPath></defs><title>资源 13</title><g id="图层_2" data-name="图层 2"><g id="Capa_1" data-name="Capa 1"><rect class="cls-2" width="127.84" height="127.84" rx="22.39" ry="22.39"/><g class="cls-3"><path class="cls-4" d="M112.29,128.88s-94.65.07-95.08-1.35c-8.3-27.37,34.14-39.08,34.14-39.08l26-.42C77.78,88.24,118.32,102,112.29,128.88Z"/><path class="cls-5" d="M80.54,69.67c1.34-4.36,2.87-14.24,4.21-18.6,1.66-.89,8.63-.83,9.12,5.06.42,8.09-5.75,12.8-8,14.11A9,9,0,0,1,80.54,69.67Z"/><path class="cls-5" d="M44.86,70.92C43.52,66.56,42,56.68,40.65,52.32c-1.66-.89-8.63-.83-9.12,5.06-.42,8.09,5.75,12.8,8,14.11A9,9,0,0,0,44.86,70.92Z"/><path class="cls-5" d="M38.68,29.6l.89,6.57c-3.26,6.41,2,50,11.36,55.85,3.13,2,9.29,7.49,16.93,4.14C78.13,91.66,81.26,85,83.46,74.26c2-9.69,6.56-33.65,1.76-43.06-.21-.42-.11-1.62-.39-2Z"/><path class="cls-6" d="M54,33.33c-1.77,5.53-14.64-.88-14.64,4.59,0,1.82.59,22.41-.92,18.27-4.73-13-10.54-18,.37-33.16,6.34-8.81,7.64-14,23.1-12.6,7.05.64.2.35,5.47-.71,4.69-.94,3,3.31,9.07,2.66,5.26-.57,4.42,2.36,7.89,4.31C99.21,25,86.89,57.29,83.27,50.2c-5.83-11.42,1.37-12.25-2.52-17.93-2.59,0,.26,4.79-15.65,4.79-3.11,0-1.14-2.85-3.19,0C59.43,40.39,54,33.57,54,33.33Z"/><path class="cls-7" d="M86.13,52.18c-.73-.15-3.51-.72-5-.95a37.71,37.71,0,0,0-5.38-.43,26.8,26.8,0,0,0-5.29.48c-1.71.33-3.37.85-5.07,1.2a16.11,16.11,0,0,1-2.84.34,16.12,16.12,0,0,1-2.85-.34c-1.7-.35-3.37-.87-5.07-1.2a26.82,26.82,0,0,0-5.29-.48,37.7,37.7,0,0,0-5.38.43c-1.51.22-4.29.8-5,.95a.22.22,0,0,0-.18.22c0,.68.09,3,.1,3.29l0,0a3.4,3.4,0,0,1,.44.19,2.31,2.31,0,0,1,.9,1.94,17.41,17.41,0,0,0,.34,2.34,10.2,10.2,0,0,0,4.84,6.62,10.07,10.07,0,0,0,5.35,1.27A10,10,0,0,0,54.87,67,9.74,9.74,0,0,0,57,65.58a10.33,10.33,0,0,0,2.46-3.37,13.47,13.47,0,0,0,.93-3.5,3.9,3.9,0,0,1,1.25-2.64,1.56,1.56,0,0,1,1.86,0,3.88,3.88,0,0,1,1.24,2.64,13.48,13.48,0,0,0,.93,3.5,10.33,10.33,0,0,0,2.46,3.37A9.65,9.65,0,0,0,70.17,67a10,10,0,0,0,4.14,1.07,10.08,10.08,0,0,0,5.35-1.27,10.2,10.2,0,0,0,4.83-6.62,17.41,17.41,0,0,0,.34-2.34,2.32,2.32,0,0,1,.9-1.94,3.42,3.42,0,0,1,.44-.19l0,0c0-.29.08-2.61.1-3.29A.23.23,0,0,0,86.13,52.18ZM59,56.23h0c-.35,7.39-4.9,10.33-8.85,10.14-7.15-.34-8.43-7.26-8.25-11S59.13,52.46,59,56.23Zm16,10.14h0c-4,.19-8.49-2.74-8.85-10.14-.18-3.78,16.92-4.68,17.1-.9S82.08,66,74.93,66.37Z"/></g></g></g></svg>