<svg xmlns="http://www.w3.org/2000/svg" xmlns:xlink="http://www.w3.org/1999/xlink" viewBox="0 0 127.84 130.53"><defs><style>.cls-1{fill:none;}.cls-2{fill:#edd4d6;}.cls-3{clip-path:url(#clip-path);}.cls-4{fill:#514734;}.cls-10,.cls-4,.cls-5,.cls-6,.cls-8,.cls-9{fill-rule:evenodd;}.cls-5{fill:#cacac9;}.cls-6{fill:#e4e4e3;}.cls-7{fill:#496346;}.cls-8{fill:#705528;}.cls-9{fill:#b3863f;}.cls-10{fill:#010002;}</style><clipPath id="clip-path"><rect class="cls-1" width="127.84" height="127.84" rx="22.39" ry="22.39"/></clipPath></defs><title>资源 19</title><g id="图层_2" data-name="图层 2"><g id="Capa_1" data-name="Capa 1"><rect class="cls-2" width="127.84" height="127.84" rx="22.39" ry="22.39"/><g class="cls-3"><path class="cls-4" d="M55.3,101.34a115,115,0,0,1,18.33.19c19.55,1.6,21.3,19.06,23.5,28.49l-64.85.38C32.27,118.78,38.76,102.64,55.3,101.34Z"/><path class="cls-5" d="M68.68,104.75l-12.88-.87c.82,9-.76,17.36,2.12,26.28.17.52,12-.22,13,0,3.09.67,1.68-3.28,2.45-6.28A169.94,169.94,0,0,0,76.21,105Z"/><path class="cls-6" d="M59.93,102l1.42,8.68c-1.53.34-14.39.89-14.37.86C51.71,106,55.19,103.37,59.93,102Z"/><path class="cls-6" d="M71.08,101.94l-1.76,8.55c1.54.33,14-.78,14-.81C80.82,103.53,75.82,103.47,71.08,101.94Z"/><ellipse class="cls-7" cx="64.74" cy="115.11" rx="0.78" ry="0.83"/><ellipse class="cls-7" cx="64.74" cy="120.32" rx="0.78" ry="0.83"/><path class="cls-6" d="M71.19,109.84l-12.27.59c-7.73.45.82,5.69,2.92,9.62,4.58,8.59,8.4-1.26,11.68-6.65C74.65,111.54,72.81,110.95,71.19,109.84Z"/><path class="cls-8" d="M71.64,88.24l-13-.54c-.07.24.69,11.78,1,13.17.53,1.89,2.86,22.08,5.5,22.2,2.81.13,5.93-20,6.44-22.83Z"/><path class="cls-9" d="M69.53,41.9,43.62,48.48C41.12,53,39.76,75.62,43,80.33,45.9,84.5,48.19,92.92,53.76,97.6c7.51,6.32,22,2.9,26.88-10.75C87,69.11,87.23,74.75,89.8,49.92Z"/><path class="cls-10" d="M59.48,83.4c-9.13,1.59-9.07,16.92-5.82,13.84,2.24-2.13.43-9.47,8.81-10.47C63.43,86.66,66.28,82.21,59.48,83.4Z"/><path class="cls-10" d="M37.56,73.44l5.35-7.11C42,75,49.74,81.83,49.4,84.45c-.79,1.42-1.24,3.29-2.26,3.22C43.91,87.45,39.24,77.34,37.56,73.44Z"/><path class="cls-10" d="M59.53,92.24c.92,2.14,3.27,4.12,2.19,5.18-1.49,1.45-4.66.94-5.62.17s.1,4.94,10.19,3.29c2-.33,6.38-3.12,6.23-4.19-.07-.54-3.1,1-5.4.82-1.88-.12,1.23-4.32.85-5.32-.18-.48-2.94-1.12-4.63-1A28.28,28.28,0,0,0,59.53,92.24Z"/><path class="cls-10" d="M69.76,82.9c9.29,1.5,7.59,16.68,4.55,13.65-2.09-2.08.57-9.37-8-10.29C65.32,86.16,62.84,81.78,69.76,82.9Z"/><path class="cls-10" d="M42.79,68l-6.68,6.44C34.78,72.71,28.44,67.29,25,61.82a24.88,24.88,0,0,1-3.39-11c-6.2-42.95,86.29-56.43,86.29-.63,0,10.36-8.73,15.17-15.73,21.32-7.32,6.43-1.86,1.65-7.91,9.84-3.78,5.12-4.63-3.43-.68-8.26C87.78,68,86,48.17,76.42,47.26c-7.6-.72-31.49-2.26-32.58,8C43.32,60.08,43.83,64,42.79,68Z"/><path class="cls-9" d="M46.43,104.07c-3.62,4.61-1.92,26.34-2.55,26.31-3.44-.15-9.62.14-12.26-.1-.45,0,.19-2.58,1.1-6.72.85-3.86,3.88-20.64,13.37-19.72Z"/><path class="cls-9" d="M83.23,104.32c3.62,4.61,1.34,26.24,2,26.21,3.44-.15,9.62.14,12.26-.11.44,0,0-2.87-1.24-6.21C94.87,120.5,92.47,103.06,83,104Z"/><path class="cls-10" d="M40,74.71,25.63,41.3c-5.05,0-1.4-9.59-5.94.3-1.2,2.62,7.57,5-2,5,0,11.12,5.52-.76,3.53,11.22,0,.21,5,1.63,1.69,5.3-.43.47-7.22,1.53,0,3.84,1.59.51,5.65.94,1.68,3.25-2.12,1.24,2.7,2.35,4.29.17,1.29-1.77-2,4.61,4.19,4.45,5-.14-2.76.89,5.17.6A10.71,10.71,0,0,0,40,74.71Z"/><path class="cls-10" d="M22.27,43.63l25-26.36c-2-4.64,8.26-5.07-2.62-5.34-2.89-.07-1.63,8.94-5.42.1-10.21,4.39,2.88,4.77-8.92,7.68-.21,0,.49,5.26-4.2,3.64-.6-.21-4.26-6-3.53,1.5.16,1.66,1.36,5.56-2.33,2.83-2-1.46-1.09,3.41,1.54,4,2.14.49-5.05-.06-2.43,5.6,2.11,4.56-1.9-2.18,1.49,5A10.42,10.42,0,0,0,22.27,43.63Z"/><path class="cls-10" d="M52,18.88,85.86,32.21c3.56-3.59,7.79,5.75,4-4.43-1-2.71-8.9,1.84-2.13-5-7.9-7.82-3.34,4.46-10.46-5.38-.12-.18-4.69,2.43-4.95-2.53,0-.64,4-6.21-2.72-2.71-1.48.77-4.64,3.35-3.5-1.09.61-2.38-3.57.27-3.14,2.92.35,2.17-1.84-4.7-6.11-.15-3.44,3.66,1.31-2.58-4.07,3.25A10.66,10.66,0,0,0,52,18.88Z"/><path class="cls-10" d="M66.08,18.88,99.9,32.21c3.56-3.59,7.8,5.75,4-4.43-1-2.71-8.9,1.84-2.13-5-7.9-7.82-3.34,4.46-10.46-5.38-.12-.18-4.69,2.43-5-2.53,0-.64,4-6.21-2.72-2.71-1.48.77-4.64,3.35-3.5-1.09.62-2.38-3.57.27-3.14,2.92.35,2.17-1.84-4.7-6.11-.15-3.44,3.66,1.31-2.58-4.07,3.25A10.39,10.39,0,0,0,66.08,18.88Z"/><path class="cls-10" d="M104.41,57.45l-10-30c3.82-3.21-4.93-6.89,4.67-3.59,2.55.88-2.58,8,4.68,1.85,6.95,7-4.65,3,4.34,9.28.16.11-2.78,4.21,2,4.39.62,0,6.42-3.63,2.41,2.4-.88,1.33-3.68,4.18.76,3.11,2.38-.57-.58,3.19-3.13,2.83-2.08-.29,4.43,1.59-.39,5.45-3.88,3.11,2.63-1.2-3.53,3.67A11.79,11.79,0,0,1,104.41,57.45Z"/><path class="cls-10" d="M81,74.83l22-22.81c4.62,1.9,3.82-7.57,5.34,2.48.4,2.67-8.25,1.4.53,5-3,9.38-4.84-2.72-6.21,8.14,0,.19-5-.51-3,3.84.27.56,6.19,4-1,3.25-1.58-.16-5.41-1.33-2.4,2.11,1.61,1.84-3.09,1-4-1.46-.71-2,.64,4.67-5,2.18-4.55-2,2.28,1.78-4.89-1.43A12.11,12.11,0,0,1,81,74.83Z"/></g></g></g></svg>