<svg xmlns="http://www.w3.org/2000/svg" xmlns:xlink="http://www.w3.org/1999/xlink" viewBox="0 0 127.84 143.82"><defs><style>.cls-1{fill:none;}.cls-2{fill:#aa3453;}.cls-3{clip-path:url(#clip-path);}.cls-11,.cls-4{fill:#67462c;}.cls-10,.cls-4,.cls-5,.cls-6,.cls-7,.cls-8,.cls-9{fill-rule:evenodd;}.cls-5{fill:#432b14;}.cls-6{fill:#fff;}.cls-7{fill:#cbcbcb;}.cls-8{fill:#cca263;}.cls-9{fill:#f0d6ac;}.cls-10,.cls-12{fill:#3f2a00;}.cls-13{fill:#c1a15b;}</style><clipPath id="clip-path"><rect class="cls-1" width="127.84" height="127.84" rx="22.39" ry="22.39"/></clipPath></defs><title>资源 20</title><g id="图层_2" data-name="图层 2"><g id="Capa_1" data-name="Capa 1"><rect class="cls-2" width="127.84" height="127.84" rx="22.39" ry="22.39"/><g class="cls-3"><path class="cls-4" d="M52.87,109.56a90.71,90.71,0,0,1,20.62.23c22.55,1.65,24,22.46,26.43,33.59L27,143.82C27,130.12,34.27,111.09,52.87,109.56Z"/><path class="cls-5" d="M63.4,140l8.75-30.55c.63,2,10.08,6.76,8.73,8.24s-3.08,2.41-2.75,3c.58,1,4.24,2.1,6.39,3.91,1,.88-12.61,15.84-20.51,17.12l-.83.47Z"/><path class="cls-5" d="M63,140l-8.8-30.55c-.64,2-10.14,6.76-8.78,8.24s3.09,2.41,2.76,3c-.58,1-4.27,2.1-6.43,3.91-1,.88,12.68,15.84,20.62,17.12l.84.47Z"/><path class="cls-6" d="M66.7,113.22,52.88,111.6c.78,9.53.33,18.84,9,27.4,1.06,1,.73,1.35,1.66,1,2.81-1.21,4.35-3.81,6.35-6.52.77-1,3.11-10,4-20Z"/><path class="cls-4" d="M67.18,112.65l-8,.12c.24,2.55,3.24,13.69,6.76,3.48C66.31,115.16,67.18,113.75,67.18,112.65Z"/><path class="cls-7" d="M71.43,109.52l-7.52,3.7c1,1.24,7.08,6.89,7.1,6.86C72.13,118.11,78,109.1,71.43,109.52Z"/><path class="cls-7" d="M55.42,108.83l7.52,3.7c-1,1.24-7.08,6.89-7.1,6.86C54.72,117.42,48.87,108.4,55.42,108.83Z"/><path class="cls-8" d="M72.56,98.1l-18.28-.53c-.09.23,1,11.4,1.4,12.76,1.54,3.78,15.38,4.77,16.78-.61Z"/><path class="cls-4" d="M64,118.66l-2.31.84c-.21.32-4.38,14.44-4,15.59.56,1.54,5,5.83,5.53,5.83,1.08,0,6.61-6,6.32-6.71Z"/><path class="cls-9" d="M81.86,79.69C83.31,75.19,85,65,86.42,60.45c1.8-.92,9.35-.86,9.89,5.23.46,8.37-6.23,13.24-8.63,14.6A10.21,10.21,0,0,1,81.86,79.69Z"/><path class="cls-9" d="M43.18,81c-1.45-4.51-3.11-14.73-4.56-19.24-1.8-.92-9.35-.86-9.89,5.23-.46,8.37,6.23,13.25,8.63,14.6A10.19,10.19,0,0,0,43.18,81Z"/><path class="cls-9" d="M36.49,38.23l1,6.8c-3.54,6.63,2.17,51.72,12.31,57.79,3.39,2,8.26,7.91,16.53,4.44C77.43,102.6,82.65,95.58,85,84.44c2.14-10,7.11-34.82,1.91-44.55-.23-.44-.12-1.68-.42-2Z"/><path class="cls-10" d="M31.28,40.45c-3.73,9.33-.19,11.39,3.82,21.89,1.63,4.29,2.16-13.62,2.16-15.51,0-5.66,14,1,15.87-4.74-.08.25,5.85,7.3,8.53,3.81,2.23-2.9.09,0,3.46,0,17.25,0,14.16-5,17-5,4.21,5.88-1.33,6.25,5,18.07,2.53,4.74,6.73-7,6.67-18.61Z"/><path class="cls-11" d="M64.48,66.09A25.44,25.44,0,0,0,65,71.37c.54,1.91,3.69,6.52,10.82,6.52s10.52-3.22,11-10.7c.54-.59.92-1.39,1.84-1.39a29.78,29.78,0,0,0-.46-3.44,14.17,14.17,0,0,1-3.12-.5A25.56,25.56,0,0,0,76,60.31c-4.84,0-8.21,1.25-10.9,3.88a11.93,11.93,0,0,0-6,0c-2.69-2.64-6.06-3.88-10.9-3.88a25.56,25.56,0,0,0-9.08,1.55,14.19,14.19,0,0,1-3.12.5,30.08,30.08,0,0,0-.46,3.44c.92,0,1.3.8,1.84,1.39.46,7.47,3.84,10.7,11,10.7s10.28-4.62,10.82-6.52a25.39,25.39,0,0,0,.54-5.28A12.77,12.77,0,0,1,64.48,66.09Zm-9,8.21c-2.69,2.71-7.29,2.49-7.29,2.49-4.22.15-7.06-1.46-8.14-4.39s.08-6.74.08-6.74a13.76,13.76,0,0,1,7.52-2.35c4.53-.07,9.29,1,10.28,2.27C58.4,68.88,58.17,71.59,55.48,74.3Zm28.64-1.91c-1.07,2.93-3.91,4.54-8.13,4.39,0,0-4.61.22-7.29-2.49s-2.92-5.42-2.46-8.72c1-1.25,5.76-2.34,10.28-2.27A13.76,13.76,0,0,1,84,65.66S85.2,69.46,84.13,72.39Z"/><path class="cls-12" d="M84.28,89.1c-.4-2.83-2.8-3.44-4.73-2,1.68-.69,3.2-.08,3.53,1.3s-1.2,2.75-3.29,2.37-5.53-2.68-9.62-6.88c-3.77-3.88-7.47-.22-8,.38-.55-.6-4.25-4.26-8-.38-4.09,4.21-7.53,6.5-9.62,6.88s-3.61-1-3.29-2.37,1.84-2,3.53-1.3c-1.92-1.45-4.33-.84-4.73,2s1,8.18,9.62,9,12.42-5.28,12.42-5.28,0-.15.09-.42c.05.27.09.42.09.42S66,99,74.66,98.13,84.68,91.93,84.28,89.1Z"/><path class="cls-11" d="M86.11,33.79l4,1.82-.4,11.24L55.51,54s-18.83-7.59-18.92-7.88-4.13-7.3-4.13-7.3l2.42-4.32s2.32-.67,3.22-.87,48.12-.1,48.12-.1Z"/><path class="cls-13" d="M98.78,42.39c-2.49-8.33-11.93-9.69-11.93-9.69s-2-10.54-4.63-17-8-7.82-17.46-7.31-19.24-2.72-24,10.54a94,94,0,0,0-4.1,13.6S24.68,35.76,24.14,43.92,37.5,60.24,62.26,60.41,101.27,50.72,98.78,42.39ZM63,49C47.47,49.53,31.8,46,36.25,34.91c0,0,0,7.82,26.9,8.16C75.8,42.9,85.42,41.2,86.84,34.4,88.8,39.84,88.8,47.32,63,49Z"/></g></g></g></svg>