<svg xmlns="http://www.w3.org/2000/svg" xmlns:xlink="http://www.w3.org/1999/xlink" viewBox="0 0 127.84 132.88"><defs><style>.cls-1{fill:none;}.cls-2{fill:#ecdcdd;}.cls-3{clip-path:url(#clip-path);}.cls-4{fill:#a3373a;}.cls-10,.cls-4,.cls-5,.cls-6,.cls-7,.cls-8,.cls-9{fill-rule:evenodd;}.cls-5{fill:#773233;}.cls-6{fill:#e4e4e3;}.cls-7{fill:#c9a970;}.cls-8{fill:#fff;}.cls-9{fill:#efd8aa;}.cls-10{fill:#503c1c;}</style><clipPath id="clip-path"><rect class="cls-1" width="127.84" height="127.84" rx="22.39" ry="22.39"/></clipPath></defs><title>资源 7</title><g id="图层_2" data-name="图层 2"><g id="Capa_1" data-name="Capa 1"><rect class="cls-2" width="127.84" height="127.84" rx="22.39" ry="22.39"/><g class="cls-3"><path class="cls-4" d="M54,102.85a95.74,95.74,0,0,1,19.76.2c10.72.71,18.45,1.66,22,5.69,2.91,3.35,5.05,19,6.25,23.88-23.31.13-51.55.13-74.86.26,0-7.06,2.6-13.92,3.52-20.56C31.43,106.7,46.75,103.39,54,102.85Z"/><path class="cls-5" d="M71.56,132.79c2.16-6.87,4.32-26.35.67-29.23-1.11-.87-1.59-5.65-1.56-5.8,8.5,0,15.15,9,18,16.23.62,1.58,3.24,5.94,1.06,5.94s-8.15-.57-9.47-.19c-1,.28.67,1.94,0,2.44-1.82,1.45-3.94,7.2-6.83,10.61Z"/><path class="cls-6" d="M68.46,106.34l-13.89-.89,1.38,27.26,15.52.08c1.52,0,4.15-16.56,5.11-26.23Z"/><path class="cls-7" d="M71.8,87.29,56,86.57c-.08.32.84,15.6,1.21,17.45.66,2.55,6.1,23.89,8,23.88,1.68,0,5.9-21,6.51-24.72Z"/><path class="cls-8" d="M71.52,99.14c-.4,7-4.27,21.83-6.58,28.83.15,0,.18.71,1-.83,1.73-3.2,5.69-14.79,6.85-14.3,4.41,1.84,13.42,4.3,13.41,4.28C82.23,108.38,79.42,100.1,71.52,99.14Z"/><path class="cls-5" d="M43.9,132.54l-3.05,0c.69-4,1.33-8.63,2.51-7.66Z"/><path class="cls-5" d="M86.33,132.85l3,0c-.69-3.93-1.33-8.38-2.51-7.44Z"/><path class="cls-5" d="M58.16,132.79c-2.14-7-4.27-26.26-.64-29.12,1.11-.87-.32-.87-.36-1-4.16,0-1.78-6.49-4.94-4.6s-12.07,12.37-13.52,16.06c-.62,1.59-2,6.17.14,6.17s9.34-.8,10.66-.42c1,.28-.67,1.94,0,2.44,1.8,1.43,3.9,7.07,6.74,10.5Z"/><path class="cls-8" d="M57.28,98.35c.4,7,5.46,22.4,7.78,29.39-.15,0-.18.71-1-.83-1.73-3.19-5.93-14.45-7.09-14-4.41,1.84-13.42,4.31-13.41,4.28C47.53,108.5,48.66,98.85,57.28,98.35Z"/><path class="cls-9" d="M38.51,45.06l1,15.6A81.45,81.45,0,0,0,44.2,85.08c3.32,8.58,2.36,10.38,11.32,15.32,4.86,2.68,16-1.13,20.62-4,7.58-4.76,9-8.73,10.12-17.42a76.09,76.09,0,0,0,.54-8.6l.93-23.7-2.6-6.12L43.39,42.2Z"/><path class="cls-9" d="M87.42,61.45l2.49-5.13C89.77,54.1,98.23,55,88.34,71.4A9.65,9.65,0,0,1,87,72Z"/><path class="cls-10" d="M44.43,43.68c-4.18-1.14,3.47,6.17-.54,9.14C39,56.44,40,64.25,40.7,69.35s-3.42,5.73-3.23-2.67c.17-7.5-3.75-8.12-4.66-18-.17-1.85-.41-3.65-.73-7.4-.17-2-.09-4.29,1.83-3.65,4.77,1.57-2.17-6.91-.19-10.74,1.55-3,2.58,2.57,2.81-5.06,0-1.22-2.65-8.08,1.24-5.2.88.65,10.37,5,4.58,1.84-1.5-.81-4.67-7.48.52-2.54-.21-1.84-3-4,3.13-4,2.27,0,.65,5.55,7.26,4,4.28-1,2.63-9.54,5.21-6,1.74,2.35,4.85,5.46,6.83,8.1C67.81,16.84,61,7.22,65.7,9c2,.76-.77,1.9,3.75.3,2.85-1,.34,1.19,1.49-1.41,2.26-.28,7.52,10.12,8.52,6.21,1.46-5.73,4.74-5.83,3.32-1.2-1.06,3.47,1.34,6.9,3.79-.22,0,0,3.33,1.81,2.05,4.16-2.28,4.21,4.12,4.23,3.89,6.94,2.67,0,6.94.51,3,3.61-1.52,1.18-5.23,1.84,2.32,3.31,1.19.23-.44,2.8-3.27,2.94-1.68.09.75,10.85-1.88,14.75-2,3,4.6,8.54-.74,7-4.45-1.28,1.44,5-2.35,9-3.43,3.64.26,8.46-3.37,9.53-.32-.47-.23-4.44-.23-5.3,0-3.24.46-8.17-1.59-10.72-1.84-2.29-1.61-15.63-4-15.63A58.2,58.2,0,0,0,69,43.16c-4.17.88-7.68,2.59-9.79,1.11C58,43.48,44.47,43.69,44.43,43.68Z"/><path class="cls-10" d="M53.19,98.79c.51,3.24,6.56,6.09,11.21,6.11,10,.05,12.66-9.21,10.58-7.87a40.84,40.84,0,0,1-7.47,3,18.89,18.89,0,0,1-6,.54C57.37,100.09,53.59,98.3,53.19,98.79Z"/><path class="cls-10" d="M69.35,61.54C71,61.26,85,57.36,83.29,63.14c-.08.27-14.36.63-14.36-.72C68.93,62,68.85,61.63,69.35,61.54Z"/><path class="cls-10" d="M59.12,63.57c-.9-2.66-7.12-2.46-10.13-2-5.51.86-8.31,2.89.62,2.45C50.77,64,59.15,63.65,59.12,63.57Z"/></g></g></g></svg>