<svg xmlns="http://www.w3.org/2000/svg" xmlns:xlink="http://www.w3.org/1999/xlink" viewBox="0 0 127.84 131.97"><defs><style>.cls-1{fill:none;}.cls-2{fill:#e7e2b8;}.cls-3{clip-path:url(#clip-path);}.cls-4{fill:#fff;}.cls-4,.cls-5,.cls-6,.cls-7,.cls-8,.cls-9{fill-rule:evenodd;}.cls-5{fill:#c0a068;}.cls-6{fill:#010002;}.cls-7{fill:#cacac9;}.cls-8{fill:#efd8aa;}.cls-9{fill:#7a5b29;}</style><clipPath id="clip-path"><rect class="cls-1" width="127.84" height="127.84" rx="22.39" ry="22.39"/></clipPath></defs><title>资源 15</title><g id="图层_2" data-name="图层 2"><g id="Capa_1" data-name="Capa 1"><rect class="cls-2" width="127.84" height="127.84" rx="22.39" ry="22.39"/><g class="cls-3"><path class="cls-4" d="M59.58,97.85c6.49-.52,9.1-.35,17,.68,10.37,2.73,24.25,22,25,33-25.95.15-42.42.3-68.37.44C34,118.74,46.31,103.52,59.58,97.85Z"/><path class="cls-5" d="M72.47,87l-13.28-.51c-.06.23.7,11.2,1,12.53.51,1.69,2.79,10.34,5.31,10.55,3,.26,5.52-8.28,6.07-11.15Z"/><polygon class="cls-6" points="66.48 108.91 64.03 109.68 59.52 131.83 71.78 131.46 66.48 108.91"/><path class="cls-7" d="M48.73,131.91l-3.59-.08c.81-7.6,1.57-16.22,3-14.41Z"/><path class="cls-7" d="M85.32,131.79l4-.08c-.91-7.42-1.74-15.83-3.3-14.06Z"/><path class="cls-6" d="M69.58,105.51l-7.32.11c.22,2.5,3,13.45,6.18,3.42C68.78,108,69.58,106.59,69.58,105.51Z"/><path class="cls-7" d="M60.33,97.59l3.77,8.12c-3.1-.11-4.13,4.89-4.15,4.85C58.76,108.63,53.33,97.17,60.33,97.59Z"/><path class="cls-7" d="M72,97.59l-3.78,8.12c3.1-.11,4.13,4.89,4.15,4.85C73.53,108.63,79,97.17,72,97.59Z"/><path class="cls-8" d="M45,73.43,38.7,52.32c-2.09-3.49-9.12-3-4.08,8.15,1.3,2.88,1.77,12.32,9.2,12.85A7.87,7.87,0,0,0,45,73.43Z"/><path class="cls-8" d="M87.89,69.56l3.16-17c1.22-1.77,9.71-4.83,5.77,3.89-1.24,2.76-1.45,12.84-8.71,13Z"/><path class="cls-8" d="M91.5,26.25,45.92,23.87c-10.37.59-11,33.88-6.24,42.64C43.73,74,44,79.35,49.76,86.79,55.37,94,62.7,105.42,80.16,89.54,97,74.24,91.5,46.8,91.5,26.25Z"/><path class="cls-9" d="M39,60.94c-3.81-2.6-7.92-35.82-8.35-35.79-7.29.53,9.75-5.77,10.14-11.05C41.45,5.63,75.41,5.21,85,11.69c2.05,1.39,14.46,8.54,14.06,9.23-3.51,6,3.58,21.43-3.55,32.65-2.14,3.37-3.7,21.62-4.78-.84-.34-7,0-11.78-2.69-18.09-1.45-3.36,1.73-4.53-10.87-4.53-10.83,0-30.85-7.22-32-2.76-4,15-7.42,15.89-5.64,32.71C39.54,60.53,38.95,60.88,39,60.94Z"/></g></g></g></svg>