<svg xmlns="http://www.w3.org/2000/svg" xmlns:xlink="http://www.w3.org/1999/xlink" viewBox="0 0 127.84 131.45"><defs><style>.cls-1{fill:none;}.cls-2{fill:#f1d44c;}.cls-3{clip-path:url(#clip-path);}.cls-4{fill:#6a684c;}.cls-5{fill:#f0d6ac;}.cls-6{fill:#211915;}</style><clipPath id="clip-path"><rect class="cls-1" width="127.84" height="127.84" rx="22.39" ry="22.39"/></clipPath></defs><title>资源 6</title><g id="图层_2" data-name="图层 2"><g id="Capa_1" data-name="Capa 1"><rect class="cls-2" width="127.84" height="127.84" rx="22.39" ry="22.39"/><g class="cls-3"><path class="cls-4" d="M76.34,87l-9.9,4.47v-.2l-3.4.1-3.4-.1v.2l-8.54-6c-.58.19-35.71,14.94-35.71,33.19l-.71,12.19H59.42l7.6.59,44.25-.63v-8.35C110.69,100.44,76.92,87.24,76.34,87Z"/><path class="cls-5" d="M42.44,89.63s8.08,23.22,22.45,34.67c13-12.23,16.54-35.19,16.54-35.19S71.94,84.29,67.1,84C65.82,83.9,52.1,83.34,42.44,89.63Z"/><path class="cls-5" d="M39.54,35.63l-.66,21.29s-5.27-3.8-4.09,4.35,6.46,8.94,6.46,8.15,3.23,13.41,15,21.56c5.58,5,8.8,5,11.74,1.84s13.5-13.93,14.67-16,2.05-10.25,2.05-10.25,3.23,3.15,4.4-2.37-.88-10.25-2.64-10.25.66-4.24.66-5.29-5.67-22-5.67-22-3.33-1.83-4.21-1.83S38.66,35.11,39.54,35.63Z"/><g id="Capa_1-2" data-name="Capa 1"><path class="cls-6" d="M50.72,74.41c1,2.05,3.51,2.22,6.5.89s3.89-1.84,4.16-2.32a2.21,2.21,0,0,0-.61-3.07,3.23,3.23,0,0,0-3.83,1.5c-1.6,2.3-3.62,3.33-4.5,3.11a2.19,2.19,0,0,1-1-2.56C51.78,71.41,49.91,72.76,50.72,74.41Z"/><path class="cls-6" d="M84.63,63.8C84.37,65.33,83,72,81.56,73.27s-8.18,4.09-8.6,6-.2,4.44-1.52,5.58-4.84,1.33-5.51-.83c-.47-1.52,1.74-2.45,1.14-3S63,80.61,63,80.61h-.26s-3.33-.11-3.93.4,1.6,1.44,1.14,3c-.67,2.16-4.18,2-5.51.83s-1.09-3.71-1.52-5.58-7.16-4.69-8.6-6-2.81-7.92-3.07-9.46-1.37,0-1.37,0,.8,9.13,2.47,14.06a31.69,31.69,0,0,0,14,17.29A15.52,15.52,0,0,0,63,97.28a15.34,15.34,0,0,0,6.56-2.13,31.72,31.72,0,0,0,14-17.29C85.22,72.94,86,63.8,86,63.8S84.89,62.28,84.63,63.8Z"/><path class="cls-6" d="M72.83,74.52c-.89.22-2.9-.82-4.5-3.11a3.25,3.25,0,0,0-3.83-1.5A2.21,2.21,0,0,0,63.9,73c.27.48,1.17,1,4.17,2.32s5.51,1.17,6.5-.89c.81-1.67-1.06-3-.67-2.45A2.19,2.19,0,0,1,72.83,74.52Z"/><path class="cls-6" d="M40.66,46.71c1.57-4.16,4.08-6.86,5.46-9,2.32-3.48,15.61-2.65,20.75-2.9,7.89-.39,12.47-5.38,12.77-7.24s-1.08-13.54-8.3-14.46-19.08,1.38-19.69,0S50.26,17,54.41,17s-3.85,1.53-7.53,2.61c-4.29,1.27-10.07,10.07-9.22,9.54,2.61-1.65,7-2.47,10.45.62,0,0-4.05-1.67-5.2-1.64-2.55.07-4.69,2.65-5.58,7.67-.69,3.88-.88,14.64.82,18.2,1.17,2.42.62,9.56,1.75,5.51C39.89,59.53,39.59,49.55,40.66,46.71Z"/><path class="cls-6" d="M87.62,30.69c-3.42-5-6.87-4.07-6.87-4.07a7.57,7.57,0,0,1-1.64,3.75,31,31,0,0,1-4.34,3.83c.41.06,9,.47,10.68,11.26.76,4.95-.66,14.89-.6,14.56s2-4.37,2.6-6.49S91,35.67,87.62,30.69Z"/></g></g></g></g></svg>