<svg xmlns="http://www.w3.org/2000/svg" xmlns:xlink="http://www.w3.org/1999/xlink" viewBox="0 0 127.84 129.89"><defs><style>.cls-1{fill:none;}.cls-2{fill:#d6cec0;}.cls-3{clip-path:url(#clip-path);}.cls-4,.cls-5{fill:#010002;}.cls-4,.cls-6,.cls-7,.cls-8{fill-rule:evenodd;}.cls-6{fill:#c23c41;}.cls-7{fill:#f0d6ac;}.cls-8{fill:#a33534;}</style><clipPath id="clip-path"><rect class="cls-1" width="127.84" height="127.84" rx="22.39" ry="22.39"/></clipPath></defs><title>资源 12</title><g id="图层_2" data-name="图层 2"><g id="Capa_1" data-name="Capa 1"><rect class="cls-2" width="127.84" height="127.84" rx="22.39" ry="22.39"/><g class="cls-3"><path class="cls-4" d="M80.56,83.07,71.42,8.87c34.82.85,25,38.38,31.77,38.38.51,0-.28,2.06-4.79,2.06.63,2.5,10.84,4.88-.16,16.28-1.81,1.88,4,12.64-9.47,16.26C87.38,82.21,80.57,83.06,80.56,83.07Z"/><path class="cls-5" d="M80.56,83.07l.18,0L71.6,8.84l-.18,0v.19c8.67.21,14.54,2.7,18.58,6.31,6.06,5.41,8.05,13.36,9.15,20,.55,3.31.88,6.29,1.39,8.46a8.27,8.27,0,0,0,1,2.6,2,2,0,0,0,1.68,1v0h0v0l0-.06-.06,0,0,0,0-.06-.06,0h0a.71.71,0,0,1-.2.38c-.45.54-1.77,1.34-4.54,1.34h-.24l.06.23a3.09,3.09,0,0,0,1,1.35A25.53,25.53,0,0,1,101.72,53a5.36,5.36,0,0,1,1.4,3.55c0,2.09-1.23,4.92-5,8.85a2.54,2.54,0,0,0-.45,1.77c0,1,.16,2.36.16,3.81A10.44,10.44,0,0,1,96.27,77c-1.27,1.9-3.52,3.62-7.56,4.7-.66.18-2.72.49-4.59.75l-2.5.33-.79.1-.22,0H80.5l-.06,0,.12.14.18,0-.18,0,.12.14-.12-.14.06.18.07,0-.12-.14.06.18-.05-.16,0,.17h0l-.05-.16,0,.17,1.14-.15c1-.13,2.51-.33,3.9-.54s2.64-.4,3.18-.55c4.09-1.1,6.45-2.86,7.77-4.85A10.79,10.79,0,0,0,98.18,71c0-1.48-.16-2.82-.16-3.81a2.27,2.27,0,0,1,.34-1.51c3.83-4,5.13-6.87,5.13-9.11a6.37,6.37,0,0,0-2.36-4.7c-.6-.56-1.2-1-1.67-1.48a2.77,2.77,0,0,1-.89-1.17l-.18,0v.19h0a8.3,8.3,0,0,0,4-.79,3,3,0,0,0,.87-.67,1.06,1.06,0,0,0,.29-.62.37.37,0,0,0-.08-.24.34.34,0,0,0-.24-.11,1.41,1.41,0,0,1-1-.37A5.44,5.44,0,0,1,101,44c-1.14-4.51-1.34-13.16-4.84-20.77a23.53,23.53,0,0,0-8.28-10c-3.94-2.64-9.24-4.37-16.41-4.54h-.22l9.21,74.77.26-.23Z"/><path class="cls-4" d="M47.21,83.07l-3.89-66C28.66,15.24,31.39,47.24,24.58,47.24c-.51,0,.28,2.06,4.8,2.06-.64,2.5-10.84,4.88.16,16.28,1.81,1.88-4,12.64,9.47,16.26C40.39,82.21,47.2,83.06,47.21,83.07Z"/><path class="cls-5" d="M47.21,83.07h.19L43.5,16.93l-.15,0a9.83,9.83,0,0,0-1.22-.08c-3.41,0-5.82,1.95-7.59,4.81-2.65,4.3-3.93,10.69-5.19,16a40.74,40.74,0,0,1-2,6.74,6.6,6.6,0,0,1-1.25,2,2.09,2.09,0,0,1-1.51.69.33.33,0,0,0-.24.11.36.36,0,0,0-.08.24,1,1,0,0,0,.29.62c.56.66,2,1.47,4.83,1.47h0V49.3l-.18,0a2.78,2.78,0,0,1-.89,1.17,25.91,25.91,0,0,0-2.54,2.38,5.75,5.75,0,0,0-1.49,3.79c0,2.24,1.3,5.14,5.13,9.11a2.27,2.27,0,0,1,.34,1.51c0,1-.16,2.33-.16,3.81a10.79,10.79,0,0,0,1.6,6.14c1.32,2,3.68,3.76,7.77,4.85.71.19,2.75.49,4.63.76l2.5.34.79.1.22,0h.07v0h0v0l0-.16,0,.16h0l0-.16,0,.16,0-.18-.06.17h0l0-.18-.06.17.06-.18-.12.14.07,0,.06-.18-.12.14.33.29,0-.44h-.19l.12-.14-.06,0h0l-1.16-.15c-1-.13-2.51-.33-3.89-.54s-2.65-.41-3.14-.54c-4-1.08-6.29-2.8-7.56-4.7A10.43,10.43,0,0,1,30,71c0-1.45.16-2.78.16-3.81a2.55,2.55,0,0,0-.45-1.77c-3.8-3.93-5-6.76-5-8.85a6,6,0,0,1,2.24-4.43c.58-.55,1.18-1,1.67-1.47a3.1,3.1,0,0,0,1-1.35l.06-.23h-.24a8,8,0,0,1-3.78-.75,2.62,2.62,0,0,1-.76-.59.72.72,0,0,1-.2-.38h0l-.06,0,0,0,0,0-.06,0,0,0,0,0v.05h0l0,0v.05a2.81,2.81,0,0,0,2.26-1.37c1.07-1.49,1.82-4,2.56-7,1.1-4.48,2.14-10,4-14.31a15.81,15.81,0,0,1,3.47-5.39,7.43,7.43,0,0,1,5.27-2.12,9.5,9.5,0,0,1,1.18.08l0-.19h-.19l3.89,66h.18l.12-.14Z"/><path class="cls-6" d="M55.91,94.43A68.14,68.14,0,0,1,74,94.66c19.84,1.71,21.08,23.17,23.25,34.63l-64.16.47C33.13,115.63,39.55,96,55.91,94.43Z"/><path class="cls-7" d="M71.86,80.74,58,80c-.07.34.73,16.86,1.06,18.85,1.17,5.59,11.65,7.05,12.7-.9Z"/><path class="cls-7" d="M92.56,71.75c.35-3.75-.34-12,0-15.77,1.42-1,8.23-2.06,10,2.64,2.2,6.49-2.78,11.31-4.65,12.73A10.77,10.77,0,0,1,92.56,71.75Z"/><path class="cls-7" d="M91.22,23.62C84.62,9.09,40.33,10.23,35.33,26.71c-3.45,16.63-3.75,34.61.45,47.65C40.73,86.49,52,91.89,60.05,95.93c3.52,1.28,11.31.53,13.94-.9,9.51-4.87,17.91-15.58,19.78-23.37C95.94,55.18,96.91,39.43,91.22,23.62Z"/><path class="cls-7" d="M36,72.53c-.34-3.69.35-11.83,0-15.52-1.42-1-8.23-2-10,2.6C23.76,66,28.73,70.74,30.6,72.14A10.9,10.9,0,0,0,36,72.53Z"/><path class="cls-7" d="M34.64,117c-.35,1.7-2.44,11.86-1.55,12.94H43.83c-1-1.26.9-7.92.9-9.83C38.5,120.06,37.83,119,34.64,117Z"/><path class="cls-7" d="M95.12,116.83c.35,1.7,2.44,11.86,1.55,12.93H85.94c1-1.26-.9-7.92-.9-9.83C91.27,119.93,91.93,118.86,95.12,116.83Z"/><path class="cls-4" d="M41.74,17.35C41.42,28.95,61.32,31.83,70,30.47c10.82-1.71,10.6-11.79,7.87-9.87-.83.58-7.45.74-8.79-1.35-2.37-5.38,19.51-3.3,22.38,5.1.71,2.08,1.62-3.75-1.43-7.18C85.76,12.38,76.68,8.5,67.73,8.5,48.2,8.5,45.75,10.86,41.74,17.35Z"/><path class="cls-4" d="M54.89,88.69c-.74-.31,4.4,3.78,5.12,4.25a11.74,11.74,0,0,0,6.08,1.42c6.6.12,11.16-6.56,10.48-6.15A13.24,13.24,0,0,1,68.24,90c-1.6-.28-1.3-2-1.22-2.59.16-1.07,1.61-1.14,1.52-2.11,0-.46-5.76-.72-5.82.2,0,.57,1.41,1.22,1.61,1.75a2.18,2.18,0,0,1-.83,2.78C61.13,91.32,57,89.57,54.89,88.69Z"/><path class="cls-4" d="M41.84,52.68a37.64,37.64,0,0,1,9.47-1,43,43,0,0,1,9.87,1,3.68,3.68,0,0,1,1.71.92,2.81,2.81,0,0,1,.55.78H66a2.77,2.77,0,0,1,.59-.85,3.62,3.62,0,0,1,1.7-.92,42.77,42.77,0,0,1,9.87-1,37.66,37.66,0,0,1,9.47,1,4.15,4.15,0,0,1,1.81,1,2.24,2.24,0,0,1,.69,1.78,9.57,9.57,0,0,1-.53,2.48,19.4,19.4,0,0,1-1,2.41h0c-.56,1.13-1.06,2.11-2.51,2.33a62.24,62.24,0,0,1-8.94.62,36.41,36.41,0,0,1-7.46-.63,3.92,3.92,0,0,1-1.64-.8h0a5,5,0,0,1-1.12-1.35,8.41,8.41,0,0,1-1-2.54,7.87,7.87,0,0,1-.18-1.65h-2A7.85,7.85,0,0,1,63.59,58a8.44,8.44,0,0,1-1,2.54,5.1,5.1,0,0,1-1.12,1.35h0a3.91,3.91,0,0,1-1.64.8,36.28,36.28,0,0,1-7.46.63,62.31,62.31,0,0,1-8.94-.62c-1.45-.22-1.94-1.2-2.5-2.32h0a20.42,20.42,0,0,1-1-2.41,9.62,9.62,0,0,1-.53-2.48A2.23,2.23,0,0,1,40,53.65,4.16,4.16,0,0,1,41.84,52.68ZM87.2,54.26a36.07,36.07,0,0,0-9-1,41.11,41.11,0,0,0-9.45,1,2,2,0,0,0-.91.47,1.14,1.14,0,0,0-.32.68,6.34,6.34,0,0,0,.09,2.13,6.71,6.71,0,0,0,.81,2,3.34,3.34,0,0,0,.73.89h0a2.18,2.18,0,0,0,.93.45,34.59,34.59,0,0,0,7.08.59,60.77,60.77,0,0,0,8.69-.6c.58-.09.88-.7,1.23-1.4h0A18.48,18.48,0,0,0,88,57.29a7.9,7.9,0,0,0,.44-2,.59.59,0,0,0-.19-.47A2.5,2.5,0,0,0,87.2,54.26Zm-35.88-.89a36,36,0,0,0-9,1,2.49,2.49,0,0,0-1.06.54.59.59,0,0,0-.19.47,7.84,7.84,0,0,0,.44,2,17.63,17.63,0,0,0,.94,2.19h0c.35.7.66,1.31,1.24,1.4a61,61,0,0,0,8.68.6A34.74,34.74,0,0,0,59.45,61a2.25,2.25,0,0,0,.93-.45h0a3.27,3.27,0,0,0,.73-.89,6.76,6.76,0,0,0,.81-2A6.36,6.36,0,0,0,62,55.48a1.14,1.14,0,0,0-.32-.68,2,2,0,0,0-.91-.47A41.13,41.13,0,0,0,51.31,53.37Z"/><path class="cls-8" d="M60.59,98.84c-6.47-4.31-5.23,7.68,7.1,6.61,5.43-.47,9.29-6.2,5.49-7.08C70.65,97.78,69.29,102.75,60.59,98.84Z"/><path class="cls-8" d="M36.51,115.27c-5.26-4.92-5.94,6.22,5.49,7.11,5,.39,9.43-4.27,6.08-5.64C45.86,115.82,43.87,120.15,36.51,115.27Z"/><path class="cls-8" d="M83.85,117.13c-6.86-2.19-2.7,8.17,8,4.07,4.71-1.81,6.68-7.9,3.07-7.71C92.53,113.62,92.59,118.39,83.85,117.13Z"/><path class="cls-4" d="M97.54,54.44,95.33,38.59c.1,16.31-5.8,25.58-5,26.25,5.33,4.34,3.76,2.45,6.54-7.83C96.89,57,97.36,54.77,97.54,54.44Z"/><path class="cls-4" d="M31.4,52.6l2.21-15.85c-.1,16.31,5.8,25.58,5,26.25-5.33,4.34-3.76,2.45-6.54-7.83A26.46,26.46,0,0,0,31.4,52.6Z"/></g></g></g></svg>