<svg xmlns="http://www.w3.org/2000/svg" xmlns:xlink="http://www.w3.org/1999/xlink" viewBox="0 0 127.84 138.09"><defs><style>.cls-1,.cls-2{fill:none;}.cls-2{clip-rule:evenodd;}.cls-3{fill:#2f6564;}.cls-4{clip-path:url(#clip-path);}.cls-10,.cls-5{fill:#bf3227;}.cls-11,.cls-12,.cls-14,.cls-15,.cls-5,.cls-6,.cls-7,.cls-8{fill-rule:evenodd;}.cls-6{fill:#f0d6ac;}.cls-7{fill:#010002;}.cls-8{fill:#e3ad2d;}.cls-11,.cls-9{fill:#d5862e;}.cls-12{fill:#5d7220;}.cls-13{clip-path:url(#clip-path-2);}.cls-14{fill:#fff;}.cls-15{fill:#e5b43c;}</style><clipPath id="clip-path"><rect class="cls-1" width="127.84" height="127.84" rx="22.39" ry="22.39"/></clipPath><clipPath id="clip-path-2"><path class="cls-2" d="M69.43,129.4c-1.16,1.25-38.74,1.08-38.7-.11.48-13.08,9.94-28.65,18.1-31.66a24.88,24.88,0,0,1,7-1.52c2,.15,3.29.28,4.13.39,2.18.27-1.11,5.67,7.26,5.23,5.07-.26,2.75-5.32,5.17-5.51,4.57-.36,9.44-.28,14.33,3.06C86.7,99.27,81.28,116.65,69.43,129.4Z"/></clipPath></defs><title>资源 3</title><g id="图层_2" data-name="图层 2"><g id="Capa_1" data-name="Capa 1"><rect class="cls-3" width="127.84" height="127.84" rx="22.39" ry="22.39"/><g class="cls-4"><path class="cls-5" d="M56.6,97.14a67.57,67.57,0,0,1,17.28.21C92.78,98.91,94,118.58,96,129.08l-61.13.43C34.89,116.56,41,98.59,56.6,97.14Z"/><path class="cls-6" d="M71.8,82.79,58.6,82.05c-.06.33.7,16.06,1,18,1.11,5.32,11.1,6.72,12.11-.86Z"/><path class="cls-6" d="M91.53,74.23c.33-3.57-.33-11.45,0-15,1.35-.94,7.84-2,9.54,2.51,2.1,6.19-2.65,10.78-4.43,12.13A10.26,10.26,0,0,1,91.53,74.23Z"/><path class="cls-6" d="M34.5,55.68a66.93,66.93,0,0,0,2.92,19.59c4.71,11.28,8.63,16.06,16.34,19.82,3.36,1.18,20.15.49,22.64-.83C85.48,89.73,90.9,80,92.68,72.76a166.54,166.54,0,0,0,1.57-17.09Z"/><path class="cls-6" d="M37.6,75c-.33-3.52.33-11.27,0-14.79-1.35-.92-7.84-1.93-9.54,2.47C26,68.75,30.7,73.27,32.49,74.6A10.4,10.4,0,0,0,37.6,75Z"/><path class="cls-6" d="M36.34,117.3c-.33,1.62-2.33,11.3-1.48,12.33H45.09c-1-1.2.86-7.55.86-9.37C40,120.26,39.38,119.24,36.34,117.3Z"/><path class="cls-6" d="M93.82,117.34c.33,1.63,3.07,11.43,2.22,12.46l-10.82-.3c1-1.2-.86-7.55-.86-9.37C90.3,120.14,90.78,119.28,93.82,117.34Z"/><path class="cls-7" d="M93.74,77.91a.6.6,0,0,0-.71-.07,13.25,13.25,0,0,1-15.7-1.09h0a8.54,8.54,0,0,0-13.26,1.51,8.54,8.54,0,0,0-13.25-1.51h0a13.25,13.25,0,0,1-15.7,1.09.61.61,0,0,0-.86.77c6.6,14.93,23.29,12.73,23.29,12.73a8.59,8.59,0,0,0,6.53-3.91,8.6,8.6,0,0,0,6.53,3.91S87.3,93.53,93.89,78.6A.6.6,0,0,0,93.74,77.91Z"/><path class="cls-8" d="M8.34,60v2.17a4.78,4.78,0,0,0,4.72,4.73H117.26A4.78,4.78,0,0,0,122,62.16V58H8.34Z"/><rect class="cls-9" x="8.34" y="49.88" width="113.64" height="3.74"/><rect class="cls-10" x="8.34" y="53.62" width="113.64" height="4.42"/><polygon class="cls-7" points="15.59 58.05 12.06 64.15 8.54 58.05 15.59 58.05"/><polygon class="cls-7" points="22.64 58.05 19.11 64.15 15.59 58.05 22.64 58.05"/><polygon class="cls-7" points="29.53 58.05 26.01 64.15 22.48 58.05 29.53 58.05"/><polygon class="cls-7" points="36.58 58.05 33.06 64.15 29.53 58.05 36.58 58.05"/><polygon class="cls-7" points="43.79 58.05 40.26 64.15 36.74 58.05 43.79 58.05"/><polygon class="cls-7" points="50.84 58.05 47.31 64.15 43.78 58.05 50.84 58.05"/><polygon class="cls-7" points="58.05 58.05 54.52 64.15 50.99 58.05 58.05 58.05"/><polygon class="cls-7" points="65.09 58.05 61.57 64.15 58.04 58.05 65.09 58.05"/><polygon class="cls-7" points="72.28 58.05 68.76 64.15 65.23 58.05 72.28 58.05"/><polygon class="cls-7" points="79.33 58.05 75.81 64.15 72.28 58.05 79.33 58.05"/><polygon class="cls-7" points="86.23 58.05 82.7 64.15 79.17 58.05 86.23 58.05"/><polygon class="cls-7" points="93.28 58.05 89.75 64.15 86.22 58.05 93.28 58.05"/><polygon class="cls-7" points="100.48 58.05 96.95 64.15 93.43 58.05 100.48 58.05"/><polygon class="cls-7" points="107.53 58.05 104 64.15 100.48 58.05 107.53 58.05"/><polygon class="cls-7" points="114.74 58.05 111.21 64.15 107.68 58.05 114.74 58.05"/><polygon class="cls-7" points="121.79 58.05 118.26 64.15 114.73 58.05 121.79 58.05"/><path class="cls-5" d="M56.07,17.22a56.69,56.69,0,0,0-3.9,7.14h26a45.06,45.06,0,0,0-3.89-7.14Z"/><path class="cls-7" d="M70.89,12.51a6.79,6.79,0,0,0-5.55-3.36,7.48,7.48,0,0,0-4.62,1.94h0a20.22,20.22,0,0,0-2,2.38h13C71.4,13.14,71.15,12.81,70.89,12.51Z"/><path class="cls-7" d="M48.06,33.89H82.27a51.62,51.62,0,0,0-2.38-5.78H50.5C49.71,29.81,48.9,31.85,48.06,33.89Z"/><path class="cls-8" d="M42.72,49.88H87.61s-.69-2.72-2-6.8H44.88C44.17,45.46,43.45,47.5,42.72,49.88Z"/><path class="cls-5" d="M44.79,43.08H85.54c-.83-2.72-1.91-5.78-3.2-9.19H48.13Q46.51,38,44.79,43.08Z"/><path class="cls-11" d="M50.47,28.11H79.85a30.48,30.48,0,0,0-1.7-3.74h-26C51.63,25.38,51.06,26.74,50.47,28.11Z"/><path class="cls-8" d="M71.65,13.48h-13a20.19,20.19,0,0,0-2.6,3.74H74.25A28.47,28.47,0,0,0,71.65,13.48Z"/><path class="cls-12" d="M69.43,129.4c-1.16,1.25-38.74,1.08-38.7-.11.48-13.08,9.94-28.65,18.1-31.66a24.88,24.88,0,0,1,7-1.52c2,.15,3.29.28,4.13.39,2.18.27-1.11,5.67,7.26,5.23,5.07-.26,2.75-5.32,5.17-5.51,4.57-.36,9.44-.28,14.33,3.06C86.7,99.27,81.28,116.65,69.43,129.4Z"/><g class="cls-13"><polygon class="cls-14" points="57.52 101.01 56.02 99.25 57.52 97.5 56.02 95.75 56.02 95.75 52.9 95.75 52.9 95.75 51.4 97.5 52.9 99.25 51.4 101.01 52.9 102.76 52.9 102.84 51.4 104.59 52.9 106.35 51.4 108.1 52.9 109.85 52.9 109.92 51.4 111.67 52.9 113.43 51.4 115.18 52.87 116.89 51.4 118.61 52.9 120.36 51.4 122.11 52.9 123.87 52.9 123.94 51.4 125.7 52.9 127.45 51.4 129.2 52.9 130.96 52.9 131.03 51.4 132.79 52.9 134.54 51.4 136.29 52.9 138.05 52.9 138.09 56.02 138.09 56.02 138.05 57.52 136.29 56.02 134.54 57.52 132.79 56.02 131.03 56.02 130.96 57.52 129.2 56.02 127.45 57.52 125.7 56.02 123.94 56.02 123.88 57.52 122.12 56.02 120.37 57.52 118.62 56.05 116.9 57.52 115.19 56.02 113.43 57.52 111.68 56.02 109.93 56.02 109.85 57.52 108.1 56.02 106.35 57.52 104.59 56.02 102.84 56.02 102.76 57.52 101.01"/><polygon class="cls-15" points="69.11 101.01 67.62 99.25 69.11 97.5 67.62 95.75 67.62 95.75 64.5 95.75 64.5 95.75 63 97.5 64.5 99.25 63 101.01 64.5 102.76 64.5 102.84 63 104.59 64.5 106.35 63 108.1 64.5 109.85 64.5 109.92 63 111.67 64.5 113.43 63 115.18 64.47 116.89 63 118.61 64.5 120.36 63 122.11 64.5 123.87 64.5 123.94 63 125.7 64.5 127.45 63 129.2 64.5 130.96 64.5 131.03 63 132.79 64.5 134.54 63 136.29 64.5 138.05 64.5 138.09 67.62 138.09 67.62 138.05 69.11 136.29 67.62 134.54 69.11 132.79 67.62 131.03 67.62 130.96 69.11 129.2 67.62 127.45 69.11 125.7 67.62 123.94 67.62 123.88 69.11 122.12 67.62 120.37 69.11 118.62 67.65 116.9 69.11 115.19 67.62 113.43 69.11 111.68 67.62 109.93 67.62 109.85 69.11 108.1 67.62 106.35 69.11 104.59 67.62 102.84 67.62 102.76 69.11 101.01"/><polygon class="cls-14" points="80.37 101.01 78.87 99.25 80.37 97.5 78.87 95.75 78.87 95.75 75.75 95.75 75.75 95.75 74.25 97.5 75.75 99.25 74.25 101.01 75.75 102.76 75.75 102.84 74.25 104.59 75.75 106.35 74.25 108.1 75.75 109.85 75.75 109.92 74.25 111.67 75.75 113.43 74.25 115.18 75.72 116.89 74.25 118.61 75.75 120.36 74.25 122.11 75.75 123.87 75.75 123.94 74.25 125.7 75.75 127.45 74.25 129.2 75.75 130.96 75.75 131.03 74.25 132.79 75.75 134.54 74.25 136.29 75.75 138.05 75.75 138.09 78.87 138.09 78.87 138.05 80.37 136.29 78.87 134.54 80.37 132.79 78.87 131.03 78.87 130.96 80.37 129.2 78.87 127.45 80.37 125.7 78.87 123.94 78.87 123.88 80.37 122.12 78.87 120.37 80.37 118.62 78.9 116.9 80.37 115.19 78.87 113.43 80.37 111.68 78.87 109.93 78.87 109.85 80.37 108.1 78.87 106.35 80.37 104.59 78.87 102.84 78.87 102.76 80.37 101.01"/></g></g></g></g></svg>