<svg xmlns="http://www.w3.org/2000/svg" xmlns:xlink="http://www.w3.org/1999/xlink" viewBox="0 0 127.84 129.96"><defs><style>.cls-1{fill:none;}.cls-2{fill:#2e9b91;}.cls-3{clip-path:url(#clip-path);}.cls-4{fill:#3d3c3a;}.cls-4,.cls-5,.cls-6,.cls-7,.cls-8{fill-rule:evenodd;}.cls-5{fill:#191919;}.cls-6{fill:#c7b021;}.cls-7{fill:#f1d741;}.cls-8{fill:#cca263;}.cls-9{fill:#f0d6ac;}.cls-10{fill:#211915;}</style><clipPath id="clip-path"><rect class="cls-1" width="127.84" height="127.84" rx="22.39" ry="22.39"/></clipPath></defs><title>资源 2</title><g id="图层_2" data-name="图层 2"><g id="Capa_1" data-name="Capa 1"><rect class="cls-2" width="127.84" height="127.84" rx="22.39" ry="22.39"/><g class="cls-3"><path class="cls-4" d="M98.9,130c-2.32-11.39-4-31.85-25.46-33.5a83.87,83.87,0,0,0-20-.23c-17.57,1.52-24.72,19.93-25,33.73Z"/><path class="cls-5" d="M63.67,127l8.47-31c.62,2,9.76,6.86,8.45,8.36s-3,2.45-2.66,3c.56,1,4.11,2.13,6.19,4,1,.89-12.21,16.06-19.84,17.36l-.81.48Z"/><path class="cls-5" d="M63.26,127l-8.51-31c-.62,2-9.81,6.86-8.5,8.36s3,2.45,2.67,3c-.57,1-4.13,2.13-6.22,4-1,.89,12.27,16.06,20,17.36l.81.48Z"/><path class="cls-6" d="M66.86,99.94,53.49,98.3c.75,9.66.32,19.1,8.72,27.78,1,1.06.7,1.37,1.6,1,2.72-1.22,4.21-3.86,6.14-6.6.75-1.06,3-10.16,3.83-20.26Z"/><path class="cls-5" d="M67.33,99.36l-7.74.12c.23,2.58,3.14,13.87,6.54,3.53C66.49,101.91,67.33,100.48,67.33,99.36Z"/><path class="cls-7" d="M71.44,96.19l-7.27,3.75c1,1.26,6.85,7,6.87,7C72.12,104.9,77.78,95.76,71.44,96.19Z"/><path class="cls-7" d="M56,95.49l7.27,3.75c-1,1.26-6.85,7-6.87,6.95C55.27,104.19,49.61,95.06,56,95.49Z"/><path class="cls-8" d="M72.54,84.61l-17.69-.53c-.09.23.94,11.56,1.35,12.93,1.49,3.83,14.88,4.83,16.23-.62Z"/><path class="cls-5" d="M64.28,105.46l-2.23.82c-.2.31-4.1,14.12-3.84,15.29a7.75,7.75,0,0,0,5.36,5.72c2.87.29,6.39-5.9,6.11-6.58Z"/><path class="cls-9" d="M88.43,55.41l-.91.64c-.07-.72-.14-1.4-.21-2-.55-5.12-1.8-19.11-1.8-19.11s-13.57-6-13.29-6.65-22.3,2.08-21.88,2.08-8.45,5.4-8.45,6.23S39.53,50,39.53,50l.18,5.43,0,0s-2.36-1.66-1.94,3.19-.55,17.59,4,15c.24-.26.46-.5.66-.74,2.19,5.08,6.1,12.26,8.62,18.05,2.89,6.65,9.13,8.24,14.26,8,6.79-.28,8.86-3.19,11.22-8.45,1.08-2.41,6.41-13.27,8.81-18.13a13.14,13.14,0,0,0,1,1.23c4.57,2.63,3.6-10.11,4-15S88.43,55.41,88.43,55.41Z"/><path class="cls-10" d="M69.71,73a7.53,7.53,0,0,0-5.19,0s-1.95,1.76,0,2.88,4.79,0,6.69,2A6.47,6.47,0,0,1,71.9,85c-.83,1.64-3.3,3.57-4.89,2.69a2.6,2.6,0,0,1-1.12-2.8s3-.81,1.89-1.1a38.55,38.55,0,0,0-8.22,0c-1.14.29,1.9,1.1,1.9,1.1a2.63,2.63,0,0,1-1.12,2.8c-1.58.89-4-1-4.89-2.69a6.47,6.47,0,0,1,.68-7.17c1.9-2,4.74-.89,6.69-2s0-2.88,0-2.88a7.53,7.53,0,0,0-5.19,0c-2.77,1-4.13,2.43-5,4.6s-.74,9.84,1.21,12.64,5.5,7,9.82,7,7.87-4.24,9.82-7,2.1-10.32,1.2-12.64A7.56,7.56,0,0,0,69.71,73Z"/><path class="cls-10" d="M91.24,18.47c-2.06-2.63-4-2.68-4.66-2.61a22.17,22.17,0,0,0-1.69-6.6s.34,4.55-5,6.63c2.11-4,.93-8.26.81-7.44s-5.59,4.3-3.86,2.35S77,3.88,77,4.53s-7.58,5.6-6.26,4.7.66-3.91.66-3.91L67.28,8.83c-4.13,3.51-15.17,1.95-20,4.3a8,8,0,0,0-4.79,6.78s-2.79-1-6.92,1.83-2.79,16-2.53,20.06,3.59,12.38,4.66,16S41.59,59,41.59,59c-.05-.38-.47-1.62-.88-3.23a8.18,8.18,0,0,1,.83,1c.39,6.63,3.32,9.49,9.49,9.49s8.9-4.1,9.36-5.78a23.29,23.29,0,0,0,.46-4.68,10.64,10.64,0,0,1,4.13,0,23.42,23.42,0,0,0,.46,4.68c.46,1.68,3.18,5.78,9.36,5.78s9.1-2.86,9.49-9.49c.43-.49.76-1.15,1.48-1.23.27,2.07.55,3.33,1.07,3,1.58-1-1.88-.92,1.84-6.38s4.66-11.34,5.46-17.47S93.42,21.25,91.24,18.47ZM57.23,63c-2.33,2.4-6.31,2.21-6.31,2.21-3.65.13-6.11-1.3-7-3.9s.07-6,.07-6a11.68,11.68,0,0,1,6.5-2.08c3.91-.06,8,.92,8.89,2C59.75,58.2,59.55,60.61,57.23,63ZM82,61.33c-.93,2.6-3.38,4-7,3.9,0,0-4,.2-6.31-2.21s-2.52-4.81-2.13-7.73c.87-1.1,5-2.08,8.9-2a11.68,11.68,0,0,1,6.5,2.08S82.93,58.73,82,61.33ZM82.81,52A21.54,21.54,0,0,0,75,50.6c-4.18,0-7.11,1.1-9.42,3.45a10.06,10.06,0,0,0-5.19,0C58,51.71,55.11,50.6,50.92,50.6A21.56,21.56,0,0,0,43.07,52a12.19,12.19,0,0,1-2.71.45s-.07.33-.15.88c-.38-2.35-.43-5,.61-6.94A65.44,65.44,0,0,0,45.21,34c.39-1.56,9.09-2.86,18.44-1.83,7.11.8,10.93,2.26,14.45,1.48.84.28,2.64,1.39,4.75,5.81,1.56,3.25,2.14,8.71,2.59,13A13.43,13.43,0,0,1,82.81,52Z"/></g></g></g></svg>