<svg xmlns="http://www.w3.org/2000/svg" xmlns:xlink="http://www.w3.org/1999/xlink" viewBox="0 0 127.84 132.47"><defs><style>.cls-1{fill:none;}.cls-2{fill:#bb7008;}.cls-3{clip-path:url(#clip-path);}.cls-4{fill:#353535;}.cls-10,.cls-4,.cls-5,.cls-6,.cls-7,.cls-8,.cls-9{fill-rule:evenodd;}.cls-5{fill:#f9f1e5;}.cls-6{fill:#c9a970;}.cls-7{fill:#efd8aa;}.cls-8{fill:#523e1d;}.cls-9{fill:#7a5b29;}.cls-10{fill:#e4e4e3;}</style><clipPath id="clip-path"><rect class="cls-1" width="127.84" height="127.84" rx="22.39" ry="22.39"/></clipPath></defs><title>资源 10</title><g id="图层_2" data-name="图层 2"><g id="Capa_1" data-name="Capa 1"><rect class="cls-2" width="127.84" height="127.84" rx="22.39" ry="22.39"/><g class="cls-3"><path class="cls-4" d="M54.53,95.75a87.84,87.84,0,0,1,21,.24c22.92,1.76,24.44,24.38,27,36.22-24.71.16-49.51-.14-74.22,0C28.21,117.64,35.63,97.38,54.53,95.75Z"/><path class="cls-5" d="M68.58,99.64l-13.5-1.72c1.87,8.65.27,24.16-.88,34-.06.54,9.51.11,10.55.1,4,0,12.3.33,12.57,0,.4-.56-1.59-7.25-1.67-13.85s-.67-15.54-1.46-18Z"/><path class="cls-6" d="M74.54,83.54,56,83c-.09.25,1,12.14,1.42,13.58.69,1.78,7,24.65,9.07,25.11,2.61.57,7.19-22.57,8-25.76Z"/><path class="cls-7" d="M35.61,61.29l-3.34-.19c.07,2.64.5,15.41,5.46,14.22,1.95-.47.39-5.5,1.73,2.64,1.23,7.41,10.85,11.5,17.15,15,2,1.12,12.89.69,14.54-.65C73,90.76,79.61,88,83.8,84.73c2.78-2.15,5.48-7.79,5.48-11.34,0-4.78,2,3.52,5.5-1.32,2.34-3.27,1.47-8,1.47-11.95L84.82,28.36,66,18.09,46.65,22.16,36.58,40Z"/><path class="cls-8" d="M43.55,34.37,40.26,23c0,.65-4.88,6.71-4.84,9.78,0,.52-4.11,5-4,12.76,0,2.32-2.65,4.79-.7,11.52.44,1.51-.47,5.56,1,10.35,1.57,5,3.11,1,1.66-1.63-.36-.65.49-6,.62-.84,0,.76,4.27,9.47,4.27,1.67,0-8.9,2.6-11,1.58-21.1C38.89,35.63,43.55,36,43.55,34.37Z"/><path class="cls-8" d="M90.44,25.26,87,37.46c-.25.52.35,16.15,1.29,17.73,2.46,4.13,1,18.45,4.88,9.49,1.91-4.46-1.9-5.54,2.83-1.45C97.59,64.57,98,47,98,45.5c-.75-.77-2.13-2.2-2.13-3.29C99,40,94.87,26.79,90.44,25.26Z"/><path class="cls-9" d="M66.61,19.93c4.87-12.66-27-18.46-27,7.26,0,2.49,2,9.54-.39,10.57-1.82.78,3,6.18,7.1-3.59,1.48-3.54,2.92-12.82,8.17-7.32,3.25,3.41,10.67,0,12-6.61Z"/><path class="cls-9" d="M66.41,16.3c2.3-1.41,1.49-4.7,11.06-3.33,9,1.29,13.05,8.45,14.43,16.6,1.3,7.67,3.26,8.52,5.77,14.85,2.79,7-13.86-6.19-16.19-11.4-5.38-12-12.84-7-16-8.94C61.41,21.68,65.73,16.71,66.41,16.3Z"/><path class="cls-10" d="M65.54,120.82c-.88-1.46-8.34-26.79-8.4-26.75-3.36,1.79-9.38,4-13.15,7.59-3.59,3.39,9-2.3,11.47-.59,1,.65,7.35,21.17,10.35,21.17A9.46,9.46,0,0,0,65.54,120.82Z"/><path class="cls-10" d="M66.91,120.36c.88-1.46,7.43-25.51,7.49-25.47,3.54,2.52,9.1,3.29,12.87,6.85,3.59,3.39-8.7-1.57-11.2.14-1,.65-6.43,19.9-9.44,19.9A9.37,9.37,0,0,1,66.91,120.36Z"/><path class="cls-5" d="M107.59,132.32,94,132.47c.45-12.13-3.68-29.67-2.78-30.09C96.91,99.73,108.19,131,107.59,132.32Z"/><path class="cls-5" d="M24.13,132.14,38.5,132c-.27-10.3.18-25.24.31-27.71C39.09,99.09,20.88,123.31,24.13,132.14Z"/></g></g></g></svg>