<svg xmlns="http://www.w3.org/2000/svg" xmlns:xlink="http://www.w3.org/1999/xlink" viewBox="0 0 127.84 129.48"><defs><style>.cls-1{fill:none;}.cls-2{fill:#cdd1d0;}.cls-3{clip-path:url(#clip-path);}.cls-4{fill:#3d3c3a;}.cls-4,.cls-5,.cls-6,.cls-7,.cls-8,.cls-9{fill-rule:evenodd;}.cls-5{fill:#191919;}.cls-6{fill:#fff;}.cls-7{fill:#010002;}.cls-8{fill:#cbcbcb;}.cls-9{fill:#cca263;}.cls-10{fill:#f0d6ac;}.cls-11{fill:#211915;}.cls-12{fill:#911718;}</style><clipPath id="clip-path"><rect class="cls-1" width="127.84" height="127.84" rx="22.39" ry="22.39"/></clipPath></defs><title>资源 5</title><g id="图层_2" data-name="图层 2"><g id="Capa_1" data-name="Capa 1"><rect class="cls-2" width="127.84" height="127.84" rx="22.39" ry="22.39"/><g class="cls-3"><path class="cls-4" d="M54.6,93.74c5.81-.47,12.94-1.92,19.69.2,20.64,6.49,26.11,25.45,28.47,35.49-23.22.13-51.39-.14-74.61,0C28.14,117.06,41.67,98.14,54.6,93.74Z"/><path class="cls-5" d="M64.64,127.49,73,99.9c.61,1.82,9.63,6.11,8.34,7.45s-2.94,2.18-2.62,2.7c.56.92,4.05,1.9,6.11,3.53,1,.79-12,14.31-19.59,15.47l-.8.43Z"/><path class="cls-5" d="M64.24,127.49,55.84,99.9c-.61,1.82-9.68,6.11-8.38,7.45s3,2.18,2.64,2.7c-.56.92-4.08,1.9-6.14,3.53-1,.79,12.11,14.31,19.69,15.47l.8.43Z"/><path class="cls-6" d="M67.8,103.35l-13.2-1.46c.74,8.6.31,17,8.6,24.75,1,.94.69,1.22,1.58.86,2.68-1.09,4.16-3.44,6.06-5.89.74-.94,3-9.05,3.78-18.06Z"/><path class="cls-7" d="M68.26,102.83l-7.64.1c.22,2.3,3.1,12.36,6.45,3.14C67.43,105.1,68.26,103.82,68.26,102.83Z"/><path class="cls-8" d="M72.31,100l-7.18,3.35c.95,1.12,6.76,6.22,6.78,6.19C73,107.76,78.57,99.62,72.31,100Z"/><path class="cls-8" d="M57,99.38l7.18,3.35c-.95,1.12-6.76,6.22-6.78,6.19C56.36,107.13,50.77,99,57,99.38Z"/><path class="cls-9" d="M73.4,89.68l-17.46-.47c-.09.21.93,10.3,1.33,11.52,1.47,3.41,14.69,4.31,16-.55Z"/><path class="cls-7" d="M65.25,108.26l-2.2.75c-.2.29-4.19,13-3.79,14.08.53,1.39,4.78,5.26,5.28,5.27,1,0,6.31-5.44,6-6.06Z"/><path class="cls-10" d="M40.79,45.63s-2.45,9.39-.64,12,4.6,20.93,5.3,22.28,18.11,10,18.8,9.63S77,86.66,77,86.66l3.71-4.82L86,63l-.73-6.72s2.81-10.62,2.81-13.51-2.56-10.79-4.18-11-13.23.78-14.16,1S40.79,45.63,40.79,45.63Z"/><path class="cls-10" d="M39.72,63.56s-3.05,1.57-3.67-2.82-2-11.25,2.72-10.65,4.54,7.41,4.54,7.41Z"/><path class="cls-10" d="M86.77,63.11s3.09,1.62,3.6-2.77,1.77-11.22-3-10.7S83,57,83,57Z"/><path class="cls-11" d="M89.47,70.4c.9-3.62-.53-4.6-.07-6s-1.67-5.27-2.13-6.77a2,2,0,0,0-1.95-1.44s-1.5,7.36-1.76,9C82.65,71,76,76.13,75.5,74.38c-1.08-4-10.19-4.41-11.39-3-3.66-1.3-10.86-1.06-11.94,3C51.7,76.14,45,71,44.1,65.24c-.26-1.63-1.77-9-1.77-9a2,2,0,0,0-1.95,1.44c-.46,1.5-2.6,5.41-2.12,6.77s-1,2.34-.06,6-.67,4.89-.31,6.33,1.29,8,4,12.12S45,98,48.75,99.78s10.19,3.86,10.93,4.84,3.43,1.81,4,2.86c.07.13.13-.2.18-.87,0,.67.12,1,.18.87.56-1.05,3.24-1.89,4-2.86s7.13-3,10.93-4.85,4.17-6.84,6.85-10.93,3.61-10.68,4-12.12S88.57,74,89.47,70.4ZM71.61,79.45c-.65,1.21-5.76,1.08-7.77.42-2,.67-7.13.79-7.77-.41s-1.23-2.19,1.16-3.52a22.14,22.14,0,0,1,6.61-2.24,22,22,0,0,1,6.63,2.23C72.83,77.25,72.26,78.24,71.61,79.45Z"/><path class="cls-12" d="M88,50.3a12.72,12.72,0,0,1-4.09-.59,24.29,24.29,0,0,0-7.67-1.09c-3.73-.08-8.46,2.41-8.7,2.61-.43-.76-1.78-1.1-3.14-1.09s-2.7.33-3.14,1.09c-.26-.21-5-2.7-8.7-2.61a24.64,24.64,0,0,0-7.67,1.09,12.28,12.28,0,0,1-4.09.59,3,3,0,0,0,1,2.82c.72.51,1,1.85,1.19,3.42.58,5.69,7.15,6.1,7.15,6.1s5.91.89,9-1.91c4.09-3.42,2.74-7.25,2.58-7.46a1.39,1.39,0,0,1,.16-1.23,3.43,3.43,0,0,1,5,0,1.4,1.4,0,0,1,.16,1.23c-.16.21-1.5,4,2.59,7.46,3.06,2.78,9,1.9,9,1.9s6.58-.43,7.15-6.11C86,55,86.26,53.63,87,53.12A3,3,0,0,0,88,50.3ZM42.33,52.08c-.51,0-.36-.73-.51-.81l.82-.11S42.84,52.08,42.33,52.08Zm16.44,7.59c-2.39,2.55-8.57,3.1-12.61.67C44,59,43.61,54.78,43.69,54c.11-1.16,1.19-4.48,8.36-4.54,0,0,4.22-.29,7.13,2C61.11,53.06,61.1,57.17,58.78,59.67Zm23.87.66c-4.06,2.42-10.22,1.89-12.61-.66s-2.34-6.61-.4-8.16c2.89-2.31,7.13-2,7.13-2,7.15,0,8.23,3.37,8.36,4.53C85.19,54.77,85,58.93,82.64,60.33Zm3.69-8.26c-.51,0-.31-.92-.31-.92l.82.11C86.7,51.32,86.83,52.07,86.34,52.07Z"/><path class="cls-11" d="M66.83,45.18a57,57,0,0,1-14.77,2.38l1.1-1.69L45.1,49.13,43.52,47c-2.45,1.16-3.38,10.67-3.38,10.67l-1.43-7.72s-2.85,1.16-2.21.44.16-6.47.16-6.47H32.56s3.32-2.18,2.2-8.86,9.79-16.19,14.37-19.28,18.63-4.25,22.43-2.58l.69.31s-.69-2.86-2.59-3.06,4.11-.23,4.42,3.06,2.68-.54,5.69-1.07,2.54.16,2.54.16S77.42,14,78.68,14.81c0,0,5,.54,7.36,3.47s5.66,8.85,6.58,9-2.41,0-2.41,0,1.7,1.14,2,4.71S89.1,45.18,88.38,46.27s-1.8,2.86-1.8,2.86-1.29-1.25-1.13-4.23a10.39,10.39,0,0,0-1.62-5.63,34.84,34.84,0,0,1-10.35,5.35c-5.69,1.94-7.7,2.24-9.91,2.13"/></g></g></g></svg>