<svg xmlns="http://www.w3.org/2000/svg" xmlns:xlink="http://www.w3.org/1999/xlink" viewBox="0 0 127.84 129.73"><defs><style>.cls-1,.cls-2{fill:none;}.cls-2{clip-rule:evenodd;}.cls-3{fill:#d8d9db;}.cls-4{clip-path:url(#clip-path);}.cls-5{fill:#3d3c3a;}.cls-10,.cls-11,.cls-12,.cls-14,.cls-5,.cls-6,.cls-7,.cls-8,.cls-9{fill-rule:evenodd;}.cls-6{fill:#191919;}.cls-7{fill:#c7b021;}.cls-8{fill:#289556;}.cls-9{fill:#f1d741;}.cls-10{fill:#cca263;}.cls-11{fill:#f0d6ac;}.cls-12{fill:#835a20;}.cls-13{clip-path:url(#clip-path-2);}.cls-14{fill:#d27e41;}</style><clipPath id="clip-path"><rect class="cls-1" width="127.84" height="127.84" rx="22.39" ry="22.39"/></clipPath><clipPath id="clip-path-2"><path class="cls-2" d="M65.13,104.49l-2.21.81c-.2.31-4.2,14-3.8,15.13.53,1.5,4.79,5.65,5.3,5.66,1,0,6.33-5.85,6.05-6.52Z"/></clipPath></defs><title>资源 24</title><g id="图层_2" data-name="图层 2"><g id="Capa_1" data-name="Capa 1"><rect class="cls-3" width="127.84" height="127.84" rx="22.39" ry="22.39"/><g class="cls-4"><path class="cls-5" d="M54.44,95.36a82.91,82.91,0,0,1,19.74.23c21.6,1.66,22.95,22.54,25.31,33.7l-69.86.45C29.64,116,36.62,96.89,54.44,95.36Z"/><path class="cls-6" d="M64.52,125.85,72.9,95.2c.61,2,9.66,6.79,8.36,8.27s-2.95,2.42-2.63,3c.55,1,4.06,2.1,6.12,3.92,1,.88-12.08,15.89-19.64,17.18l-.8.47Z"/><path class="cls-6" d="M64.11,125.85,55.69,95.2c-.61,2-9.71,6.79-8.41,8.27s3,2.42,2.64,3c-.56,1-4.09,2.1-6.15,3.92-1,.88,12.15,15.89,19.75,17.18l.8.47Z"/><path class="cls-7" d="M67.68,99,54.45,97.41c.74,9.55.32,18.91,8.63,27.49,1,1,.7,1.36,1.59,1,2.69-1.21,4.17-3.82,6.08-6.54.74-1,3-10.06,3.79-20.06Z"/><path class="cls-8" d="M68.14,98.45l-7.66.12c.22,2.55,3.1,13.73,6.47,3.49C67.31,101,68.14,99.56,68.14,98.45Z"/><path class="cls-9" d="M72.21,95.32,65,99c.95,1.25,6.78,6.91,6.8,6.88C72.88,103.94,78.48,94.89,72.21,95.32Z"/><path class="cls-9" d="M56.88,94.62l7.2,3.72c-1,1.25-6.78,6.91-6.8,6.88C56.21,103.24,50.61,94.19,56.88,94.62Z"/><path class="cls-10" d="M73.3,83.85l-17.51-.52c-.09.23.93,11.44,1.34,12.8,1.48,3.79,14.73,4.79,16.07-.61Z"/><path class="cls-11" d="M89.48,76.79c.33-3.6-.33-11.55,0-15.16,1.37-.95,7.91-2,9.63,2.54,2.11,6.25-2.67,10.88-4.47,12.24A10.29,10.29,0,0,1,89.48,76.79Z"/><path class="cls-11" d="M88.48,29.67c-6.34-12.91-47.7-13-54,2.79-3.31,14.77-3.6,30.74.43,42.32C38.63,83.3,46.17,88.08,53,91.48c5.59,2.79,14.14,3.81,20.25.74,9.15-4.33,15.6-12.91,17.4-19.83C92.73,57.75,94,43.71,88.48,29.67Z"/><path class="cls-11" d="M36,77.31c-.33-3.55.33-11.38,0-14.93-1.37-.93-7.91-2-9.63,2.5C24.24,71,29,75.59,30.83,76.93A10.51,10.51,0,0,0,36,77.31Z"/><path class="cls-12" d="M85.33,25.54c-.15,6.44-1.92,8.24-21.71,7.31-25.72-1.2-31.38,13.2-31.41,13.06C29,30.4,29.94,12.42,60.43,12.42,66.85,12.42,84.78,17,85.33,25.54Z"/><path class="cls-12" d="M83.93,26c1.06-.71,20.55,1.1,20.55,16.33,0,9.18-11.34,26.58-16.65,33.06-1.65,2-2,.66-2.16.65-1.34-.12,3.06-7.65,4.73-15.92,2.95-14.55,1.16-26.19-5.49-30.91Z"/><path class="cls-12" d="M32.27,37.5c-9.83,2.23-6.92,17.72-1.63,24,0,0,6.23,21.47,6.62,13.21.13-2.81-9-19.85-2.21-33.07Z"/><path class="cls-8" d="M65.13,104.49l-2.21.81c-.2.31-4.2,14-3.8,15.13.53,1.5,4.79,5.65,5.3,5.66,1,0,6.33-5.85,6.05-6.52Z"/><g class="cls-13"><path class="cls-14" d="M60.55,110.69l.17-2.26c1.1.15,5.38-.38,7.14-2.32l.17,2.44L68,109C65.49,110.67,62.58,110.69,60.55,110.69Z"/><path class="cls-14" d="M59,117l.33-3.77c1.82.27,9-.53,11.95-3.73l.24,4.07-.11.77C67.23,117.07,62.38,117,59,117Z"/><path class="cls-14" d="M57.24,123.13l1-3.9c1.87.61,9.54,1.06,13.24-1.76L71,121.78l-.25.79C65.9,124.69,60.8,123.78,57.24,123.13Z"/></g><path class="cls-14" d="M80.29,120c.82-.4,10.72.66,8.09-1.94-1.2-1.19-1.55-5.57-3.27-1.78-1.58,3.5-1.21-1.64-4.58,3.56C80.42,120,80.46,119.95,80.29,120Z"/><path class="cls-6" d="M30.95,72.79c3.34-2.05.3-3.79-.71-3.59-6.91,1.31-.29,9.68,2.21,9.27,1.81-.29.23-2.18-.28-3.43A8.34,8.34,0,0,0,30.95,72.79Z"/></g></g></g></svg>