<svg xmlns="http://www.w3.org/2000/svg" xmlns:xlink="http://www.w3.org/1999/xlink" viewBox="0 0 127.84 130.58"><defs><style>.cls-1,.cls-2{fill:none;}.cls-2{clip-rule:evenodd;}.cls-3{fill:#ab352c;}.cls-4{clip-path:url(#clip-path);}.cls-5{fill:#eae14b;}.cls-10,.cls-12,.cls-13,.cls-14,.cls-15,.cls-16,.cls-17,.cls-18,.cls-19,.cls-5,.cls-7,.cls-8{fill-rule:evenodd;}.cls-6{clip-path:url(#clip-path-2);}.cls-7{fill:#e0c184;}.cls-8{fill:#c9a970;}.cls-9{clip-path:url(#clip-path-3);}.cls-10{fill:#8c3637;}.cls-11{fill:#896b36;}.cls-12{fill:#efd8aa;}.cls-13{fill:#010002;}.cls-14{fill:#808385;}.cls-15{fill:#fff;}.cls-16{fill:#e6cd44;}.cls-17{fill:#dfb644;}.cls-18{fill:#b29447;}.cls-19{fill:#705528;}</style><clipPath id="clip-path"><rect class="cls-1" width="127.84" height="127.84" rx="22.39" ry="22.39"/></clipPath><clipPath id="clip-path-2"><path class="cls-2" d="M55.21,95.58a84.13,84.13,0,0,1,20.06.23C97.22,97.49,98.59,118.71,101,130l-71,.46C30,116.54,37.11,97.14,55.21,95.58Z"/></clipPath><clipPath id="clip-path-3"><path class="cls-2" d="M73.9,89.27l-17.79-.48c-.09.22.94,10.51,1.36,11.76.74,1.71,3.88,13.89,7.54,14s8.1-12,8.79-14.54Z"/></clipPath></defs><title>资源 11</title><g id="图层_2" data-name="图层 2"><g id="Capa_1" data-name="Capa 1"><rect class="cls-3" width="127.84" height="127.84" rx="22.39" ry="22.39"/><g class="cls-4"><path class="cls-5" d="M55.21,95.58a84.13,84.13,0,0,1,20.06.23C97.22,97.49,98.59,118.71,101,130l-71,.46C30,116.54,37.11,97.14,55.21,95.58Z"/><g class="cls-6"><path class="cls-7" d="M31.26,121.64l9.44,3.18c1.23-7.13,5.43-14.62,5.43-27.37l-8.85,3.78-6.37,13.92Z"/><path class="cls-7" d="M98.38,119.28l-9.44,3.19c-1.23-7.13-5.43-14.62-5.43-27.37l8.85,3.78,6.37,13.92Z"/><path class="cls-7" d="M31.63,117.94c-.34,1.67-2.38,11.59-1.52,12.64H40.6c-1-1.23.88-7.74.88-9.6C35.39,121,34.74,119.92,31.63,117.94Z"/><path class="cls-7" d="M98.28,117.36c.49,1.63,3.52,11.75,2.75,12.87l-10.45.1c.91-1.31-1.68-7.22-1.85-9.08C94.8,120.71,95.35,119.61,98.28,117.36Z"/></g><path class="cls-8" d="M73.9,89.27l-17.79-.48c-.09.22.94,10.51,1.36,11.76.74,1.71,3.88,13.89,7.54,14s8.1-12,8.79-14.54Z"/><g class="cls-9"><path class="cls-10" d="M58.6,115.73,55.26,98.67c.17,0,8.31,2,10.7,2,7.76,0,4.59-.2,10.49-2.36l-3.92,12.6-6.68,6.43Z"/></g><path class="cls-11" d="M73.9,89.27v-.06l-17.83-.48,0,0v.09c0,.48.24,3.1.53,5.76a57.76,57.76,0,0,0,.83,6h0c.36.85,1.34,4.33,2.67,7.59a23.68,23.68,0,0,0,2.25,4.41c.82,1.19,1.71,2,2.67,2h0c1,0,2-.77,2.91-1.94,2.84-3.51,5.38-10.75,5.9-12.64h0L74,89.21H73.9v.06h-.06L73.73,100h.06l-.06,0a56,56,0,0,1-3.21,8.2,24,24,0,0,1-2.66,4.4c-.94,1.16-1.91,1.9-2.82,1.89h0c-.88,0-1.75-.77-2.56-1.95a31.26,31.26,0,0,1-3.17-6.83c-.85-2.39-1.47-4.5-1.75-5.15l-.06,0,.06,0a57.2,57.2,0,0,1-.83-5.92c-.29-2.65-.53-5.28-.53-5.74v0h0l-.06,0v.06l17.79.48v-.06h0Z"/><path class="cls-12" d="M90.81,74.83c.34-3.66-.34-11.74,0-15.4,1.39-1,8-2,9.78,2.58,2.15,6.35-2.71,11-4.54,12.44A10.48,10.48,0,0,1,90.81,74.83Z"/><path class="cls-12" d="M90.38,29.11C83.94,15.83,41.92,15.69,35.48,32c-3.37,15.2-3.66,31.63.44,43.54C39.73,84.29,47.38,89.2,54.33,92.7c16.2,8.16,34.14-3.66,38.25-19.64C94.7,58,95.94,43.56,90.38,29.11Z"/><path class="cls-12" d="M35.52,75.59c-.34-3.61.34-11.56,0-15.16-1.39-.95-8-2-9.78,2.54-2.15,6.25,2.71,10.88,4.54,12.25A10.61,10.61,0,0,0,35.52,75.59Z"/><path class="cls-13" d="M68.16,55.92c5.14-6.6,18.46-4.62,22.65,1.84,3.25,5,.73,16.83-9.08,16S64,61.26,68.16,55.92Z"/><path class="cls-14" d="M89.73,61.9a1.25,1.25,0,0,0,1.12,1.35h2.47a1.37,1.37,0,0,0,0-2.69H90.86A1.25,1.25,0,0,0,89.73,61.9Z"/><path class="cls-13" d="M60.24,55.92c-5.14-6.6-18.46-4.62-22.65,1.84-3.24,5-.73,16.83,9.08,16S64.4,61.26,60.24,55.92Z"/><path class="cls-14" d="M38.67,61.9a1.25,1.25,0,0,1-1.12,1.35H35.07a1.37,1.37,0,0,1,0-2.69h2.47A1.25,1.25,0,0,1,38.67,61.9Z"/><path class="cls-14" d="M72.85,52.73A38.26,38.26,0,0,0,64.2,52a38.26,38.26,0,0,0-8.65.7l.34,1.3a38.53,38.53,0,0,1,8.28-.65,39.62,39.62,0,0,1,8.34.65Z"/><path class="cls-14" d="M67.9,56.18a4.74,4.74,0,0,0-8.27,1.74l1.38.31a3.35,3.35,0,0,1,6.39,0l1.38-.31A4.61,4.61,0,0,0,67.9,56.18Z"/><path class="cls-13" d="M50.49,52.93a14,14,0,0,1,5.09.9,8.83,8.83,0,0,1,3.8,2.75,4.55,4.55,0,0,1,.9,2.83,9.28,9.28,0,0,1-.86,3.7,16.91,16.91,0,0,1-5,6.31,14.78,14.78,0,0,1-7.82,3.25c-.29,0-.58,0-.86,0a7.74,7.74,0,0,1-4.29-1.2,8.19,8.19,0,0,1-2.73-3A11.75,11.75,0,0,1,37.34,63a8.62,8.62,0,0,1,1.16-4.69,11.23,11.23,0,0,1,5-3.94A17.64,17.64,0,0,1,50.49,52.93Zm0-1.09h0c-5.13,0-10.5,2.23-12.9,5.92-3.14,4.83-.89,16.05,8.13,16.05.31,0,.62,0,.95,0C56.47,73,64.4,61.26,60.24,55.92,58,53.09,54.33,51.84,50.49,51.84Z"/><path class="cls-13" d="M77.92,52.93a17.63,17.63,0,0,1,7,1.48,11.24,11.24,0,0,1,5,3.94A8.62,8.62,0,0,1,91.06,63a11.78,11.78,0,0,1-1.36,5.45,8.19,8.19,0,0,1-2.73,3,7.74,7.74,0,0,1-4.29,1.2c-.28,0-.57,0-.86,0A14.77,14.77,0,0,1,74,69.43a16.91,16.91,0,0,1-5-6.31,9.29,9.29,0,0,1-.86-3.7,4.55,4.55,0,0,1,.9-2.83,8.83,8.83,0,0,1,3.8-2.75,14,14,0,0,1,5.09-.9Zm0-1.09h0c-3.85,0-7.55,1.25-9.75,4.08C64,61.26,71.93,73,81.74,73.77c.32,0,.64,0,.95,0,9,0,11.27-11.22,8.13-16.05C88.42,54.06,83,51.84,77.92,51.84Z"/><path class="cls-10" d="M83.5,98c.79,4.29.08,13.45,2.9,16.91,2.11,2.58.26,4.93,10.83,4.5,2.2-.09,7.16,3.53,5.33-3.93C98.1,97.29,83.46,97.83,83.5,98Z"/><path class="cls-10" d="M46,98.12C40.25,95.64,25.89,109,25.08,118.88c-.35,4.32,2.47,2.43,9.45,3.87,10.77,2.23,6.69-5.88,9.92-12.84C45.38,107.9,46,98.15,46,98.12Z"/><path class="cls-15" d="M69.43,116.19c-1.5,1-.82,4.86,1.07,4.86,2.19,0,18.73,1.43,18.73-1.14,0-2.31-.28-2.47-1-3.16C87.24,115.77,71.15,115,69.43,116.19Z"/><path class="cls-15" d="M63,115.61c1.71,1,.93,4.86-1.22,4.86-2.51,0-21.42,1.42-21.42-1.14,0-2.32.32-2.47,1.13-3.17C42.67,115.19,61.08,114.43,63,115.61Z"/><path class="cls-15" d="M69.43,123.73c-1.5,1-.82,4.86,1.07,4.86,2.19,0,18.73,1.43,18.73-1.14,0-2.32-.28-2.47-1-3.16C87.24,123.32,71.15,122.56,69.43,123.73Z"/><path class="cls-15" d="M63,123.15c1.71,1,.93,4.86-1.22,4.86-2.51,0-21.42,1.43-21.42-1.14,0-2.32.32-2.47,1.13-3.16C42.67,122.74,61.08,122,63,123.15Z"/><path class="cls-16" d="M93.29,35.7,34.22,36c0-12.94,4.85-24.09,18.07-27.83C60,6,82.18,8.17,86.57,16.87S90.83,27,93.29,35.7Z"/><path class="cls-17" d="M93.58,35.41c-3.84,0-17.77-3.28-30.91-3.62C49,31.44,36.08,34,35.15,34.83c-.23.2-1.27,1.29-1.36,1.16,7.53,8.64,41.85,13.15,51.61,4.51C86.1,39.89,93.28,36.28,93.58,35.41Z"/><path class="cls-18" d="M93.58,34.67c-3.84,0-17.77-2.62-30.91-2.88C49,31.5,36.08,33.57,35.15,34.21c-.23.16-1.27,1-1.36.93,7.53,6.9,41.85,10.5,51.61,3.6C86.1,38.25,93.28,35.37,93.58,34.67Z"/><path class="cls-18" d="M51.89,10.2C48.36,9.7,43.28,17.31,42,20.83c-5,14.33,3.06,12,3.06,10.93C45.1,24.55,46.21,15.15,51.89,10.2Z"/><path class="cls-18" d="M61,9.39c-2.73,2.23-6,21.74,1.78,21.74,4.93,0,3.08-8.38,3.19-13.08,0-1.38-1.59-10.15-4.71-8.67Z"/><path class="cls-18" d="M69.74,10.41C79.41,20.67,78.51,30.38,80,32c1,1.05,5.56,3,5.73-.52.35-7.54-.42-6.24-4.29-12.62-1.09-1.8-9-9.82-11.54-8.53Z"/><path class="cls-19" d="M62.14,74.37c.29.16,2.36,3.69-1.17,4.75a25.09,25.09,0,0,0-6.14,3.15c-.51.45-2.75,1.42-2.75.83,0-2.43,7.21-4.29,9-7.93C61.17,74.93,61.83,74.2,62.14,74.37Z"/><path class="cls-19" d="M65.71,74.55c-1,.9-1.54,3.11.4,3.86,2.15.83,5.8,1.12,7.82,2.83,1,.81,1.66.84,1.66-.46,0-2.71-6.6-2.62-7.94-5.4C67.28,74.61,65.75,74.51,65.71,74.55Z"/></g></g></g></svg>