<svg xmlns="http://www.w3.org/2000/svg" xmlns:xlink="http://www.w3.org/1999/xlink" viewBox="0 0 127.84 130.57"><defs><style>.cls-1{fill:none;}.cls-2{fill:#7ab0c9;}.cls-3{clip-path:url(#clip-path);}.cls-4{fill:#7fbce8;}.cls-4,.cls-5,.cls-6,.cls-7,.cls-8,.cls-9{fill-rule:evenodd;}.cls-5{fill:#004d98;}.cls-6{fill:#010002;}.cls-7{fill:#c9a970;}.cls-8{fill:#efd8aa;}.cls-9{fill:#896b36;}</style><clipPath id="clip-path"><rect class="cls-1" width="127.84" height="127.84" rx="22.39" ry="22.39"/></clipPath></defs><title>资源 23</title><g id="图层_2" data-name="图层 2"><g id="Capa_1" data-name="Capa 1"><rect class="cls-2" width="127.84" height="127.84" rx="22.39" ry="22.39"/><g class="cls-3"><path class="cls-4" d="M54.89,101.77a107.69,107.69,0,0,1,20.54.19c22.47,1.39,24.13,19.28,26.59,28.58-24.23.13-48.71-.23-72.94-.1C29.08,119,36.36,103.05,54.89,101.77Z"/><path class="cls-5" d="M71.45,101.81l-17.38-.6c-.67,5.19,6.31,15.11,12.66,14.67,4.77-.33,13-10.61,10.53-14Z"/><path class="cls-6" d="M70.34,101.8l-14.48-.5c-.56,4.32,5.26,12.59,10.54,12.22,4-.28,10.79-8.83,8.78-11.68Z"/><path class="cls-7" d="M71.91,87.85l-13.76-.69c-.07.3.73,15,1.05,16.78,1.16,5,11.57,6.27,12.63-.8Z"/><path class="cls-5" d="M46.91,130.33l-2.79,0c.63-3.89,1.21-8.3,2.3-7.37Z"/><path class="cls-5" d="M85.68,130.51l2.79,0c-.63-3.78-1.17-8.45-2.25-7.55Z"/><path class="cls-8" d="M40.65,39.55l-.5,19.61c-5.69-1.35-5.23,4.9-5.79,10.85-.14,1.54,2,8.08,3,9.41.81,1.11,2.63-.59,3.52,1.15,6.79,13.31,13.28,29,31.1,21.45,10.65-4.51,14-12.84,17.17-22.46C89.91,77,93.68,78,93.9,71.07c.1-3.06-.29-9.4-5.23-9.4l-.75-28.91H71.57l-24.13.75Z"/><path class="cls-9" d="M52.09,34.65c-17-.32-8.33,46.66-12.85,34.45-1.57-4.24,1.12-6.38-2.59-14.33-5.26-11.27-6.25-24.15,5-31.82,1-.65,3.51-5.76,4-6.25,8.06-8.17,34.57-4.77,46.57,10.23,6.62,8.27,5.31,19.37-.09,30.74-.73,1.53-3.11,19.27-4,8.35-.5-5.94.69-11.83-.53-21.06-.24-1.84-3.18-16.77-25-8.25-6.82,2.67-7.36,3-10.16.79C51.88,37,53.19,35.2,52.09,34.65Z"/></g></g></g></svg>