<svg xmlns="http://www.w3.org/2000/svg" xmlns:xlink="http://www.w3.org/1999/xlink" viewBox="0 0 127.84 130.04"><defs><style>.cls-1{fill:none;}.cls-2{fill:#d8d9db;}.cls-3{clip-path:url(#clip-path);}.cls-4,.cls-5{fill:#010002;}.cls-4,.cls-6{fill-rule:evenodd;}.cls-6{fill:#f0d6ac;}</style><clipPath id="clip-path"><rect class="cls-1" width="127.84" height="127.84" rx="22.39" ry="22.39"/></clipPath></defs><title>资源 18</title><g id="图层_2" data-name="图层 2"><g id="Capa_1" data-name="Capa 1"><rect class="cls-2" width="127.84" height="127.84" rx="22.39" ry="22.39"/><g class="cls-3"><path class="cls-4" d="M82,86.4,92.59,33.83C98.13,33.71,96.72,53,103.07,53c.47,0-.26,1.92-4.47,1.92.59,2.33,10.1,4.55-.15,15.17-1.69,1.75,3.74,11.78-8.83,15.16C88.34,85.59,82,86.39,82,86.4Z"/><path class="cls-5" d="M82,86.4l.17,0L92.76,33.87l-.17,0V34h0a2.2,2.2,0,0,1,1.64.77,11,11,0,0,1,2,4.34c.81,2.82,1.43,6.31,2.37,9.1a11.71,11.71,0,0,0,1.73,3.51,3.39,3.39,0,0,0,2.7,1.44v0l0,0h0v0l0,0,0-.06-.05,0,0,0,0-.06-.05,0h0a.68.68,0,0,1-.19.35c-.42.51-1.65,1.25-4.23,1.24h-.22l.05.21a2.86,2.86,0,0,0,.93,1.25,24,24,0,0,1,2.34,2.2A5,5,0,0,1,103,61.72c0,1.95-1.14,4.58-4.69,8.25a2.39,2.39,0,0,0-.42,1.65c0,1,.15,2.2.15,3.55a9.72,9.72,0,0,1-1.44,5.53c-1.18,1.77-3.29,3.37-7,4.38-.62.17-2.54.45-4.28.7L83,86.09l-.74.1-.21,0h-.1l-.06,0,.11.13.17,0-.17,0,.11.13L82,86.4l.05.16.06,0L82,86.4l.05.16,0-.15,0,.16h0l0-.15,0,.16,1.06-.14c.94-.12,2.34-.31,3.63-.5s2.46-.38,3-.51c3.81-1,6-2.67,7.24-4.52a10.08,10.08,0,0,0,1.5-5.72c0-1.38-.15-2.62-.15-3.55a2.08,2.08,0,0,1,.32-1.41c3.57-3.7,4.78-6.4,4.78-8.49a6,6,0,0,0-2.2-4.38c-.55-.52-1.12-1-1.56-1.38a2.59,2.59,0,0,1-.83-1.08l-.17,0v.17h0a7.77,7.77,0,0,0,3.69-.74,2.79,2.79,0,0,0,.81-.63,1,1,0,0,0,.27-.58.32.32,0,0,0-.07-.22.29.29,0,0,0-.22-.1,2.78,2.78,0,0,1-1.93-.78,10.06,10.06,0,0,1-2.3-4.34c-.9-2.82-1.51-6.3-2.35-9.09A12.86,12.86,0,0,0,95,35.11a2.86,2.86,0,0,0-2.35-1.45h-.2L81.71,86.84l.38-.32Z"/><path class="cls-4" d="M46.78,86.4,36.17,33.83C30.62,33.71,32,53,25.68,53c-.48,0,.26,1.92,4.47,1.92-.59,2.33-10.1,4.55.15,15.17,1.69,1.75-3.74,11.78,8.83,15.16C40.41,85.59,46.77,86.39,46.78,86.4Z"/><path class="cls-5" d="M46.78,86.4l.17,0L36.31,33.66h-.2a2.55,2.55,0,0,0-1.89.88A11.26,11.26,0,0,0,32.13,39c-.82,2.85-1.44,6.33-2.36,9.09a11.36,11.36,0,0,1-1.67,3.41,3,3,0,0,1-2.42,1.31.29.29,0,0,0-.22.1.32.32,0,0,0-.08.22,1,1,0,0,0,.27.58c.52.62,1.85,1.37,4.5,1.37h0v-.17l-.17,0A2.6,2.6,0,0,1,29.15,56a23.94,23.94,0,0,0-2.37,2.23,5.34,5.34,0,0,0-1.39,3.53c0,2.09,1.21,4.79,4.78,8.49a2.1,2.1,0,0,1,.32,1.41c0,.93-.15,2.17-.15,3.55a10.07,10.07,0,0,0,1.5,5.72c1.23,1.86,3.43,3.5,7.24,4.52.67.18,2.57.46,4.32.7l2.33.31.74.1.2,0h.06v0h0v0l0-.15,0,.15h0l0-.15,0,.15,0-.17-.05.16h0l0-.17-.05.16.05-.16-.11.13.06,0,.05-.16-.11.13.38.32-.1-.48-.17,0,.11-.13-.06,0h0l-1.08-.14c-.93-.12-2.34-.31-3.63-.5s-2.47-.38-2.92-.5c-3.76-1-5.87-2.61-7-4.38a9.74,9.74,0,0,1-1.44-5.53c0-1.35.15-2.59.15-3.55A2.39,2.39,0,0,0,30.43,70c-3.54-3.66-4.69-6.3-4.69-8.25a5.6,5.6,0,0,1,2.09-4.13c.54-.51,1.1-1,1.55-1.38A2.85,2.85,0,0,0,30.32,55l.05-.21h-.22a7.39,7.39,0,0,1-3.53-.7,2.43,2.43,0,0,1-.71-.55.67.67,0,0,1-.19-.35h-.05l0,0,0,0h-.05l0,0,0,0v0h0l0,0v0a3.14,3.14,0,0,0,2.16-.87,10.37,10.37,0,0,0,2.4-4.49c.91-2.86,1.52-6.34,2.35-9.1A12.61,12.61,0,0,1,34,35.31,2.51,2.51,0,0,1,36.11,34h0v-.17l-.17,0L46.61,86.43l.17,0,.11-.13Z"/><path class="cls-6" d="M93.16,75.85c.32-3.49-.32-11.2,0-14.69,1.32-.92,7.67-1.92,9.33,2.46,2,6.05-2.59,10.54-4.33,11.86A10,10,0,0,1,93.16,75.85Z"/><path class="cls-6" d="M92.2,30.93C86.05,17.38,46,17.24,39.83,33.86c-3.21,15.5-3.49,32.26.42,44.41,4.61,11.31,15.08,16.34,22.62,20.11,3.28,1.19,10.54.49,13-.84C84.73,93,92.55,83,94.29,75.76,96.32,60.4,97.51,45.66,92.2,30.93Z"/><path class="cls-6" d="M40.41,76.57c-.32-3.44.32-11,0-14.47-1.32-.9-7.67-1.89-9.33,2.42-2,6,2.59,10.38,4.33,11.68A10.19,10.19,0,0,0,40.41,76.57Z"/><path class="cls-4" d="M75.33,76.14C87.07,77.92,64.6,66.37,71.24,66c.27,0,11.53,8.19,18,9,.83.11-6.17-10.74-3.91-10.22C86,65,88,70,91.38,72.09c2.06,1.26,6.85,2.57,7.15,1.26.65-2.91-3.15-11.41-1.54-23.85,1.81-14-10.81-36.94-28.42-36.15C11.7,15.86,35.56,70.11,75.33,76.14Z"/><path class="cls-4" d="M57.62,97a63.54,63.54,0,0,1,16.9.22c18.49,1.59,19.64,21.6,21.67,32.28l-59.8.43C36.39,116.75,42.37,98.46,57.62,97Z"/><path class="cls-6" d="M74.75,86.05l-17-.72c-.08.32.9,15.71,1.3,17.58,1.43,5.21,14.28,6.57,15.57-.84Z"/><path class="cls-6" d="M37.8,118c-.33,1.59-2.28,11.06-1.45,12.06h10c-1-1.17.84-7.38.84-9.16C41.39,120.87,40.78,119.88,37.8,118Z"/><path class="cls-6" d="M94.18,117.86c.32,1.59,2.28,11.06,1.45,12.05h-10c1-1.17-.84-7.38-.84-9.16C90.58,120.75,91.2,119.75,94.18,117.86Z"/></g></g></g></svg>