<?xml version="1.0" encoding="utf-8"?>
<!-- Generator: Adobe Illustrator 23.1.0, SVG Export Plug-In . SVG Version: 6.00 Build 0)  -->
<svg version="1.1" id="图层_1" xmlns="http://www.w3.org/2000/svg" xmlns:xlink="http://www.w3.org/1999/xlink" x="0px" y="0px"
	 viewBox="0 0 841.9 595.3" style="enable-background:new 0 0 841.9 595.3;" xml:space="preserve">
<style type="text/css">
	.st0{fill:url(#SVGID_1_);}
	.st1{fill:url(#SVGID_2_);}
	.st2{fill:#FFFFFF;}
	.st3{fill:#1B1B1D;}
	.st4{fill:#1D1D1B;}
	.st5{fill:url(#SVGID_3_);}
	.st6{fill:#FCFCFC;}
	.st7{fill:url(#SVGID_4_);}
	.st8{fill:url(#SVGID_5_);}
	.st9{font-family:'FZZHJW--GB1-0';}
	.st10{font-size:65.2749px;}
	.st11{fill:url(#SVGID_6_);}
</style>
<linearGradient id="SVGID_1_" gradientUnits="userSpaceOnUse" x1="123.9432" y1="94.0305" x2="185.6069" y2="155.6942">
	<stop  offset="0.1726" style="stop-color:#002FA7"/>
	<stop  offset="0.8456" style="stop-color:#311C87"/>
</linearGradient>
<path class="st0" d="M119.5,151.4H111v-26.2h8.6V151.4z M136.9,89.6h-8.6v61.8h8.6V89.6z M172.2,89.6h-8.6v35.6h8.6V89.6z
	 M154.6,89.6H146v61.8h8.6V89.6z M189.9,89.6h-8.6v61.8h8.6V89.6z"/>
<linearGradient id="SVGID_2_" gradientUnits="userSpaceOnUse" x1="123.9432" y1="187.2068" x2="185.6069" y2="248.8705">
	<stop  offset="0.1726" style="stop-color:#002FA7"/>
	<stop  offset="0.8456" style="stop-color:#311C87"/>
</linearGradient>
<path class="st1" d="M119.5,244.6H111v-26.2h8.6V244.6z M136.9,182.8h-8.6v61.8h8.6V182.8z M172.2,182.8h-8.6v35.6h8.6V182.8z
	 M154.6,182.8H146v61.8h8.6V182.8z M189.9,182.8h-8.6v61.8h8.6V182.8z"/>
<path class="st2" d="M223.2,244.6h-8.6v-26.2h8.6V244.6z M240.6,182.8H232v61.8h8.6V182.8z M275.9,182.8h-8.6v35.6h8.6V182.8z
	 M258.3,182.8h-8.6v61.8h8.6V182.8z M293.6,182.8H285v61.8h8.6V182.8z"/>
<path class="st3" d="M329.6,244.6H321v-26.2h8.6V244.6z M347,182.8h-8.6v61.8h8.6V182.8z M382.3,182.8h-8.6v35.6h8.6V182.8z
	 M364.7,182.8h-8.6v61.8h8.6V182.8z M400,182.8h-8.6v61.8h8.6V182.8z"/>
<g>
	<path class="st4" d="M208.1,97.4v-3.7h11.5c4.1,0,7.8-0.5,10.9-1.6v4c-2.6,0.8-5.4,1.2-8.4,1.2v10h8.7v3.7h-8.4
		c2.2,6.6,5.3,12.7,9.3,18.4v4.9c-4-4.3-7.2-8.8-9.7-13.7v30.8h-5.2v-28.6c-2.2,5.4-5.6,11.1-10.3,16.9v-5.3
		c4.1-6.7,7.4-14.5,10.1-23.3h-9.3v-3.7h9.5v-10H208.1z M228.6,151.2v-3.9c3.2-2.8,5.5-5.5,6.9-8.2c1.5-2.7,2.4-6.2,2.9-10.5h5.4
		c-0.9,5.5-2.4,9.9-4.6,13.2C237.1,145,233.5,148.1,228.6,151.2z M233.8,124.1v-30h31.4v21.1c0,3.1-0.7,5.4-2,6.7
		c-1.4,1.4-3.7,2.1-6.8,2.1H233.8z M239.2,120.4H255c1.7,0,2.9-0.4,3.7-1.2c0.8-0.8,1.2-2,1.2-3.7V97.8h-20.6V120.4z M269.3,151.2
		c-4.7-2.9-8.2-6-10.5-9.4c-2.4-3.4-3.9-7.7-4.6-13.1h5.3c0.6,4.3,1.6,7.8,3,10.4c1.4,2.6,3.7,5.3,6.9,8.2V151.2z"/>
	<path class="st4" d="M337.1,145.9c-6.9-5-12.1-10.7-15.4-16.9c-3.3-6.2-5.4-14.3-6.3-24.3H309v46.7h-5.8v-46.7h-6.4
		c-1,10.1-3.1,18.2-6.3,24.3c-3.1,5.9-8.3,11.5-15.3,16.9v-4.3c5.1-5.4,8.9-10.7,11.2-16c2.4-5.4,4-12.4,4.9-20.9h-14.1v-4h26.1
		V89.6h5.8v11.2h26.2v4H321c0.9,8.7,2.5,15.7,4.9,20.9c2.3,5.2,6.1,10.5,11.3,16V145.9z"/>
	<path class="st4" d="M343.6,151.4v-4.6c2.2-4,3.7-7.7,4.4-11.3c0.8-3.7,1.2-9.2,1.2-16.3v-25h25.1v-4.7h6.3v4.7h24.1v3.8h-49.9
		v19.6c0,9.2-0.8,16.1-2.4,20.7C350.9,142.7,347.9,147,343.6,151.4z M358.9,111v-3.7h12.8c0.5-1,1.4-2.9,2.7-5.7h6.3
		c-1.7,3.4-2.6,5.3-2.9,5.7h24.8v3.7h-26.9c-2.5,4.3-5.9,8.6-10,13h13.7v-9.1h5.5v9.1h16.5v3.6H385v8.2h19.9v3.7H385v11.8h-5.5
		v-11.8h-23.1v-3.7h23.1v-8.2h-18.9v-3.6c4.1-5,7.2-9.4,9.2-13H358.9z"/>
</g>
<linearGradient id="SVGID_3_" gradientUnits="userSpaceOnUse" x1="456.0001" y1="94.0305" x2="517.6638" y2="155.6942">
	<stop  offset="0.1726" style="stop-color:#002FA7"/>
	<stop  offset="0.8456" style="stop-color:#311C87"/>
</linearGradient>
<path class="st5" d="M451.6,151.4H443v-26.2h8.6V151.4z M469,89.6h-8.6v61.8h8.6V89.6z M504.3,89.6h-8.6v35.6h8.6V89.6z M486.6,89.6
	h-8.6v61.8h8.6V89.6z M522,89.6h-8.6v61.8h8.6V89.6z"/>
<g>
	<path class="st2" d="M540.2,97.4v-3.7h11.5c4.1,0,7.8-0.5,10.9-1.6v4c-2.6,0.8-5.4,1.2-8.4,1.2v10h8.7v3.7h-8.4
		c2.2,6.6,5.3,12.7,9.3,18.4v4.9c-4-4.3-7.2-8.8-9.7-13.7v30.8H549v-28.6c-2.2,5.4-5.6,11.1-10.3,16.9v-5.3
		c4.1-6.7,7.4-14.5,10.1-23.3h-9.3v-3.7h9.5v-10H540.2z M560.7,151.2v-3.9c3.2-2.8,5.5-5.5,6.9-8.2c1.5-2.7,2.4-6.2,2.9-10.5h5.4
		c-0.9,5.5-2.4,9.9-4.6,13.2C569.2,145,565.6,148.1,560.7,151.2z M565.8,124.1v-30h31.4v21.1c0,3.1-0.7,5.4-2,6.7
		c-1.4,1.4-3.7,2.1-6.8,2.1H565.8z M571.3,120.4H587c1.7,0,2.9-0.4,3.7-1.2c0.8-0.8,1.2-2,1.2-3.7V97.8h-20.6V120.4z M601.3,151.2
		c-4.7-2.9-8.2-6-10.5-9.4c-2.4-3.4-3.9-7.7-4.6-13.1h5.3c0.6,4.3,1.6,7.8,3,10.4c1.4,2.6,3.7,5.3,6.9,8.2V151.2z"/>
	<path class="st2" d="M669.2,145.9c-6.9-5-12.1-10.7-15.4-16.9c-3.3-6.2-5.4-14.3-6.3-24.3h-6.4v46.7h-5.8v-46.7h-6.4
		c-1,10.1-3.1,18.2-6.3,24.3c-3.1,5.9-8.3,11.5-15.3,16.9v-4.3c5.1-5.4,8.9-10.7,11.2-16c2.4-5.4,4-12.4,4.9-20.9h-14.1v-4h26.1
		V89.6h5.8v11.2h26.2v4H653c0.9,8.7,2.5,15.7,4.9,20.9c2.3,5.2,6.1,10.5,11.3,16V145.9z"/>
	<path class="st2" d="M675.6,151.4v-4.6c2.2-4,3.7-7.7,4.4-11.3c0.8-3.7,1.2-9.2,1.2-16.3v-25h25.1v-4.7h6.3v4.7h24.1v3.8h-49.9
		v19.6c0,9.2-0.8,16.1-2.4,20.7C682.9,142.7,680,147,675.6,151.4z M691,111v-3.7h12.8c0.5-1,1.4-2.9,2.7-5.7h6.3
		c-1.7,3.4-2.6,5.3-2.9,5.7h24.8v3.7h-26.9c-2.5,4.3-5.9,8.6-10,13h13.7v-9.1h5.5v9.1h16.5v3.6H717v8.2h19.9v3.7H717v11.8h-5.5
		v-11.8h-23.1v-3.7h23.1v-8.2h-18.9v-3.6c4.1-5,7.2-9.4,9.2-13H691z"/>
</g>
<path class="st6" d="M451.6,244.6H443v-26.2h8.6V244.6z M469,182.8h-8.6v61.8h8.6V182.8z M504.3,182.8h-8.6v35.6h8.6V182.8z
	 M486.6,182.8h-8.6v61.8h8.6V182.8z M522,182.8h-8.6v61.8h8.6V182.8z"/>
<g>
	<path class="st2" d="M540.2,190.6v-3.7h11.5c4.1,0,7.8-0.5,10.9-1.6v4c-2.6,0.8-5.4,1.2-8.4,1.2v10h8.7v3.7h-8.4
		c2.2,6.6,5.3,12.7,9.3,18.4v4.9c-4-4.3-7.2-8.8-9.7-13.7v30.8H549V216c-2.2,5.4-5.6,11.1-10.3,16.9v-5.3
		c4.1-6.7,7.4-14.5,10.1-23.3h-9.3v-3.7h9.5v-10H540.2z M560.7,244.4v-3.9c3.2-2.8,5.5-5.5,6.9-8.2c1.5-2.7,2.4-6.2,2.9-10.5h5.4
		c-0.9,5.5-2.4,9.9-4.6,13.2C569.2,238.2,565.6,241.3,560.7,244.4z M565.8,217.3v-30h31.4v21.1c0,3.1-0.7,5.4-2,6.7
		c-1.4,1.4-3.7,2.1-6.8,2.1H565.8z M571.3,213.6H587c1.7,0,2.9-0.4,3.7-1.2c0.8-0.8,1.2-2,1.2-3.7v-17.7h-20.6V213.6z M601.3,244.4
		c-4.7-2.9-8.2-6-10.5-9.4c-2.4-3.4-3.9-7.7-4.6-13.1h5.3c0.6,4.3,1.6,7.8,3,10.4c1.4,2.6,3.7,5.3,6.9,8.2V244.4z"/>
	<path class="st2" d="M669.2,239.1c-6.9-5-12.1-10.7-15.4-16.9c-3.3-6.2-5.4-14.3-6.3-24.3h-6.4v46.7h-5.8v-46.7h-6.4
		c-1,10.1-3.1,18.2-6.3,24.3c-3.1,5.9-8.3,11.5-15.3,16.9v-4.3c5.1-5.4,8.9-10.7,11.2-16c2.4-5.4,4-12.4,4.9-20.9h-14.1v-4h26.1
		v-11.2h5.8V194h26.2v4H653c0.9,8.7,2.5,15.7,4.9,20.9c2.3,5.2,6.1,10.5,11.3,16V239.1z"/>
	<path class="st2" d="M675.6,244.6V240c2.2-4,3.7-7.7,4.4-11.3c0.8-3.7,1.2-9.2,1.2-16.3v-25h25.1v-4.7h6.3v4.7h24.1v3.8h-49.9v19.6
		c0,9.2-0.8,16.1-2.4,20.7C682.9,235.9,680,240.2,675.6,244.6z M691,204.2v-3.7h12.8c0.5-1,1.4-2.9,2.7-5.7h6.3
		c-1.7,3.4-2.6,5.3-2.9,5.7h24.8v3.7h-26.9c-2.5,4.3-5.9,8.6-10,13h13.7v-9.1h5.5v9.1h16.5v3.6H717v8.2h19.9v3.7H717v11.8h-5.5
		v-11.8h-23.1V229h23.1v-8.2h-18.9v-3.6c4.1-5,7.2-9.4,9.2-13H691z"/>
</g>
<linearGradient id="SVGID_4_" gradientUnits="userSpaceOnUse" x1="108.1822" y1="342.3583" x2="190.0245" y2="415.5692">
	<stop  offset="0.1726" style="stop-color:#002FA7"/>
	<stop  offset="0.8456" style="stop-color:#311C87"/>
</linearGradient>
<path class="st7" d="M182,386.4h8.3v25.1H182V386.4z M182,352.3h8.3v19H182V352.3z M165.1,411.5h8.3v-59.3h-8.3V411.5z M139.6,352.3
	h-8.3v34.1h8.3V352.3z M122.8,352.3h-8.3v59.3h8.3V352.3z M156.5,352.3h-8.3v59.3h8.3V352.3z"/>
<linearGradient id="SVGID_5_" gradientUnits="userSpaceOnUse" x1="108.1822" y1="423.8875" x2="190.0245" y2="497.0984">
	<stop  offset="0.1726" style="stop-color:#002FA7"/>
	<stop  offset="0.8456" style="stop-color:#311C87"/>
</linearGradient>
<path class="st8" d="M182,467.9h8.3V493H182V467.9z M182,433.8h8.3v19H182V433.8z M165.1,493.1h8.3v-59.3h-8.3V493.1z M139.6,433.9
	h-8.3v34.1h8.3V433.9z M122.8,433.8h-8.3v59.3h8.3V433.8z M156.5,433.8h-8.3v59.3h8.3V433.8z"/>
<path class="st2" d="M283.7,467.9h8.3V493h-8.3V467.9z M283.7,433.8h8.3v19h-8.3V433.8z M266.9,493.1h8.3v-59.3h-8.3V493.1z
	 M241.3,433.9h-8.3v34.1h8.3V433.9z M224.5,433.8h-8.3v59.3h8.3V433.8z M258.2,433.8h-8.3v59.3h8.3V433.8z"/>
<path class="st3" d="M387,467.9h8.3V493H387V467.9z M387,433.8h8.3v19H387V433.8z M370.1,493.1h8.3v-59.3h-8.3V493.1z M344.6,433.9
	h-8.3v34.1h8.3V433.9z M327.8,433.8h-8.3v59.3h8.3V433.8z M361.5,433.8h-8.3v59.3h8.3V433.8z"/>
<text transform="matrix(1 0 0 1 204.1362 404.8595)" class="st9 st10">模板库</text>
<linearGradient id="SVGID_6_" gradientUnits="userSpaceOnUse" x1="448.8664" y1="342.3583" x2="530.7087" y2="415.5692">
	<stop  offset="0.1726" style="stop-color:#002FA7"/>
	<stop  offset="0.8456" style="stop-color:#311C87"/>
</linearGradient>
<path class="st11" d="M522.7,386.4h8.3v25.1h-8.3V386.4z M522.7,352.3h8.3v19h-8.3V352.3z M505.8,411.5h8.3v-59.3h-8.3V411.5z
	 M480.3,352.3H472v34.1h8.3V352.3z M463.5,352.3h-8.3v59.3h8.3V352.3z M497.2,352.3h-8.3v59.3h8.3V352.3z"/>
<text transform="matrix(1 0 0 1 544.8204 404.8595)" class="st9 st10">模板库</text>
<path class="st2" d="M522.7,467.9h8.3V493h-8.3V467.9z M522.7,433.8h8.3v19h-8.3V433.8z M505.8,493.1h8.3v-59.3h-8.3V493.1z
	 M480.3,433.9H472v34.1h8.3V433.9z M463.5,433.8h-8.3v59.3h8.3V433.8z M497.2,433.8h-8.3v59.3h8.3V433.8z"/>
<text transform="matrix(1 0 0 1 544.8204 486.389)" class="st2 st9 st10">模板库</text>
</svg>
