<?xml version="1.0" encoding="utf-8"?>
<!-- Generator: Adobe Illustrator 23.1.0, SVG Export Plug-In . SVG Version: 6.00 Build 0)  -->
<svg version="1.1" id="图层_1" xmlns="http://www.w3.org/2000/svg" xmlns:xlink="http://www.w3.org/1999/xlink" x="0px" y="0px"
	 viewBox="0 0 293.9 61.8" style="enable-background:new 0 0 293.9 61.8;" xml:space="preserve">
<style type="text/css">
	.st0{fill:url(#SVGID_1_);}
	.st1{fill:#FFFFFF;}
</style>
<linearGradient id="SVGID_1_" gradientUnits="userSpaceOnUse" x1="12.9885" y1="4.4136" x2="74.6522" y2="66.0772">
	<stop  offset="0.1726" style="stop-color:#002FA7"/>
	<stop  offset="0.8456" style="stop-color:#311C87"/>
</linearGradient>
<path class="st0" d="M8.6,61.8H0V35.6h8.6V61.8z M26,0h-8.6v61.8H26V0z M61.3,0h-8.6v35.6h8.6V0z M43.6,0h-8.6v61.8h8.6V0z M78.9,0
	h-8.6v61.8h8.6V0z"/>
<g>
	<path class="st1" d="M97.2,7.8V4.1h11.5c4.1,0,7.8-0.5,10.9-1.6v4c-2.6,0.8-5.4,1.2-8.4,1.2v10h8.7v3.7h-8.4
		c2.2,6.6,5.3,12.7,9.3,18.4v4.9c-4-4.3-7.2-8.8-9.7-13.7v30.8H106V33.2c-2.2,5.4-5.6,11.1-10.3,16.9v-5.3
		c4.1-6.7,7.4-14.5,10.1-23.3h-9.3v-3.7h9.5v-10H97.2z M117.6,61.6v-3.9c3.2-2.8,5.5-5.5,6.9-8.2c1.5-2.7,2.4-6.2,2.9-10.5h5.4
		c-0.9,5.5-2.4,9.9-4.6,13.2C126.1,55.4,122.6,58.5,117.6,61.6z M122.8,34.5v-30h31.4v21.1c0,3.1-0.7,5.4-2,6.7
		c-1.4,1.4-3.7,2.1-6.8,2.1H122.8z M128.3,30.8H144c1.7,0,2.9-0.4,3.7-1.2c0.8-0.8,1.2-2,1.2-3.7V8.2h-20.6V30.8z M158.3,61.6
		c-4.7-2.9-8.2-6-10.5-9.4c-2.4-3.4-3.9-7.7-4.6-13.1h5.3c0.6,4.3,1.6,7.8,3,10.4c1.4,2.6,3.7,5.3,6.9,8.2V61.6z"/>
	<path class="st1" d="M226.2,56.3c-6.9-5-12.1-10.7-15.4-16.9c-3.3-6.2-5.4-14.3-6.3-24.3h-6.4v46.7h-5.8V15.1h-6.4
		c-1,10.1-3.1,18.2-6.3,24.3c-3.1,5.9-8.3,11.5-15.3,16.9V52c5.1-5.4,8.9-10.7,11.2-16c2.4-5.4,4-12.4,4.9-20.9h-14.1v-4h26.1V0h5.8
		v11.2h26.2v4H210c0.9,8.7,2.5,15.7,4.9,20.9c2.3,5.2,6.1,10.5,11.3,16V56.3z"/>
	<path class="st1" d="M232.6,61.8v-4.6c2.2-4,3.7-7.7,4.4-11.3c0.8-3.7,1.2-9.2,1.2-16.3v-25h25.1V0h6.3v4.7h24.1v3.8h-49.9V28
		c0,9.2-0.8,16.1-2.4,20.7C239.9,53.1,237,57.4,232.6,61.8z M247.9,21.4v-3.7h12.8c0.5-1,1.4-2.9,2.7-5.7h6.3
		c-1.7,3.4-2.6,5.3-2.9,5.7h24.8v3.7h-26.9c-2.5,4.3-5.9,8.6-10,13h13.7v-9.1h5.5v9.1h16.5v3.6H274v8.2h19.9v3.7H274v11.8h-5.5V49.9
		h-23.1v-3.7h23.1v-8.2h-18.9v-3.6c4.1-5,7.2-9.4,9.2-13H247.9z"/>
</g>
</svg>
